<?xml version="1.0" encoding="UTF-8" standalone="no"?>
<!DOCTYPE svg PUBLIC "-//W3C//DTD SVG 1.1//EN"
 "http://www.w3.org/Graphics/SVG/1.1/DTD/svg11.dtd">
<!-- Generated by graphviz version 2.50.0 (20211204.2007)
 -->
<!-- Title: main Pages: 1 -->
<!--zoomable 204 -->
<svg id="main" version="1.1" xmlns="http://www.w3.org/2000/svg" xmlns:xlink="http://www.w3.org/1999/xlink" xml:space="preserve" onload="init(evt)">
<style type="text/css"><![CDATA[
.edge:hover path { stroke: red; }
.edge:hover polygon { stroke: red; fill: red; }
]]></style>
<script type="text/javascript"><![CDATA[
var edges = document.getElementsByTagName('g');
if (edges && edges.length) {
  for (var i=0;i<edges.length;i++) {
    if (edges[i].id.substr(0,4)=='edge') {
      edges[i].setAttribute('class','edge');
    }
  }
}
]]></script>
        <defs>
                <circle id="rim" cx="0" cy="0" r="7"/>
                <circle id="rim2" cx="0" cy="0" r="3.5"/>
                <g id="zoomPlus">
                        <use xlink:href="#rim" fill="#404040">
                                <set attributeName="fill" to="#808080" begin="zoomplus.mouseover" end="zoomplus.mouseout"/>
                        </use>
                        <path d="M-4,0h8M0,-4v8" fill="none" stroke="white" stroke-width="1.5" pointer-events="none"/>
                </g>
                <g id="zoomMin">
                        <use xlink:href="#rim" fill="#404040">
                                <set attributeName="fill" to="#808080" begin="zoomminus.mouseover" end="zoomminus.mouseout"/>
                        </use>
                        <path d="M-4,0h8" fill="none" stroke="white" stroke-width="1.5" pointer-events="none"/>
                </g>
                <g id="dirArrow">
                        <path fill="none" stroke="white" stroke-width="1.5" d="M0,-3.0v7 M-2.5,-0.5L0,-3.0L2.5,-0.5"/>
                </g>
               <g id="resetDef">
                       <use xlink:href="#rim2" fill="#404040">
                               <set attributeName="fill" to="#808080" begin="reset.mouseover" end="reset.mouseout"/>
                       </use>
               </g>
        </defs>

<script type="text/javascript">
var viewWidth = 1017;
var viewHeight = 204;
var sectionId = 'dynsection-1';
</script>
<script xlink:href="svgpan.js"/>
<svg id="graph" class="graph">
<g id="viewport">
<title>main</title>
<polygon fill="white" stroke="transparent" points="-4,4 -4,-200 1013,-200 1013,4 -4,4"/>
<!-- Node1 -->
<g id="node1" class="node">
<title>Node1</title>
<g id="a_node1"><a xlink:title=" ">
<polygon fill="#bfbfbf" stroke="black" points="0,-64.5 0,-85.5 42,-85.5 42,-64.5 0,-64.5"/>
<text text-anchor="middle" x="21" y="-71.9" font-family="Helvetica,sans-Serif" font-size="12.00">main</text>
</a>
</g>
</g>
<!-- Node2 -->
<g id="node2" class="node">
<title>Node2</title>
<g id="a_node2"><a xlink:href="class_game.html#a50b01080d0d7c5bfc317801a360c84ac" target="_top" xlink:title=" ">
<polygon fill="white" stroke="black" points="78,-64.5 78,-85.5 154,-85.5 154,-64.5 78,-64.5"/>
<text text-anchor="middle" x="116" y="-71.9" font-family="Helvetica,sans-Serif" font-size="12.00">Game::play</text>
</a>
</g>
</g>
<!-- Node1&#45;&gt;Node2 -->
<g id="edge1" class="edge">
<title>Node1&#45;&gt;Node2</title>
<path fill="none" stroke="midnightblue" d="M42.18,-75C49.79,-75 58.8,-75 67.84,-75"/>
<polygon fill="midnightblue" stroke="midnightblue" points="67.99,-78.5 77.99,-75 67.99,-71.5 67.99,-78.5"/>
</g>
<!-- Node3 -->
<g id="node3" class="node">
<title>Node3</title>
<g id="a_node3"><a xlink:href="class_game.html#a44e9cbf9c4f376e31a83ca6179f0ca38" target="_top" xlink:title=" ">
<polygon fill="white" stroke="black" points="203.5,-84.5 203.5,-105.5 323.5,-105.5 323.5,-84.5 203.5,-84.5"/>
<text text-anchor="middle" x="263.5" y="-91.9" font-family="Helvetica,sans-Serif" font-size="12.00">Game::playerGuess</text>
</a>
</g>
</g>
<!-- Node2&#45;&gt;Node3 -->
<g id="edge2" class="edge">
<title>Node2&#45;&gt;Node3</title>
<path fill="none" stroke="midnightblue" d="M154.09,-80.1C166.03,-81.74 179.68,-83.62 193.17,-85.47"/>
<polygon fill="midnightblue" stroke="midnightblue" points="193.04,-88.98 203.42,-86.88 193.99,-82.05 193.04,-88.98"/>
</g>
<!-- Node13 -->
<g id="node13" class="node">
<title>Node13</title>
<g id="a_node13"><a xlink:href="class_game.html#add1f07beb90c3a85e640bf343f2f3cda" target="_top" xlink:title=" ">
<polygon fill="white" stroke="black" points="609,-174.5 609,-195.5 759,-195.5 759,-174.5 609,-174.5"/>
<text text-anchor="middle" x="684" y="-181.9" font-family="Helvetica,sans-Serif" font-size="12.00">Game::welcomeMessage</text>
</a>
</g>
</g>
<!-- Node2&#45;&gt;Node13 -->
<g id="edge18" class="edge">
<title>Node2&#45;&gt;Node13</title>
<path fill="none" stroke="midnightblue" d="M132.47,-85.64C146.75,-94.93 168.88,-107.97 190,-115 328.59,-161.1 498.97,-176.84 598.82,-182.22"/>
<polygon fill="midnightblue" stroke="midnightblue" points="598.69,-185.71 608.86,-182.73 599.05,-178.72 598.69,-185.71"/>
</g>
<!-- Node17 -->
<g id="node17" class="node">
<title>Node17</title>
<g id="a_node17"><a xlink:href="class_game.html#aff845e992fb69e1c2c7f749e8786699c" target="_top" xlink:title=" ">
<polygon fill="white" stroke="black" points="190,-44.5 190,-65.5 337,-65.5 337,-44.5 190,-44.5"/>
<text text-anchor="middle" x="263.5" y="-51.9" font-family="Helvetica,sans-Serif" font-size="12.00">Game::populateWordList</text>
</a>
</g>
</g>
<!-- Node2&#45;&gt;Node17 -->
<g id="edge16" class="edge">
<title>Node2&#45;&gt;Node17</title>
<path fill="none" stroke="midnightblue" d="M154.09,-69.9C162.04,-68.81 170.75,-67.61 179.67,-66.39"/>
<polygon fill="midnightblue" stroke="midnightblue" points="180.36,-69.82 189.79,-64.99 179.4,-62.89 180.36,-69.82"/>
</g>
<!-- Node18 -->
<g id="node18" class="node">
<title>Node18</title>
<g id="a_node18"><a xlink:href="class_game.html#a5872e5f53336a95489970a67d15d5dc0" target="_top" xlink:title=" ">
<polygon fill="white" stroke="black" points="206.5,-4.5 206.5,-25.5 320.5,-25.5 320.5,-4.5 206.5,-4.5"/>
<text text-anchor="middle" x="263.5" y="-11.9" font-family="Helvetica,sans-Serif" font-size="12.00">Game::selectWord</text>
</a>
</g>
</g>
<!-- Node2&#45;&gt;Node18 -->
<g id="edge17" class="edge">
<title>Node2&#45;&gt;Node18</title>
<path fill="none" stroke="midnightblue" d="M133.56,-64.47C148.01,-55.64 169.78,-43.2 190,-35 195.8,-32.65 201.96,-30.48 208.16,-28.5"/>
<polygon fill="midnightblue" stroke="midnightblue" points="209.31,-31.81 217.86,-25.56 207.28,-25.11 209.31,-31.81"/>
</g>
<!-- Node4 -->
<g id="node4" class="node">
<title>Node4</title>
<g id="a_node4"><a xlink:href="class_game.html#a5e77f0c5ee41d17531e12de8211d8683" target="_top" xlink:title=" ">
<polygon fill="white" stroke="black" points="373,-104.5 373,-125.5 552,-125.5 552,-104.5 373,-104.5"/>
<text text-anchor="middle" x="462.5" y="-111.9" font-family="Helvetica,sans-Serif" font-size="12.00">Game::checkAndDisplayGuess</text>
</a>
</g>
</g>
<!-- Node3&#45;&gt;Node4 -->
<g id="edge3" class="edge">
<title>Node3&#45;&gt;Node4</title>
<path fill="none" stroke="midnightblue" d="M323.61,-101C335.98,-102.26 349.35,-103.61 362.72,-104.97"/>
<polygon fill="midnightblue" stroke="midnightblue" points="362.63,-108.48 372.93,-106.01 363.33,-101.52 362.63,-108.48"/>
</g>
<!-- Node14 -->
<g id="node14" class="node">
<title>Node14</title>
<g id="a_node14"><a xlink:href="class_game.html#a0fe1584b29f33bf17dd976447fc0f8ce" target="_top" xlink:title=" ">
<polygon fill="white" stroke="black" points="403,-17.5 403,-38.5 522,-38.5 522,-17.5 403,-17.5"/>
<text text-anchor="middle" x="462.5" y="-24.9" font-family="Helvetica,sans-Serif" font-size="12.00">Game::isValidWord</text>
</a>
</g>
</g>
<!-- Node3&#45;&gt;Node14 -->
<g id="edge13" class="edge">
<title>Node3&#45;&gt;Node14</title>
<path fill="none" stroke="midnightblue" d="M309.15,-84.48C318.49,-81.78 328.18,-78.61 337,-75 353.94,-68.07 356.15,-62.15 373,-55 384.9,-49.95 398.07,-45.4 410.52,-41.55"/>
<polygon fill="midnightblue" stroke="midnightblue" points="411.75,-44.83 420.33,-38.6 409.74,-38.13 411.75,-44.83"/>
</g>
<!-- Node16 -->
<g id="node16" class="node">
<title>Node16</title>
<g id="a_node16"><a xlink:href="class_game.html#af9f553e976692b1dbe351655ee5d1191" target="_top" xlink:title=" ">
<polygon fill="white" stroke="black" points="382,-64.5 382,-85.5 543,-85.5 543,-64.5 382,-64.5"/>
<text text-anchor="middle" x="462.5" y="-71.9" font-family="Helvetica,sans-Serif" font-size="12.00">Game::printAvailableLetters</text>
</a>
</g>
</g>
<!-- Node3&#45;&gt;Node16 -->
<g id="edge15" class="edge">
<title>Node3&#45;&gt;Node16</title>
<path fill="none" stroke="midnightblue" d="M323.61,-89C338.72,-87.47 355.31,-85.78 371.59,-84.13"/>
<polygon fill="midnightblue" stroke="midnightblue" points="372.07,-87.6 381.66,-83.11 371.36,-80.63 372.07,-87.6"/>
</g>
<!-- Node5 -->
<g id="node5" class="node">
<title>Node5</title>
<g id="a_node5"><a xlink:href="class_guess_word.html#a0b8dc3f491b390b645b6c3edd15b355e" target="_top" xlink:title=" ">
<polygon fill="white" stroke="black" points="623,-94.5 623,-115.5 745,-115.5 745,-94.5 623,-94.5"/>
<text text-anchor="middle" x="684" y="-101.9" font-family="Helvetica,sans-Serif" font-size="12.00">GuessWord::display</text>
</a>
</g>
</g>
<!-- Node4&#45;&gt;Node5 -->
<g id="edge4" class="edge">
<title>Node4&#45;&gt;Node5</title>
<path fill="none" stroke="midnightblue" d="M552.15,-110.96C572.32,-110.04 593.48,-109.08 612.76,-108.2"/>
<polygon fill="midnightblue" stroke="midnightblue" points="613.13,-111.69 622.96,-107.74 612.81,-104.69 613.13,-111.69"/>
</g>
<!-- Node7 -->
<g id="node7" class="node">
<title>Node7</title>
<g id="a_node7"><a xlink:href="class_game.html#a1aa22be99a91aa5c7752bb49641bbf30" target="_top" xlink:title=" ">
<polygon fill="white" stroke="black" points="609.5,-41 609.5,-75 758.5,-75 758.5,-41 609.5,-41"/>
<text text-anchor="start" x="617.5" y="-61.4" font-family="Helvetica,sans-Serif" font-size="12.00">Game::setAvailableLetter</text>
<text text-anchor="middle" x="684" y="-48.4" font-family="Helvetica,sans-Serif" font-size="12.00">Status</text>
</a>
</g>
</g>
<!-- Node4&#45;&gt;Node7 -->
<g id="edge6" class="edge">
<title>Node4&#45;&gt;Node7</title>
<path fill="none" stroke="midnightblue" d="M512.3,-104.46C525.24,-101.53 539.18,-98.26 552,-95 555.38,-94.14 583.54,-86.19 612.89,-77.88"/>
<polygon fill="midnightblue" stroke="midnightblue" points="614.19,-81.16 622.86,-75.06 612.28,-74.42 614.19,-81.16"/>
</g>
<!-- Node10 -->
<g id="node10" class="node">
<title>Node10</title>
<g id="a_node10"><a xlink:href="class_guess_word.html#a158140ba0693b2e09d3066b1c0145119" target="_top" xlink:title=" ">
<polygon fill="white" stroke="black" points="588,-134.5 588,-155.5 780,-155.5 780,-134.5 588,-134.5"/>
<text text-anchor="middle" x="684" y="-141.9" font-family="Helvetica,sans-Serif" font-size="12.00">GuessWord::setGuessCharacters</text>
</a>
</g>
</g>
<!-- Node4&#45;&gt;Node10 -->
<g id="edge9" class="edge">
<title>Node4&#45;&gt;Node10</title>
<path fill="none" stroke="midnightblue" d="M540.58,-125.53C558.51,-127.98 577.71,-130.61 596.03,-133.11"/>
<polygon fill="midnightblue" stroke="midnightblue" points="595.72,-136.6 606.11,-134.49 596.67,-129.67 595.72,-136.6"/>
</g>
<!-- Node4&#45;&gt;Node13 -->
<g id="edge12" class="edge">
<title>Node4&#45;&gt;Node13</title>
<path fill="none" stroke="midnightblue" d="M486.47,-125.64C511.13,-136.72 551.67,-153.97 588,-165 596.71,-167.64 605.96,-170.06 615.15,-172.23"/>
<polygon fill="midnightblue" stroke="midnightblue" points="614.54,-175.68 625.07,-174.49 616.1,-168.85 614.54,-175.68"/>
</g>
<!-- Node6 -->
<g id="node6" class="node">
<title>Node6</title>
<g id="a_node6"><a xlink:href="class_guess_character.html#ac7a6b5befd4b2808249349cf65300a49" target="_top" xlink:title=" ">
<polygon fill="white" stroke="black" points="827.5,-94.5 827.5,-115.5 997.5,-115.5 997.5,-94.5 827.5,-94.5"/>
<text text-anchor="middle" x="912.5" y="-101.9" font-family="Helvetica,sans-Serif" font-size="12.00">GuessCharacter::displayChar</text>
</a>
</g>
</g>
<!-- Node5&#45;&gt;Node6 -->
<g id="edge5" class="edge">
<title>Node5&#45;&gt;Node6</title>
<path fill="none" stroke="midnightblue" d="M745.1,-105C767.22,-105 792.83,-105 817.24,-105"/>
<polygon fill="midnightblue" stroke="midnightblue" points="817.24,-108.5 827.24,-105 817.24,-101.5 817.24,-108.5"/>
</g>
<!-- Node8 -->
<g id="node8" class="node">
<title>Node8</title>
<g id="a_node8"><a xlink:href="class_guess_word.html#a10dbff1cdd81fe3d38e71f5d2552992d" target="_top" xlink:title=" ">
<polygon fill="white" stroke="black" points="816,-11.5 816,-32.5 1009,-32.5 1009,-11.5 816,-11.5"/>
<text text-anchor="middle" x="912.5" y="-18.9" font-family="Helvetica,sans-Serif" font-size="12.00">GuessWord::getGuessCharacters</text>
</a>
</g>
</g>
<!-- Node7&#45;&gt;Node8 -->
<g id="edge7" class="edge">
<title>Node7&#45;&gt;Node8</title>
<path fill="none" stroke="midnightblue" d="M758.54,-46.31C783.06,-42.41 810.43,-38.06 835.16,-34.13"/>
<polygon fill="midnightblue" stroke="midnightblue" points="835.89,-37.56 845.22,-32.54 834.79,-30.65 835.89,-37.56"/>
</g>
<!-- Node9 -->
<g id="node9" class="node">
<title>Node9</title>
<g id="a_node9"><a xlink:href="class_guess_character.html#ab10296cd0c254c4273e6f7f2fed84101" target="_top" xlink:title=" ">
<polygon fill="white" stroke="black" points="835,-51.5 835,-72.5 990,-72.5 990,-51.5 835,-51.5"/>
<text text-anchor="middle" x="912.5" y="-58.9" font-family="Helvetica,sans-Serif" font-size="12.00">GuessCharacter::getLetter</text>
</a>
</g>
</g>
<!-- Node7&#45;&gt;Node9 -->
<g id="edge8" class="edge">
<title>Node7&#45;&gt;Node9</title>
<path fill="none" stroke="midnightblue" d="M758.54,-59.3C779.61,-59.67 802.79,-60.08 824.59,-60.47"/>
<polygon fill="midnightblue" stroke="midnightblue" points="824.77,-63.97 834.83,-60.65 824.89,-56.97 824.77,-63.97"/>
</g>
<!-- Node11 -->
<g id="node11" class="node">
<title>Node11</title>
<g id="a_node11"><a xlink:href="class_guess_character.html#a2c4ca4daff3ffad0d2b515e1e52ce775" target="_top" xlink:title=" ">
<polygon fill="white" stroke="black" points="835.5,-134.5 835.5,-155.5 989.5,-155.5 989.5,-134.5 835.5,-134.5"/>
<text text-anchor="middle" x="912.5" y="-141.9" font-family="Helvetica,sans-Serif" font-size="12.00">GuessCharacter::setLetter</text>
</a>
</g>
</g>
<!-- Node10&#45;&gt;Node11 -->
<g id="edge10" class="edge">
<title>Node10&#45;&gt;Node11</title>
<path fill="none" stroke="midnightblue" d="M780.07,-145C795.02,-145 810.41,-145 825.15,-145"/>
<polygon fill="midnightblue" stroke="midnightblue" points="825.24,-148.5 835.24,-145 825.24,-141.5 825.24,-148.5"/>
</g>
<!-- Node12 -->
<g id="node12" class="node">
<title>Node12</title>
<g id="a_node12"><a xlink:href="class_guess_character.html#abf94f0f4d1d8fcae335a00b74bd13236" target="_top" xlink:title=" ">
<polygon fill="white" stroke="black" points="834,-174.5 834,-195.5 991,-195.5 991,-174.5 834,-174.5"/>
<text text-anchor="middle" x="912.5" y="-181.9" font-family="Helvetica,sans-Serif" font-size="12.00">GuessCharacter::setStatus</text>
</a>
</g>
</g>
<!-- Node10&#45;&gt;Node12 -->
<g id="edge11" class="edge">
<title>Node10&#45;&gt;Node12</title>
<path fill="none" stroke="midnightblue" d="M744.51,-155.51C774.43,-160.79 810.87,-167.23 842.07,-172.74"/>
<polygon fill="midnightblue" stroke="midnightblue" points="841.54,-176.2 851.99,-174.49 842.76,-169.31 841.54,-176.2"/>
</g>
<!-- Node15 -->
<g id="node15" class="node">
<title>Node15</title>
<g id="a_node15"><a xlink:href="class_game.html#ac2d21bf44a3e68ac01b522171bb67bcb" target="_top" xlink:title=" ">
<polygon fill="white" stroke="black" points="598.5,-0.5 598.5,-21.5 769.5,-21.5 769.5,-0.5 598.5,-0.5"/>
<text text-anchor="middle" x="684" y="-7.9" font-family="Helvetica,sans-Serif" font-size="12.00">Game::binarySearchWordList</text>
</a>
</g>
</g>
<!-- Node14&#45;&gt;Node15 -->
<g id="edge14" class="edge">
<title>Node14&#45;&gt;Node15</title>
<path fill="none" stroke="midnightblue" d="M522.03,-23.47C542.3,-21.9 565.57,-20.1 588,-18.36"/>
<polygon fill="midnightblue" stroke="midnightblue" points="588.53,-21.83 598.23,-17.57 587.99,-14.85 588.53,-21.83"/>
</g>
</g>
</svg>
        <g id="navigator" transform="translate(0 0)" fill="#404254">
                <rect fill="#f2f5e9" fill-opacity="0.5" stroke="#606060" stroke-width=".5" x="0" y="0" width="60" height="60"/>
                <use id="zoomplus" xlink:href="#zoomPlus" x="17" y="9" onmousedown="handleZoom(evt,'in')"/>
                <use id="zoomminus" xlink:href="#zoomMin" x="42" y="9" onmousedown="handleZoom(evt,'out')"/>
                <use id="reset" xlink:href="#resetDef" x="30" y="36" onmousedown="handleReset()"/>
                <g id="arrowUp" xlink:href="#dirArrow" transform="translate(30 24)" onmousedown="handlePan(0,-1)">
                  <use xlink:href="#rim" fill="#404040">
                        <set attributeName="fill" to="#808080" begin="arrowUp.mouseover" end="arrowUp.mouseout"/>
                  </use>
                  <path fill="none" stroke="white" stroke-width="1.5" d="M0,-3.0v7 M-2.5,-0.5L0,-3.0L2.5,-0.5"/>
                </g>
                <g id="arrowRight" xlink:href="#dirArrow" transform="rotate(90) translate(36 -43)" onmousedown="handlePan(1,0)">
                  <use xlink:href="#rim" fill="#404040">
                        <set attributeName="fill" to="#808080" begin="arrowRight.mouseover" end="arrowRight.mouseout"/>
                  </use>
                  <path fill="none" stroke="white" stroke-width="1.5" d="M0,-3.0v7 M-2.5,-0.5L0,-3.0L2.5,-0.5"/>
                </g>
                <g id="arrowDown" xlink:href="#dirArrow" transform="rotate(180) translate(-30 -48)" onmousedown="handlePan(0,1)">
                  <use xlink:href="#rim" fill="#404040">
                        <set attributeName="fill" to="#808080" begin="arrowDown.mouseover" end="arrowDown.mouseout"/>
                  </use>
                  <path fill="none" stroke="white" stroke-width="1.5" d="M0,-3.0v7 M-2.5,-0.5L0,-3.0L2.5,-0.5"/>
                </g>
                <g id="arrowLeft" xlink:href="#dirArrow" transform="rotate(270) translate(-36 17)" onmousedown="handlePan(-1,0)">
                  <use xlink:href="#rim" fill="#404040">
                        <set attributeName="fill" to="#808080" begin="arrowLeft.mouseover" end="arrowLeft.mouseout"/>
                  </use>
                  <path fill="none" stroke="white" stroke-width="1.5" d="M0,-3.0v7 M-2.5,-0.5L0,-3.0L2.5,-0.5"/>
                </g>
        </g>
        <svg viewBox="0 0 15 15" width="100%" height="30px" preserveAspectRatio="xMaxYMin meet">
         <g id="arrow_out" transform="scale(0.3 0.3)">
          <a xlink:href="_wordle_o_o_8cpp_ae66f6b31b5ad750f1fe042a706a4e3d4_cgraph_org.svg" target="_base">
           <rect id="button" ry="5" rx="5" y="6" x="6" height="38" width="38"
                fill="#f2f5e9" fill-opacity="0.5" stroke="#606060" stroke-width="1.0"/>
           <path id="arrow"
             d="M 11.500037,31.436501 C 11.940474,20.09759 22.043105,11.32322 32.158766,21.979434 L 37.068811,17.246167 C 37.068811,17.246167 37.088388,32 37.088388,32 L 22.160133,31.978069 C 22.160133,31.978069 26.997745,27.140456 26.997745,27.140456 C 18.528582,18.264221 13.291696,25.230495 11.500037,31.436501 z"
             style="fill:#404040;"/>
          </a>
         </g>
        </svg>
</svg>
