<?xml version="1.0" encoding="UTF-8" standalone="no"?>
<!DOCTYPE svg PUBLIC "-//W3C//DTD SVG 1.1//EN"
 "http://www.w3.org/Graphics/SVG/1.1/DTD/svg11.dtd">
<!-- Generated by graphviz version 2.50.0 (20211204.2007)
 -->
<!-- Title: main Pages: 1 -->
<svg width="994pt" height="228pt"
 viewBox="0.00 0.00 994.00 228.00" xmlns="http://www.w3.org/2000/svg" xmlns:xlink="http://www.w3.org/1999/xlink">
<g id="graph0" class="graph" transform="scale(1 1) rotate(0) translate(4 224)">
<title>main</title>
<polygon fill="white" stroke="transparent" points="-4,4 -4,-224 990,-224 990,4 -4,4"/>
<!-- Node1 -->
<g id="node1" class="node">
<title>Node1</title>
<g id="a_node1"><a xlink:title=" ">
<polygon fill="#bfbfbf" stroke="black" points="0,-59.5 0,-80.5 42,-80.5 42,-59.5 0,-59.5"/>
<text text-anchor="middle" x="21" y="-66.9" font-family="Helvetica,sans-Serif" font-size="12.00">main</text>
</a>
</g>
</g>
<!-- Node2 -->
<g id="node2" class="node">
<title>Node2</title>
<g id="a_node2"><a xlink:href="class_game.html#a50b01080d0d7c5bfc317801a360c84ac" target="_top" xlink:title=" ">
<polygon fill="white" stroke="black" points="78,-59.5 78,-80.5 154,-80.5 154,-59.5 78,-59.5"/>
<text text-anchor="middle" x="116" y="-66.9" font-family="Helvetica,sans-Serif" font-size="12.00">Game::play</text>
</a>
</g>
</g>
<!-- Node1&#45;&gt;Node2 -->
<g id="edge1" class="edge">
<title>Node1&#45;&gt;Node2</title>
<path fill="none" stroke="midnightblue" d="M42.18,-70C49.79,-70 58.8,-70 67.84,-70"/>
<polygon fill="midnightblue" stroke="midnightblue" points="67.99,-73.5 77.99,-70 67.99,-66.5 67.99,-73.5"/>
</g>
<!-- Node3 -->
<g id="node3" class="node">
<title>Node3</title>
<g id="a_node3"><a xlink:href="class_game.html#a44e9cbf9c4f376e31a83ca6179f0ca38" target="_top" xlink:title=" ">
<polygon fill="white" stroke="black" points="203.5,-118.5 203.5,-139.5 323.5,-139.5 323.5,-118.5 203.5,-118.5"/>
<text text-anchor="middle" x="263.5" y="-125.9" font-family="Helvetica,sans-Serif" font-size="12.00">Game::playerGuess</text>
</a>
</g>
</g>
<!-- Node2&#45;&gt;Node3 -->
<g id="edge2" class="edge">
<title>Node2&#45;&gt;Node3</title>
<path fill="none" stroke="midnightblue" d="M138.14,-80.56C152.58,-87.59 172.24,-96.82 190,-104 199.54,-107.85 209.92,-111.66 219.77,-115.09"/>
<polygon fill="midnightblue" stroke="midnightblue" points="218.8,-118.46 229.39,-118.39 221.07,-111.84 218.8,-118.46"/>
</g>
<!-- Node10 -->
<g id="node10" class="node">
<title>Node10</title>
<g id="a_node10"><a xlink:href="class_game.html#add1f07beb90c3a85e640bf343f2f3cda" target="_top" xlink:title=" ">
<polygon fill="white" stroke="black" points="609,-78.5 609,-99.5 759,-99.5 759,-78.5 609,-78.5"/>
<text text-anchor="middle" x="684" y="-85.9" font-family="Helvetica,sans-Serif" font-size="12.00">Game::welcomeMessage</text>
</a>
</g>
</g>
<!-- Node2&#45;&gt;Node10 -->
<g id="edge14" class="edge">
<title>Node2&#45;&gt;Node10</title>
<path fill="none" stroke="midnightblue" d="M154.14,-71.25C243.72,-74.25 473.52,-81.97 598.68,-86.17"/>
<polygon fill="midnightblue" stroke="midnightblue" points="598.88,-89.68 608.99,-86.52 599.11,-82.68 598.88,-89.68"/>
</g>
<!-- Node13 -->
<g id="node13" class="node">
<title>Node13</title>
<g id="a_node13"><a xlink:href="class_game.html#aff845e992fb69e1c2c7f749e8786699c" target="_top" xlink:title=" ">
<polygon fill="white" stroke="black" points="190,-40.5 190,-61.5 337,-61.5 337,-40.5 190,-40.5"/>
<text text-anchor="middle" x="263.5" y="-47.9" font-family="Helvetica,sans-Serif" font-size="12.00">Game::populateWordList</text>
</a>
</g>
</g>
<!-- Node2&#45;&gt;Node13 -->
<g id="edge12" class="edge">
<title>Node2&#45;&gt;Node13</title>
<path fill="none" stroke="midnightblue" d="M154.09,-65.16C162.04,-64.12 170.75,-62.98 179.67,-61.82"/>
<polygon fill="midnightblue" stroke="midnightblue" points="180.33,-65.26 189.79,-60.49 179.42,-58.32 180.33,-65.26"/>
</g>
<!-- Node14 -->
<g id="node14" class="node">
<title>Node14</title>
<g id="a_node14"><a xlink:href="class_game.html#a5872e5f53336a95489970a67d15d5dc0" target="_top" xlink:title=" ">
<polygon fill="white" stroke="black" points="206.5,-0.5 206.5,-21.5 320.5,-21.5 320.5,-0.5 206.5,-0.5"/>
<text text-anchor="middle" x="263.5" y="-7.9" font-family="Helvetica,sans-Serif" font-size="12.00">Game::selectWord</text>
</a>
</g>
</g>
<!-- Node2&#45;&gt;Node14 -->
<g id="edge13" class="edge">
<title>Node2&#45;&gt;Node14</title>
<path fill="none" stroke="midnightblue" d="M134.18,-59.42C148.65,-50.85 170.12,-38.94 190,-31 195.89,-28.65 202.15,-26.47 208.44,-24.48"/>
<polygon fill="midnightblue" stroke="midnightblue" points="209.71,-27.75 218.28,-21.52 207.69,-21.05 209.71,-27.75"/>
</g>
<!-- Node4 -->
<g id="node4" class="node">
<title>Node4</title>
<g id="a_node4"><a xlink:href="class_game.html#a5e77f0c5ee41d17531e12de8211d8683" target="_top" xlink:title=" ">
<polygon fill="white" stroke="black" points="373,-118.5 373,-139.5 552,-139.5 552,-118.5 373,-118.5"/>
<text text-anchor="middle" x="462.5" y="-125.9" font-family="Helvetica,sans-Serif" font-size="12.00">Game::checkAndDisplayGuess</text>
</a>
</g>
</g>
<!-- Node3&#45;&gt;Node4 -->
<g id="edge3" class="edge">
<title>Node3&#45;&gt;Node4</title>
<path fill="none" stroke="midnightblue" d="M323.61,-129C335.98,-129 349.35,-129 362.72,-129"/>
<polygon fill="midnightblue" stroke="midnightblue" points="362.93,-132.5 372.93,-129 362.93,-125.5 362.93,-132.5"/>
</g>
<!-- Node11 -->
<g id="node11" class="node">
<title>Node11</title>
<g id="a_node11"><a xlink:href="class_game.html#a0fe1584b29f33bf17dd976447fc0f8ce" target="_top" xlink:title=" ">
<polygon fill="white" stroke="black" points="403,-178.5 403,-199.5 522,-199.5 522,-178.5 403,-178.5"/>
<text text-anchor="middle" x="462.5" y="-185.9" font-family="Helvetica,sans-Serif" font-size="12.00">Game::isValidWord</text>
</a>
</g>
</g>
<!-- Node3&#45;&gt;Node11 -->
<g id="edge10" class="edge">
<title>Node3&#45;&gt;Node11</title>
<path fill="none" stroke="midnightblue" d="M299.27,-139.59C332.08,-149.58 381.43,-164.61 417.08,-175.47"/>
<polygon fill="midnightblue" stroke="midnightblue" points="416.16,-178.85 426.75,-178.42 418.2,-172.15 416.16,-178.85"/>
</g>
<!-- Node5 -->
<g id="node5" class="node">
<title>Node5</title>
<g id="a_node5"><a xlink:href="class_guess_word.html#a0b8dc3f491b390b645b6c3edd15b355e" target="_top" xlink:title=" ">
<polygon fill="white" stroke="black" points="623,-118.5 623,-139.5 745,-139.5 745,-118.5 623,-118.5"/>
<text text-anchor="middle" x="684" y="-125.9" font-family="Helvetica,sans-Serif" font-size="12.00">GuessWord::display</text>
</a>
</g>
</g>
<!-- Node4&#45;&gt;Node5 -->
<g id="edge4" class="edge">
<title>Node4&#45;&gt;Node5</title>
<path fill="none" stroke="midnightblue" d="M552.15,-129C572.32,-129 593.48,-129 612.76,-129"/>
<polygon fill="midnightblue" stroke="midnightblue" points="612.96,-132.5 622.96,-129 612.96,-125.5 612.96,-132.5"/>
</g>
<!-- Node7 -->
<g id="node7" class="node">
<title>Node7</title>
<g id="a_node7"><a xlink:href="class_guess_word.html#a158140ba0693b2e09d3066b1c0145119" target="_top" xlink:title=" ">
<polygon fill="white" stroke="black" points="588,-158.5 588,-179.5 780,-179.5 780,-158.5 588,-158.5"/>
<text text-anchor="middle" x="684" y="-165.9" font-family="Helvetica,sans-Serif" font-size="12.00">GuessWord::setGuessCharacters</text>
</a>
</g>
</g>
<!-- Node4&#45;&gt;Node7 -->
<g id="edge6" class="edge">
<title>Node4&#45;&gt;Node7</title>
<path fill="none" stroke="midnightblue" d="M521.17,-139.51C550.04,-144.77 585.18,-151.17 615.32,-156.67"/>
<polygon fill="midnightblue" stroke="midnightblue" points="614.87,-160.14 625.33,-158.49 616.12,-153.26 614.87,-160.14"/>
</g>
<!-- Node4&#45;&gt;Node10 -->
<g id="edge9" class="edge">
<title>Node4&#45;&gt;Node10</title>
<path fill="none" stroke="midnightblue" d="M521.17,-118.49C550.04,-113.23 585.18,-106.83 615.32,-101.33"/>
<polygon fill="midnightblue" stroke="midnightblue" points="616.12,-104.74 625.33,-99.51 614.87,-97.86 616.12,-104.74"/>
</g>
<!-- Node6 -->
<g id="node6" class="node">
<title>Node6</title>
<g id="a_node6"><a xlink:href="class_guess_character.html#ac7a6b5befd4b2808249349cf65300a49" target="_top" xlink:title=" ">
<polygon fill="white" stroke="black" points="816,-118.5 816,-139.5 986,-139.5 986,-118.5 816,-118.5"/>
<text text-anchor="middle" x="901" y="-125.9" font-family="Helvetica,sans-Serif" font-size="12.00">GuessCharacter::displayChar</text>
</a>
</g>
</g>
<!-- Node5&#45;&gt;Node6 -->
<g id="edge5" class="edge">
<title>Node5&#45;&gt;Node6</title>
<path fill="none" stroke="midnightblue" d="M745.18,-129C763.96,-129 785.16,-129 805.71,-129"/>
<polygon fill="midnightblue" stroke="midnightblue" points="805.73,-132.5 815.73,-129 805.73,-125.5 805.73,-132.5"/>
</g>
<!-- Node8 -->
<g id="node8" class="node">
<title>Node8</title>
<g id="a_node8"><a xlink:href="class_guess_character.html#a2c4ca4daff3ffad0d2b515e1e52ce775" target="_top" xlink:title=" ">
<polygon fill="white" stroke="black" points="824,-158.5 824,-179.5 978,-179.5 978,-158.5 824,-158.5"/>
<text text-anchor="middle" x="901" y="-165.9" font-family="Helvetica,sans-Serif" font-size="12.00">GuessCharacter::setLetter</text>
</a>
</g>
</g>
<!-- Node7&#45;&gt;Node8 -->
<g id="edge7" class="edge">
<title>Node7&#45;&gt;Node8</title>
<path fill="none" stroke="midnightblue" d="M780.24,-169C791.42,-169 802.78,-169 813.82,-169"/>
<polygon fill="midnightblue" stroke="midnightblue" points="813.87,-172.5 823.87,-169 813.87,-165.5 813.87,-172.5"/>
</g>
<!-- Node9 -->
<g id="node9" class="node">
<title>Node9</title>
<g id="a_node9"><a xlink:href="class_guess_character.html#af7a35441a9c05a8b280ad1d28b2ebc27" target="_top" xlink:title=" ">
<polygon fill="white" stroke="black" points="825.5,-198.5 825.5,-219.5 976.5,-219.5 976.5,-198.5 825.5,-198.5"/>
<text text-anchor="middle" x="901" y="-205.9" font-family="Helvetica,sans-Serif" font-size="12.00">GuessCharacter::setStats</text>
</a>
</g>
</g>
<!-- Node7&#45;&gt;Node9 -->
<g id="edge8" class="edge">
<title>Node7&#45;&gt;Node9</title>
<path fill="none" stroke="midnightblue" d="M741.49,-179.51C769.65,-184.75 803.88,-191.12 833.32,-196.59"/>
<polygon fill="midnightblue" stroke="midnightblue" points="833.04,-200.1 843.52,-198.49 834.32,-193.22 833.04,-200.1"/>
</g>
<!-- Node12 -->
<g id="node12" class="node">
<title>Node12</title>
<g id="a_node12"><a xlink:href="class_game.html#ac2d21bf44a3e68ac01b522171bb67bcb" target="_top" xlink:title=" ">
<polygon fill="white" stroke="black" points="598.5,-198.5 598.5,-219.5 769.5,-219.5 769.5,-198.5 598.5,-198.5"/>
<text text-anchor="middle" x="684" y="-205.9" font-family="Helvetica,sans-Serif" font-size="12.00">Game::binarySearchWordList</text>
</a>
</g>
</g>
<!-- Node11&#45;&gt;Node12 -->
<g id="edge11" class="edge">
<title>Node11&#45;&gt;Node12</title>
<path fill="none" stroke="midnightblue" d="M522.03,-194.33C542.3,-196.18 565.57,-198.3 588,-200.34"/>
<polygon fill="midnightblue" stroke="midnightblue" points="587.95,-203.85 598.23,-201.28 588.59,-196.88 587.95,-203.85"/>
</g>
</g>
</svg>
