<?xml version="1.0" encoding="UTF-8" standalone="no"?>
<!DOCTYPE svg PUBLIC "-//W3C//DTD SVG 1.1//EN"
 "http://www.w3.org/Graphics/SVG/1.1/DTD/svg11.dtd">
<!-- Generated by graphviz version 2.50.0 (20211204.2007)
 -->
<!-- Title: WordleOO/WordleOO.cpp Pages: 1 -->
<svg width="499pt" height="88pt"
 viewBox="0.00 0.00 499.00 88.00" xmlns="http://www.w3.org/2000/svg" xmlns:xlink="http://www.w3.org/1999/xlink">
<g id="graph0" class="graph" transform="scale(1 1) rotate(0) translate(4 84)">
<title>WordleOO/WordleOO.cpp</title>
<polygon fill="white" stroke="transparent" points="-4,4 -4,-84 495,-84 495,4 -4,4"/>
<!-- Node1 -->
<g id="node1" class="node">
<title>Node1</title>
<g id="a_node1"><a xlink:title=" ">
<polygon fill="#bfbfbf" stroke="black" points="187.5,-58.5 187.5,-79.5 340.5,-79.5 340.5,-58.5 187.5,-58.5"/>
<text text-anchor="middle" x="264" y="-65.9" font-family="Helvetica,sans-Serif" font-size="12.00">WordleOO/WordleOO.cpp</text>
</a>
</g>
</g>
<!-- Node2 -->
<g id="node2" class="node">
<title>Node2</title>
<g id="a_node2"><a xlink:title=" ">
<polygon fill="white" stroke="#bfbfbf" points="0,-0.5 0,-21.5 62,-21.5 62,-0.5 0,-0.5"/>
<text text-anchor="middle" x="31" y="-7.9" font-family="Helvetica,sans-Serif" font-size="12.00">iostream</text>
</a>
</g>
</g>
<!-- Node1&#45;&gt;Node2 -->
<g id="edge1" class="edge">
<title>Node1&#45;&gt;Node2</title>
<path fill="none" stroke="midnightblue" d="M223.3,-58.44C186.28,-49.71 129.88,-36.33 71.73,-22.16"/>
<polygon fill="midnightblue" stroke="midnightblue" points="72.55,-18.76 62,-19.79 70.89,-25.56 72.55,-18.76"/>
</g>
<!-- Node3 -->
<g id="node3" class="node">
<title>Node3</title>
<g id="a_node3"><a xlink:title=" ">
<polygon fill="white" stroke="#bfbfbf" points="80,-0.5 80,-21.5 128,-21.5 128,-0.5 80,-0.5"/>
<text text-anchor="middle" x="104" y="-7.9" font-family="Helvetica,sans-Serif" font-size="12.00">vector</text>
</a>
</g>
</g>
<!-- Node1&#45;&gt;Node3 -->
<g id="edge2" class="edge">
<title>Node1&#45;&gt;Node3</title>
<path fill="none" stroke="midnightblue" d="M236.5,-58.37C209.16,-48.81 167.19,-34.12 137.83,-23.84"/>
<polygon fill="midnightblue" stroke="midnightblue" points="138.61,-20.41 128.01,-20.41 136.3,-27.01 138.61,-20.41"/>
</g>
<!-- Node4 -->
<g id="node4" class="node">
<title>Node4</title>
<g id="a_node4"><a xlink:title=" ">
<polygon fill="white" stroke="#bfbfbf" points="146.5,-0.5 146.5,-21.5 217.5,-21.5 217.5,-0.5 146.5,-0.5"/>
<text text-anchor="middle" x="182" y="-7.9" font-family="Helvetica,sans-Serif" font-size="12.00">windows.h</text>
</a>
</g>
</g>
<!-- Node1&#45;&gt;Node4 -->
<g id="edge3" class="edge">
<title>Node1&#45;&gt;Node4</title>
<path fill="none" stroke="midnightblue" d="M249.72,-58.25C237.25,-49.73 218.95,-37.24 204.52,-27.38"/>
<polygon fill="midnightblue" stroke="midnightblue" points="206.35,-24.39 196.12,-21.64 202.4,-30.17 206.35,-24.39"/>
</g>
<!-- Node5 -->
<g id="node5" class="node">
<title>Node5</title>
<g id="a_node5"><a xlink:title=" ">
<polygon fill="white" stroke="#bfbfbf" points="236,-0.5 236,-21.5 292,-21.5 292,-0.5 236,-0.5"/>
<text text-anchor="middle" x="264" y="-7.9" font-family="Helvetica,sans-Serif" font-size="12.00">fstream</text>
</a>
</g>
</g>
<!-- Node1&#45;&gt;Node5 -->
<g id="edge4" class="edge">
<title>Node1&#45;&gt;Node5</title>
<path fill="none" stroke="midnightblue" d="M264,-58.25C264,-50.94 264,-40.69 264,-31.7"/>
<polygon fill="midnightblue" stroke="midnightblue" points="267.5,-31.64 264,-21.64 260.5,-31.64 267.5,-31.64"/>
</g>
<!-- Node6 -->
<g id="node6" class="node">
<title>Node6</title>
<g id="a_node6"><a xlink:title=" ">
<polygon fill="white" stroke="#bfbfbf" points="310.5,-0.5 310.5,-21.5 355.5,-21.5 355.5,-0.5 310.5,-0.5"/>
<text text-anchor="middle" x="333" y="-7.9" font-family="Helvetica,sans-Serif" font-size="12.00">string</text>
</a>
</g>
</g>
<!-- Node1&#45;&gt;Node6 -->
<g id="edge5" class="edge">
<title>Node1&#45;&gt;Node6</title>
<path fill="none" stroke="midnightblue" d="M276.02,-58.25C286.21,-49.97 301.04,-37.94 313.01,-28.22"/>
<polygon fill="midnightblue" stroke="midnightblue" points="315.56,-30.66 321.12,-21.64 311.15,-25.23 315.56,-30.66"/>
</g>
<!-- Node7 -->
<g id="node7" class="node">
<title>Node7</title>
<g id="a_node7"><a xlink:title=" ">
<polygon fill="white" stroke="#bfbfbf" points="373.5,-0.5 373.5,-21.5 432.5,-21.5 432.5,-0.5 373.5,-0.5"/>
<text text-anchor="middle" x="403" y="-7.9" font-family="Helvetica,sans-Serif" font-size="12.00">iomanip</text>
</a>
</g>
</g>
<!-- Node1&#45;&gt;Node7 -->
<g id="edge6" class="edge">
<title>Node1&#45;&gt;Node7</title>
<path fill="none" stroke="midnightblue" d="M287.89,-58.37C310.51,-49.26 344.65,-35.51 369.89,-25.34"/>
<polygon fill="midnightblue" stroke="midnightblue" points="371.45,-28.48 379.42,-21.5 368.83,-21.99 371.45,-28.48"/>
</g>
<!-- Node8 -->
<g id="node8" class="node">
<title>Node8</title>
<g id="a_node8"><a xlink:title=" ">
<polygon fill="white" stroke="#bfbfbf" points="451,-0.5 451,-21.5 491,-21.5 491,-0.5 451,-0.5"/>
<text text-anchor="middle" x="471" y="-7.9" font-family="Helvetica,sans-Serif" font-size="12.00">map</text>
</a>
</g>
</g>
<!-- Node1&#45;&gt;Node8 -->
<g id="edge7" class="edge">
<title>Node1&#45;&gt;Node8</title>
<path fill="none" stroke="midnightblue" d="M304.55,-58.49C338.67,-50.27 388.92,-37.67 441.04,-22.13"/>
<polygon fill="midnightblue" stroke="midnightblue" points="442.22,-25.43 450.78,-19.2 440.2,-18.73 442.22,-25.43"/>
</g>
</g>
</svg>
