<?xml version="1.0" encoding="UTF-8" standalone="no"?>
<!DOCTYPE svg PUBLIC "-//W3C//DTD SVG 1.1//EN"
 "http://www.w3.org/Graphics/SVG/1.1/DTD/svg11.dtd">
<!-- Generated by graphviz version 2.50.0 (20211204.2007)
 -->
<!-- Title: WordleOO/WordleOO.cpp Pages: 1 -->
<svg width="441pt" height="88pt"
 viewBox="0.00 0.00 440.50 88.00" xmlns="http://www.w3.org/2000/svg" xmlns:xlink="http://www.w3.org/1999/xlink">
<g id="graph0" class="graph" transform="scale(1 1) rotate(0) translate(4 84)">
<title>WordleOO/WordleOO.cpp</title>
<polygon fill="white" stroke="transparent" points="-4,4 -4,-84 436.5,-84 436.5,4 -4,4"/>
<!-- Node1 -->
<g id="node1" class="node">
<title>Node1</title>
<g id="a_node1"><a xlink:title=" ">
<polygon fill="#bfbfbf" stroke="black" points="146.5,-58.5 146.5,-79.5 299.5,-79.5 299.5,-58.5 146.5,-58.5"/>
<text text-anchor="middle" x="223" y="-65.9" font-family="Helvetica,sans-Serif" font-size="12.00">WordleOO/WordleOO.cpp</text>
</a>
</g>
</g>
<!-- Node2 -->
<g id="node2" class="node">
<title>Node2</title>
<g id="a_node2"><a xlink:title=" ">
<polygon fill="white" stroke="#bfbfbf" points="0,-0.5 0,-21.5 62,-21.5 62,-0.5 0,-0.5"/>
<text text-anchor="middle" x="31" y="-7.9" font-family="Helvetica,sans-Serif" font-size="12.00">iostream</text>
</a>
</g>
</g>
<!-- Node1&#45;&gt;Node2 -->
<g id="edge1" class="edge">
<title>Node1&#45;&gt;Node2</title>
<path fill="none" stroke="midnightblue" d="M189.99,-58.37C157.4,-48.87 107.46,-34.3 72.27,-24.04"/>
<polygon fill="midnightblue" stroke="midnightblue" points="72.88,-20.57 62.3,-21.13 70.92,-27.29 72.88,-20.57"/>
</g>
<!-- Node3 -->
<g id="node3" class="node">
<title>Node3</title>
<g id="a_node3"><a xlink:title=" ">
<polygon fill="white" stroke="#bfbfbf" points="80,-0.5 80,-21.5 128,-21.5 128,-0.5 80,-0.5"/>
<text text-anchor="middle" x="104" y="-7.9" font-family="Helvetica,sans-Serif" font-size="12.00">vector</text>
</a>
</g>
</g>
<!-- Node1&#45;&gt;Node3 -->
<g id="edge2" class="edge">
<title>Node1&#45;&gt;Node3</title>
<path fill="none" stroke="midnightblue" d="M202.54,-58.37C183.53,-49.42 154.98,-35.99 133.5,-25.88"/>
<polygon fill="midnightblue" stroke="midnightblue" points="134.73,-22.59 124.19,-21.5 131.75,-28.93 134.73,-22.59"/>
</g>
<!-- Node4 -->
<g id="node4" class="node">
<title>Node4</title>
<g id="a_node4"><a xlink:title=" ">
<polygon fill="white" stroke="#bfbfbf" points="146.5,-0.5 146.5,-21.5 217.5,-21.5 217.5,-0.5 146.5,-0.5"/>
<text text-anchor="middle" x="182" y="-7.9" font-family="Helvetica,sans-Serif" font-size="12.00">windows.h</text>
</a>
</g>
</g>
<!-- Node1&#45;&gt;Node4 -->
<g id="edge3" class="edge">
<title>Node1&#45;&gt;Node4</title>
<path fill="none" stroke="midnightblue" d="M215.86,-58.25C210.16,-50.46 202.01,-39.33 195.14,-29.94"/>
<polygon fill="midnightblue" stroke="midnightblue" points="197.79,-27.64 189.06,-21.64 192.14,-31.78 197.79,-27.64"/>
</g>
<!-- Node5 -->
<g id="node5" class="node">
<title>Node5</title>
<g id="a_node5"><a xlink:title=" ">
<polygon fill="white" stroke="#bfbfbf" points="236,-0.5 236,-21.5 292,-21.5 292,-0.5 236,-0.5"/>
<text text-anchor="middle" x="264" y="-7.9" font-family="Helvetica,sans-Serif" font-size="12.00">fstream</text>
</a>
</g>
</g>
<!-- Node1&#45;&gt;Node5 -->
<g id="edge4" class="edge">
<title>Node1&#45;&gt;Node5</title>
<path fill="none" stroke="midnightblue" d="M230.14,-58.25C235.84,-50.46 243.99,-39.33 250.86,-29.94"/>
<polygon fill="midnightblue" stroke="midnightblue" points="253.86,-31.78 256.94,-21.64 248.21,-27.64 253.86,-31.78"/>
</g>
<!-- Node6 -->
<g id="node6" class="node">
<title>Node6</title>
<g id="a_node6"><a xlink:title=" ">
<polygon fill="white" stroke="#bfbfbf" points="310.5,-0.5 310.5,-21.5 355.5,-21.5 355.5,-0.5 310.5,-0.5"/>
<text text-anchor="middle" x="333" y="-7.9" font-family="Helvetica,sans-Serif" font-size="12.00">string</text>
</a>
</g>
</g>
<!-- Node1&#45;&gt;Node6 -->
<g id="edge5" class="edge">
<title>Node1&#45;&gt;Node6</title>
<path fill="none" stroke="midnightblue" d="M242.16,-58.25C259.51,-49.41 285.29,-36.29 304.96,-26.28"/>
<polygon fill="midnightblue" stroke="midnightblue" points="306.74,-29.3 314.06,-21.64 303.56,-23.06 306.74,-29.3"/>
</g>
<!-- Node7 -->
<g id="node7" class="node">
<title>Node7</title>
<g id="a_node7"><a xlink:title=" ">
<polygon fill="white" stroke="#bfbfbf" points="373.5,-0.5 373.5,-21.5 432.5,-21.5 432.5,-0.5 373.5,-0.5"/>
<text text-anchor="middle" x="403" y="-7.9" font-family="Helvetica,sans-Serif" font-size="12.00">iomanip</text>
</a>
</g>
</g>
<!-- Node1&#45;&gt;Node7 -->
<g id="edge6" class="edge">
<title>Node1&#45;&gt;Node7</title>
<path fill="none" stroke="midnightblue" d="M253.94,-58.37C284.28,-48.94 330.64,-34.51 363.59,-24.26"/>
<polygon fill="midnightblue" stroke="midnightblue" points="364.85,-27.54 373.36,-21.22 362.77,-20.85 364.85,-27.54"/>
</g>
</g>
</svg>
