<?xml version="1.0" encoding="UTF-8" standalone="no"?>
<!DOCTYPE svg PUBLIC "-//W3C//DTD SVG 1.1//EN"
 "http://www.w3.org/Graphics/SVG/1.1/DTD/svg11.dtd">
<!-- Generated by graphviz version 2.50.0 (20211204.2007)
 -->
<!-- Title: WordleOO/WordleOO.cpp Pages: 1 -->
<svg width="397pt" height="84pt"
 viewBox="0.00 0.00 397.00 84.00" xmlns="http://www.w3.org/2000/svg" xmlns:xlink="http://www.w3.org/1999/xlink">
<g id="graph0" class="graph" transform="scale(1 1) rotate(0) translate(4 80)">
<title>WordleOO/WordleOO.cpp</title>
<polygon fill="white" stroke="transparent" points="-4,4 -4,-80 393,-80 393,4 -4,4"/>
<!-- Node1 -->
<g id="node1" class="node">
<title>Node1</title>
<g id="a_node1"><a xlink:title=" ">
<polygon fill="#bfbfbf" stroke="black" points="135,-56.5 135,-75.5 265,-75.5 265,-56.5 135,-56.5"/>
<text text-anchor="middle" x="200" y="-63.5" font-family="Helvetica,sans-Serif" font-size="10.00">WordleOO/WordleOO.cpp</text>
</a>
</g>
</g>
<!-- Node2 -->
<g id="node2" class="node">
<title>Node2</title>
<g id="a_node2"><a xlink:title=" ">
<polygon fill="white" stroke="#bfbfbf" points="0,-0.5 0,-19.5 54,-19.5 54,-0.5 0,-0.5"/>
<text text-anchor="middle" x="27" y="-7.5" font-family="Helvetica,sans-Serif" font-size="10.00">iostream</text>
</a>
</g>
</g>
<!-- Node1&#45;&gt;Node2 -->
<g id="edge1" class="edge">
<title>Node1&#45;&gt;Node2</title>
<path fill="none" stroke="midnightblue" d="M172.59,-56.44C143.23,-47.28 96.48,-32.69 63.9,-22.52"/>
<polygon fill="midnightblue" stroke="midnightblue" points="64.87,-19.16 54.28,-19.52 62.79,-25.84 64.87,-19.16"/>
</g>
<!-- Node3 -->
<g id="node3" class="node">
<title>Node3</title>
<g id="a_node3"><a xlink:title=" ">
<polygon fill="white" stroke="#bfbfbf" points="72,-0.5 72,-19.5 114,-19.5 114,-0.5 72,-0.5"/>
<text text-anchor="middle" x="93" y="-7.5" font-family="Helvetica,sans-Serif" font-size="10.00">vector</text>
</a>
</g>
</g>
<!-- Node1&#45;&gt;Node3 -->
<g id="edge2" class="edge">
<title>Node1&#45;&gt;Node3</title>
<path fill="none" stroke="midnightblue" d="M182.81,-56.32C165.65,-47.66 139.05,-34.24 119.25,-24.25"/>
<polygon fill="midnightblue" stroke="midnightblue" points="120.65,-21.04 110.15,-19.65 117.5,-27.28 120.65,-21.04"/>
</g>
<!-- Node4 -->
<g id="node4" class="node">
<title>Node4</title>
<g id="a_node4"><a xlink:title=" ">
<polygon fill="white" stroke="#bfbfbf" points="132,-0.5 132,-19.5 194,-19.5 194,-0.5 132,-0.5"/>
<text text-anchor="middle" x="163" y="-7.5" font-family="Helvetica,sans-Serif" font-size="10.00">windows.h</text>
</a>
</g>
</g>
<!-- Node1&#45;&gt;Node4 -->
<g id="edge3" class="edge">
<title>Node1&#45;&gt;Node4</title>
<path fill="none" stroke="midnightblue" d="M193.89,-56.08C188.72,-48.53 181.15,-37.49 174.81,-28.23"/>
<polygon fill="midnightblue" stroke="midnightblue" points="177.54,-26.02 169,-19.75 171.76,-29.98 177.54,-26.02"/>
</g>
<!-- Node5 -->
<g id="node5" class="node">
<title>Node5</title>
<g id="a_node5"><a xlink:title=" ">
<polygon fill="white" stroke="#bfbfbf" points="212.5,-0.5 212.5,-19.5 261.5,-19.5 261.5,-0.5 212.5,-0.5"/>
<text text-anchor="middle" x="237" y="-7.5" font-family="Helvetica,sans-Serif" font-size="10.00">fstream</text>
</a>
</g>
</g>
<!-- Node1&#45;&gt;Node5 -->
<g id="edge4" class="edge">
<title>Node1&#45;&gt;Node5</title>
<path fill="none" stroke="midnightblue" d="M206.11,-56.08C211.28,-48.53 218.85,-37.49 225.19,-28.23"/>
<polygon fill="midnightblue" stroke="midnightblue" points="228.24,-29.98 231,-19.75 222.46,-26.02 228.24,-29.98"/>
</g>
<!-- Node6 -->
<g id="node6" class="node">
<title>Node6</title>
<g id="a_node6"><a xlink:title=" ">
<polygon fill="white" stroke="#bfbfbf" points="279.5,-0.5 279.5,-19.5 320.5,-19.5 320.5,-0.5 279.5,-0.5"/>
<text text-anchor="middle" x="300" y="-7.5" font-family="Helvetica,sans-Serif" font-size="10.00">string</text>
</a>
</g>
</g>
<!-- Node1&#45;&gt;Node6 -->
<g id="edge5" class="edge">
<title>Node1&#45;&gt;Node6</title>
<path fill="none" stroke="midnightblue" d="M216.07,-56.32C231.96,-47.74 256.51,-34.49 274.96,-24.52"/>
<polygon fill="midnightblue" stroke="midnightblue" points="276.84,-27.49 283.97,-19.65 273.51,-21.33 276.84,-27.49"/>
</g>
<!-- Node7 -->
<g id="node7" class="node">
<title>Node7</title>
<g id="a_node7"><a xlink:title=" ">
<polygon fill="white" stroke="#bfbfbf" points="339,-0.5 339,-19.5 389,-19.5 389,-0.5 339,-0.5"/>
<text text-anchor="middle" x="364" y="-7.5" font-family="Helvetica,sans-Serif" font-size="10.00">iomanip</text>
</a>
</g>
</g>
<!-- Node1&#45;&gt;Node7 -->
<g id="edge6" class="edge">
<title>Node1&#45;&gt;Node7</title>
<path fill="none" stroke="midnightblue" d="M225.99,-56.44C253.94,-47.24 298.53,-32.56 329.43,-22.38"/>
<polygon fill="midnightblue" stroke="midnightblue" points="330.54,-25.7 338.94,-19.25 328.35,-19.05 330.54,-25.7"/>
</g>
</g>
</svg>
