<?xml version="1.0" encoding="UTF-8" standalone="no"?>
<!DOCTYPE svg PUBLIC "-//W3C//DTD SVG 1.1//EN"
 "http://www.w3.org/Graphics/SVG/1.1/DTD/svg11.dtd">
<!-- Generated by graphviz version 2.50.0 (20211204.2007)
 -->
<!-- Title: main Pages: 1 -->
<svg width="879pt" height="218pt"
 viewBox="0.00 0.00 879.00 218.00" xmlns="http://www.w3.org/2000/svg" xmlns:xlink="http://www.w3.org/1999/xlink">
<g id="graph0" class="graph" transform="scale(1 1) rotate(0) translate(4 214)">
<title>main</title>
<polygon fill="white" stroke="transparent" points="-4,4 -4,-214 875,-214 875,4 -4,4"/>
<!-- Node1 -->
<g id="node1" class="node">
<title>Node1</title>
<g id="a_node1"><a xlink:title=" ">
<polygon fill="#bfbfbf" stroke="black" points="0,-57.5 0,-76.5 38,-76.5 38,-57.5 0,-57.5"/>
<text text-anchor="middle" x="19" y="-64.5" font-family="Helvetica,sans-Serif" font-size="10.00">main</text>
</a>
</g>
</g>
<!-- Node2 -->
<g id="node2" class="node">
<title>Node2</title>
<g id="a_node2"><a xlink:href="class_game.html#a50b01080d0d7c5bfc317801a360c84ac" target="_top" xlink:title=" ">
<polygon fill="white" stroke="black" points="74,-57.5 74,-76.5 141,-76.5 141,-57.5 74,-57.5"/>
<text text-anchor="middle" x="107.5" y="-64.5" font-family="Helvetica,sans-Serif" font-size="10.00">Game::play</text>
</a>
</g>
</g>
<!-- Node1&#45;&gt;Node2 -->
<g id="edge1" class="edge">
<title>Node1&#45;&gt;Node2</title>
<path fill="none" stroke="midnightblue" d="M38.34,-67C45.84,-67 54.85,-67 63.82,-67"/>
<polygon fill="midnightblue" stroke="midnightblue" points="63.86,-70.5 73.86,-67 63.86,-63.5 63.86,-70.5"/>
</g>
<!-- Node3 -->
<g id="node3" class="node">
<title>Node3</title>
<g id="a_node3"><a xlink:href="class_game.html#a44e9cbf9c4f376e31a83ca6179f0ca38" target="_top" xlink:title=" ">
<polygon fill="white" stroke="black" points="187.5,-114.5 187.5,-133.5 291.5,-133.5 291.5,-114.5 187.5,-114.5"/>
<text text-anchor="middle" x="239.5" y="-121.5" font-family="Helvetica,sans-Serif" font-size="10.00">Game::playerGuess</text>
</a>
</g>
</g>
<!-- Node2&#45;&gt;Node3 -->
<g id="edge2" class="edge">
<title>Node2&#45;&gt;Node3</title>
<path fill="none" stroke="midnightblue" d="M127.51,-76.64C141.16,-83.45 160.05,-92.62 177,-100 185.4,-103.66 194.55,-107.37 203.16,-110.75"/>
<polygon fill="midnightblue" stroke="midnightblue" points="202,-114.05 212.59,-114.39 204.52,-107.52 202,-114.05"/>
</g>
<!-- Node10 -->
<g id="node10" class="node">
<title>Node10</title>
<g id="a_node10"><a xlink:href="class_game.html#add1f07beb90c3a85e640bf343f2f3cda" target="_top" xlink:title=" ">
<polygon fill="white" stroke="black" points="545.5,-76.5 545.5,-95.5 672.5,-95.5 672.5,-76.5 545.5,-76.5"/>
<text text-anchor="middle" x="609" y="-83.5" font-family="Helvetica,sans-Serif" font-size="10.00">Game::welcomeMessage</text>
</a>
</g>
</g>
<!-- Node2&#45;&gt;Node10 -->
<g id="edge14" class="edge">
<title>Node2&#45;&gt;Node10</title>
<path fill="none" stroke="midnightblue" d="M141.27,-68.25C220.73,-71.27 425.16,-79.04 535.23,-83.23"/>
<polygon fill="midnightblue" stroke="midnightblue" points="535.13,-86.73 545.26,-83.61 535.4,-79.74 535.13,-86.73"/>
</g>
<!-- Node13 -->
<g id="node13" class="node">
<title>Node13</title>
<g id="a_node13"><a xlink:href="class_game.html#aff845e992fb69e1c2c7f749e8786699c" target="_top" xlink:title=" ">
<polygon fill="white" stroke="black" points="177,-38.5 177,-57.5 302,-57.5 302,-38.5 177,-38.5"/>
<text text-anchor="middle" x="239.5" y="-45.5" font-family="Helvetica,sans-Serif" font-size="10.00">Game::populateWordList</text>
</a>
</g>
</g>
<!-- Node2&#45;&gt;Node13 -->
<g id="edge12" class="edge">
<title>Node2&#45;&gt;Node13</title>
<path fill="none" stroke="midnightblue" d="M141.3,-62.21C149.17,-61.06 157.89,-59.78 166.77,-58.48"/>
<polygon fill="midnightblue" stroke="midnightblue" points="167.44,-61.92 176.83,-57.01 166.43,-55 167.44,-61.92"/>
</g>
<!-- Node14 -->
<g id="node14" class="node">
<title>Node14</title>
<g id="a_node14"><a xlink:href="class_game.html#a5872e5f53336a95489970a67d15d5dc0" target="_top" xlink:title=" ">
<polygon fill="white" stroke="black" points="190.5,-0.5 190.5,-19.5 288.5,-19.5 288.5,-0.5 190.5,-0.5"/>
<text text-anchor="middle" x="239.5" y="-7.5" font-family="Helvetica,sans-Serif" font-size="10.00">Game::selectWord</text>
</a>
</g>
</g>
<!-- Node2&#45;&gt;Node14 -->
<g id="edge13" class="edge">
<title>Node2&#45;&gt;Node14</title>
<path fill="none" stroke="midnightblue" d="M123.55,-57.46C137.13,-49.14 157.86,-37.16 177,-29 182.33,-26.73 188.03,-24.59 193.73,-22.64"/>
<polygon fill="midnightblue" stroke="midnightblue" points="194.83,-25.96 203.25,-19.52 192.65,-19.31 194.83,-25.96"/>
</g>
<!-- Node4 -->
<g id="node4" class="node">
<title>Node4</title>
<g id="a_node4"><a xlink:href="class_game.html#a5e77f0c5ee41d17531e12de8211d8683" target="_top" xlink:title=" ">
<polygon fill="white" stroke="black" points="338,-114.5 338,-133.5 491,-133.5 491,-114.5 338,-114.5"/>
<text text-anchor="middle" x="414.5" y="-121.5" font-family="Helvetica,sans-Serif" font-size="10.00">Game::checkAndDisplayGuess</text>
</a>
</g>
</g>
<!-- Node3&#45;&gt;Node4 -->
<g id="edge3" class="edge">
<title>Node3&#45;&gt;Node4</title>
<path fill="none" stroke="midnightblue" d="M291.94,-124C303.22,-124 315.46,-124 327.68,-124"/>
<polygon fill="midnightblue" stroke="midnightblue" points="327.93,-127.5 337.93,-124 327.93,-120.5 327.93,-127.5"/>
</g>
<!-- Node11 -->
<g id="node11" class="node">
<title>Node11</title>
<g id="a_node11"><a xlink:href="class_game.html#a0fe1584b29f33bf17dd976447fc0f8ce" target="_top" xlink:title=" ">
<polygon fill="white" stroke="black" points="364,-171.5 364,-190.5 465,-190.5 465,-171.5 364,-171.5"/>
<text text-anchor="middle" x="414.5" y="-178.5" font-family="Helvetica,sans-Serif" font-size="10.00">Game::isValidWord</text>
</a>
</g>
</g>
<!-- Node3&#45;&gt;Node11 -->
<g id="edge10" class="edge">
<title>Node3&#45;&gt;Node11</title>
<path fill="none" stroke="midnightblue" d="M269.46,-133.54C298.27,-143.03 342.68,-157.67 374.57,-168.17"/>
<polygon fill="midnightblue" stroke="midnightblue" points="373.86,-171.62 384.45,-171.43 376.05,-164.97 373.86,-171.62"/>
</g>
<!-- Node5 -->
<g id="node5" class="node">
<title>Node5</title>
<g id="a_node5"><a xlink:href="class_guess_word.html#a0b8dc3f491b390b645b6c3edd15b355e" target="_top" xlink:title=" ">
<polygon fill="white" stroke="black" points="556.5,-114.5 556.5,-133.5 661.5,-133.5 661.5,-114.5 556.5,-114.5"/>
<text text-anchor="middle" x="609" y="-121.5" font-family="Helvetica,sans-Serif" font-size="10.00">GuessWord::display</text>
</a>
</g>
</g>
<!-- Node4&#45;&gt;Node5 -->
<g id="edge4" class="edge">
<title>Node4&#45;&gt;Node5</title>
<path fill="none" stroke="midnightblue" d="M491.03,-124C509.34,-124 528.71,-124 546.3,-124"/>
<polygon fill="midnightblue" stroke="midnightblue" points="546.43,-127.5 556.43,-124 546.43,-120.5 546.43,-127.5"/>
</g>
<!-- Node7 -->
<g id="node7" class="node">
<title>Node7</title>
<g id="a_node7"><a xlink:href="class_guess_word.html#a158140ba0693b2e09d3066b1c0145119" target="_top" xlink:title=" ">
<polygon fill="white" stroke="black" points="527,-152.5 527,-171.5 691,-171.5 691,-152.5 527,-152.5"/>
<text text-anchor="middle" x="609" y="-159.5" font-family="Helvetica,sans-Serif" font-size="10.00">GuessWord::setGuessCharacters</text>
</a>
</g>
</g>
<!-- Node4&#45;&gt;Node7 -->
<g id="edge6" class="edge">
<title>Node4&#45;&gt;Node7</title>
<path fill="none" stroke="midnightblue" d="M464.08,-133.59C490.16,-138.74 522.51,-145.12 549.92,-150.53"/>
<polygon fill="midnightblue" stroke="midnightblue" points="549.28,-153.98 559.77,-152.48 550.64,-147.11 549.28,-153.98"/>
</g>
<!-- Node4&#45;&gt;Node10 -->
<g id="edge9" class="edge">
<title>Node4&#45;&gt;Node10</title>
<path fill="none" stroke="midnightblue" d="M464.08,-114.41C490.16,-109.26 522.51,-102.88 549.92,-97.47"/>
<polygon fill="midnightblue" stroke="midnightblue" points="550.64,-100.89 559.77,-95.52 549.28,-94.02 550.64,-100.89"/>
</g>
<!-- Node6 -->
<g id="node6" class="node">
<title>Node6</title>
<g id="a_node6"><a xlink:href="class_guess_character.html#ac7a6b5befd4b2808249349cf65300a49" target="_top" xlink:title=" ">
<polygon fill="white" stroke="black" points="727,-114.5 727,-133.5 871,-133.5 871,-114.5 727,-114.5"/>
<text text-anchor="middle" x="799" y="-121.5" font-family="Helvetica,sans-Serif" font-size="10.00">GuessCharacter::displayChar</text>
</a>
</g>
</g>
<!-- Node5&#45;&gt;Node6 -->
<g id="edge5" class="edge">
<title>Node5&#45;&gt;Node6</title>
<path fill="none" stroke="midnightblue" d="M661.87,-124C678.83,-124 698.11,-124 716.71,-124"/>
<polygon fill="midnightblue" stroke="midnightblue" points="716.95,-127.5 726.95,-124 716.95,-120.5 716.95,-127.5"/>
</g>
<!-- Node8 -->
<g id="node8" class="node">
<title>Node8</title>
<g id="a_node8"><a xlink:href="class_guess_character.html#a2c4ca4daff3ffad0d2b515e1e52ce775" target="_top" xlink:title=" ">
<polygon fill="white" stroke="black" points="733.5,-152.5 733.5,-171.5 864.5,-171.5 864.5,-152.5 733.5,-152.5"/>
<text text-anchor="middle" x="799" y="-159.5" font-family="Helvetica,sans-Serif" font-size="10.00">GuessCharacter::setLetter</text>
</a>
</g>
</g>
<!-- Node7&#45;&gt;Node8 -->
<g id="edge7" class="edge">
<title>Node7&#45;&gt;Node8</title>
<path fill="none" stroke="midnightblue" d="M691.09,-162C701.79,-162 712.71,-162 723.29,-162"/>
<polygon fill="midnightblue" stroke="midnightblue" points="723.31,-165.5 733.31,-162 723.31,-158.5 723.31,-165.5"/>
</g>
<!-- Node9 -->
<g id="node9" class="node">
<title>Node9</title>
<g id="a_node9"><a xlink:href="class_guess_character.html#af7a35441a9c05a8b280ad1d28b2ebc27" target="_top" xlink:title=" ">
<polygon fill="white" stroke="black" points="734,-190.5 734,-209.5 864,-209.5 864,-190.5 734,-190.5"/>
<text text-anchor="middle" x="799" y="-197.5" font-family="Helvetica,sans-Serif" font-size="10.00">GuessCharacter::setStats</text>
</a>
</g>
</g>
<!-- Node7&#45;&gt;Node9 -->
<g id="edge8" class="edge">
<title>Node7&#45;&gt;Node9</title>
<path fill="none" stroke="midnightblue" d="M657.44,-171.59C682.81,-176.72 714.23,-183.07 740.92,-188.46"/>
<polygon fill="midnightblue" stroke="midnightblue" points="740.41,-191.93 750.9,-190.48 741.79,-185.07 740.41,-191.93"/>
</g>
<!-- Node12 -->
<g id="node12" class="node">
<title>Node12</title>
<g id="a_node12"><a xlink:href="class_game.html#ac2d21bf44a3e68ac01b522171bb67bcb" target="_top" xlink:title=" ">
<polygon fill="white" stroke="black" points="536.5,-190.5 536.5,-209.5 681.5,-209.5 681.5,-190.5 536.5,-190.5"/>
<text text-anchor="middle" x="609" y="-197.5" font-family="Helvetica,sans-Serif" font-size="10.00">Game::binarySearchWordList</text>
</a>
</g>
</g>
<!-- Node11&#45;&gt;Node12 -->
<g id="edge11" class="edge">
<title>Node11&#45;&gt;Node12</title>
<path fill="none" stroke="midnightblue" d="M465.07,-185.89C483.74,-187.74 505.5,-189.88 526.33,-191.94"/>
<polygon fill="midnightblue" stroke="midnightblue" points="526.16,-195.44 536.46,-192.94 526.85,-188.47 526.16,-195.44"/>
</g>
</g>
</svg>
