<?xml version="1.0" encoding="UTF-8" standalone="no"?>
<!DOCTYPE svg PUBLIC "-//W3C//DTD SVG 1.1//EN"
 "http://www.w3.org/Graphics/SVG/1.1/DTD/svg11.dtd">
<!-- Generated by graphviz version 2.50.0 (20211204.2007)
 -->
<!-- Title: main Pages: 1 -->
<svg width="1017pt" height="190pt"
 viewBox="0.00 0.00 1017.00 190.00" xmlns="http://www.w3.org/2000/svg" xmlns:xlink="http://www.w3.org/1999/xlink">
<g id="graph0" class="graph" transform="scale(1 1) rotate(0) translate(4 186)">
<title>main</title>
<polygon fill="white" stroke="transparent" points="-4,4 -4,-186 1013,-186 1013,4 -4,4"/>
<!-- Node1 -->
<g id="node1" class="node">
<title>Node1</title>
<g id="a_node1"><a xlink:title=" ">
<polygon fill="#bfbfbf" stroke="black" points="0,-90.5 0,-111.5 42,-111.5 42,-90.5 0,-90.5"/>
<text text-anchor="middle" x="21" y="-97.9" font-family="Helvetica,sans-Serif" font-size="12.00">main</text>
</a>
</g>
</g>
<!-- Node2 -->
<g id="node2" class="node">
<title>Node2</title>
<g id="a_node2"><a xlink:href="class_game.html#a50b01080d0d7c5bfc317801a360c84ac" target="_top" xlink:title=" ">
<polygon fill="white" stroke="black" points="78,-90.5 78,-111.5 154,-111.5 154,-90.5 78,-90.5"/>
<text text-anchor="middle" x="116" y="-97.9" font-family="Helvetica,sans-Serif" font-size="12.00">Game::play</text>
</a>
</g>
</g>
<!-- Node1&#45;&gt;Node2 -->
<g id="edge1" class="edge">
<title>Node1&#45;&gt;Node2</title>
<path fill="none" stroke="midnightblue" d="M42.18,-101C49.79,-101 58.8,-101 67.84,-101"/>
<polygon fill="midnightblue" stroke="midnightblue" points="67.99,-104.5 77.99,-101 67.99,-97.5 67.99,-104.5"/>
</g>
<!-- Node3 -->
<g id="node3" class="node">
<title>Node3</title>
<g id="a_node3"><a xlink:href="class_game.html#a44e9cbf9c4f376e31a83ca6179f0ca38" target="_top" xlink:title=" ">
<polygon fill="white" stroke="black" points="203.5,-110.5 203.5,-131.5 323.5,-131.5 323.5,-110.5 203.5,-110.5"/>
<text text-anchor="middle" x="263.5" y="-117.9" font-family="Helvetica,sans-Serif" font-size="12.00">Game::playerGuess</text>
</a>
</g>
</g>
<!-- Node2&#45;&gt;Node3 -->
<g id="edge2" class="edge">
<title>Node2&#45;&gt;Node3</title>
<path fill="none" stroke="midnightblue" d="M154.09,-106.1C166.03,-107.74 179.68,-109.62 193.17,-111.47"/>
<polygon fill="midnightblue" stroke="midnightblue" points="193.04,-114.98 203.42,-112.88 193.99,-108.05 193.04,-114.98"/>
</g>
<!-- Node13 -->
<g id="node13" class="node">
<title>Node13</title>
<g id="a_node13"><a xlink:href="class_game.html#add1f07beb90c3a85e640bf343f2f3cda" target="_top" xlink:title=" ">
<polygon fill="white" stroke="black" points="609,-160.5 609,-181.5 759,-181.5 759,-160.5 609,-160.5"/>
<text text-anchor="middle" x="684" y="-167.9" font-family="Helvetica,sans-Serif" font-size="12.00">Game::welcomeMessage</text>
</a>
</g>
</g>
<!-- Node2&#45;&gt;Node13 -->
<g id="edge18" class="edge">
<title>Node2&#45;&gt;Node13</title>
<path fill="none" stroke="midnightblue" d="M131.8,-111.68C145.97,-121.26 168.34,-134.75 190,-141 328.99,-181.12 498.89,-181.39 598.61,-176.91"/>
<polygon fill="midnightblue" stroke="midnightblue" points="598.8,-180.4 608.63,-176.43 598.47,-173.41 598.8,-180.4"/>
</g>
<!-- Node17 -->
<g id="node17" class="node">
<title>Node17</title>
<g id="a_node17"><a xlink:href="class_game.html#aff845e992fb69e1c2c7f749e8786699c" target="_top" xlink:title=" ">
<polygon fill="white" stroke="black" points="190,-70.5 190,-91.5 337,-91.5 337,-70.5 190,-70.5"/>
<text text-anchor="middle" x="263.5" y="-77.9" font-family="Helvetica,sans-Serif" font-size="12.00">Game::populateWordList</text>
</a>
</g>
</g>
<!-- Node2&#45;&gt;Node17 -->
<g id="edge16" class="edge">
<title>Node2&#45;&gt;Node17</title>
<path fill="none" stroke="midnightblue" d="M154.09,-95.9C162.04,-94.81 170.75,-93.61 179.67,-92.39"/>
<polygon fill="midnightblue" stroke="midnightblue" points="180.36,-95.82 189.79,-90.99 179.4,-88.89 180.36,-95.82"/>
</g>
<!-- Node18 -->
<g id="node18" class="node">
<title>Node18</title>
<g id="a_node18"><a xlink:href="class_game.html#a5872e5f53336a95489970a67d15d5dc0" target="_top" xlink:title=" ">
<polygon fill="white" stroke="black" points="206.5,-30.5 206.5,-51.5 320.5,-51.5 320.5,-30.5 206.5,-30.5"/>
<text text-anchor="middle" x="263.5" y="-37.9" font-family="Helvetica,sans-Serif" font-size="12.00">Game::selectWord</text>
</a>
</g>
</g>
<!-- Node2&#45;&gt;Node18 -->
<g id="edge17" class="edge">
<title>Node2&#45;&gt;Node18</title>
<path fill="none" stroke="midnightblue" d="M133.56,-90.47C148.01,-81.64 169.78,-69.2 190,-61 195.8,-58.65 201.96,-56.48 208.16,-54.5"/>
<polygon fill="midnightblue" stroke="midnightblue" points="209.31,-57.81 217.86,-51.56 207.28,-51.11 209.31,-57.81"/>
</g>
<!-- Node4 -->
<g id="node4" class="node">
<title>Node4</title>
<g id="a_node4"><a xlink:href="class_game.html#a5e77f0c5ee41d17531e12de8211d8683" target="_top" xlink:title=" ">
<polygon fill="white" stroke="black" points="373,-110.5 373,-131.5 552,-131.5 552,-110.5 373,-110.5"/>
<text text-anchor="middle" x="462.5" y="-117.9" font-family="Helvetica,sans-Serif" font-size="12.00">Game::checkAndDisplayGuess</text>
</a>
</g>
</g>
<!-- Node3&#45;&gt;Node4 -->
<g id="edge3" class="edge">
<title>Node3&#45;&gt;Node4</title>
<path fill="none" stroke="midnightblue" d="M323.61,-121C335.98,-121 349.35,-121 362.72,-121"/>
<polygon fill="midnightblue" stroke="midnightblue" points="362.93,-124.5 372.93,-121 362.93,-117.5 362.93,-124.5"/>
</g>
<!-- Node14 -->
<g id="node14" class="node">
<title>Node14</title>
<g id="a_node14"><a xlink:href="class_game.html#a0fe1584b29f33bf17dd976447fc0f8ce" target="_top" xlink:title=" ">
<polygon fill="white" stroke="black" points="403,-20.5 403,-41.5 522,-41.5 522,-20.5 403,-20.5"/>
<text text-anchor="middle" x="462.5" y="-27.9" font-family="Helvetica,sans-Serif" font-size="12.00">Game::isValidWord</text>
</a>
</g>
</g>
<!-- Node3&#45;&gt;Node14 -->
<g id="edge13" class="edge">
<title>Node3&#45;&gt;Node14</title>
<path fill="none" stroke="midnightblue" d="M316.72,-110.49C323.81,-107.96 330.78,-104.84 337,-101 357.35,-88.43 353.03,-74.16 373,-61 383.06,-54.38 394.72,-49.07 406.21,-44.88"/>
<polygon fill="midnightblue" stroke="midnightblue" points="407.45,-48.15 415.79,-41.61 405.2,-41.53 407.45,-48.15"/>
</g>
<!-- Node16 -->
<g id="node16" class="node">
<title>Node16</title>
<g id="a_node16"><a xlink:href="class_game.html#af9f553e976692b1dbe351655ee5d1191" target="_top" xlink:title=" ">
<polygon fill="white" stroke="black" points="382,-70.5 382,-91.5 543,-91.5 543,-70.5 382,-70.5"/>
<text text-anchor="middle" x="462.5" y="-77.9" font-family="Helvetica,sans-Serif" font-size="12.00">Game::printAvailableLetters</text>
</a>
</g>
</g>
<!-- Node3&#45;&gt;Node16 -->
<g id="edge15" class="edge">
<title>Node3&#45;&gt;Node16</title>
<path fill="none" stroke="midnightblue" d="M316.26,-110.49C341.83,-105.3 372.88,-98.99 399.7,-93.55"/>
<polygon fill="midnightblue" stroke="midnightblue" points="400.64,-96.93 409.74,-91.51 399.25,-90.07 400.64,-96.93"/>
</g>
<!-- Node5 -->
<g id="node5" class="node">
<title>Node5</title>
<g id="a_node5"><a xlink:href="class_guess_word.html#a0b8dc3f491b390b645b6c3edd15b355e" target="_top" xlink:title=" ">
<polygon fill="white" stroke="black" points="623,-80.5 623,-101.5 745,-101.5 745,-80.5 623,-80.5"/>
<text text-anchor="middle" x="684" y="-87.9" font-family="Helvetica,sans-Serif" font-size="12.00">GuessWord::display</text>
</a>
</g>
</g>
<!-- Node4&#45;&gt;Node5 -->
<g id="edge4" class="edge">
<title>Node4&#45;&gt;Node5</title>
<path fill="none" stroke="midnightblue" d="M540.58,-110.47C564.04,-107.26 589.69,-103.75 612.67,-100.61"/>
<polygon fill="midnightblue" stroke="midnightblue" points="613.25,-104.07 622.69,-99.24 612.31,-97.13 613.25,-104.07"/>
</g>
<!-- Node7 -->
<g id="node7" class="node">
<title>Node7</title>
<g id="a_node7"><a xlink:href="class_game.html#aaa8ee9358c0268b758fa6b93a0cc6c2f" target="_top" xlink:title=" ">
<polygon fill="white" stroke="black" points="591,-40.5 591,-61.5 777,-61.5 777,-40.5 591,-40.5"/>
<text text-anchor="middle" x="684" y="-47.9" font-family="Helvetica,sans-Serif" font-size="12.00">Game::setAvailableWordsStatus</text>
</a>
</g>
</g>
<!-- Node4&#45;&gt;Node7 -->
<g id="edge6" class="edge">
<title>Node4&#45;&gt;Node7</title>
<path fill="none" stroke="midnightblue" d="M527.13,-110.46C535.72,-107.94 544.23,-104.83 552,-101 570.68,-91.78 569.26,-80.08 588,-71 592.98,-68.59 598.24,-66.47 603.63,-64.6"/>
<polygon fill="midnightblue" stroke="midnightblue" points="604.96,-67.85 613.44,-61.51 602.85,-61.18 604.96,-67.85"/>
</g>
<!-- Node10 -->
<g id="node10" class="node">
<title>Node10</title>
<g id="a_node10"><a xlink:href="class_guess_word.html#a158140ba0693b2e09d3066b1c0145119" target="_top" xlink:title=" ">
<polygon fill="white" stroke="black" points="588,-120.5 588,-141.5 780,-141.5 780,-120.5 588,-120.5"/>
<text text-anchor="middle" x="684" y="-127.9" font-family="Helvetica,sans-Serif" font-size="12.00">GuessWord::setGuessCharacters</text>
</a>
</g>
</g>
<!-- Node4&#45;&gt;Node10 -->
<g id="edge9" class="edge">
<title>Node4&#45;&gt;Node10</title>
<path fill="none" stroke="midnightblue" d="M552.15,-125.04C560.61,-125.42 569.25,-125.82 577.86,-126.21"/>
<polygon fill="midnightblue" stroke="midnightblue" points="577.78,-129.71 587.92,-126.67 578.09,-122.72 577.78,-129.71"/>
</g>
<!-- Node4&#45;&gt;Node13 -->
<g id="edge12" class="edge">
<title>Node4&#45;&gt;Node13</title>
<path fill="none" stroke="midnightblue" d="M505.78,-131.51C529.84,-137.41 560.57,-144.81 588,-151 598.94,-153.47 610.6,-156 621.88,-158.41"/>
<polygon fill="midnightblue" stroke="midnightblue" points="621.16,-161.83 631.67,-160.48 622.61,-154.98 621.16,-161.83"/>
</g>
<!-- Node6 -->
<g id="node6" class="node">
<title>Node6</title>
<g id="a_node6"><a xlink:href="class_guess_character.html#ac7a6b5befd4b2808249349cf65300a49" target="_top" xlink:title=" ">
<polygon fill="white" stroke="black" points="827.5,-80.5 827.5,-101.5 997.5,-101.5 997.5,-80.5 827.5,-80.5"/>
<text text-anchor="middle" x="912.5" y="-87.9" font-family="Helvetica,sans-Serif" font-size="12.00">GuessCharacter::displayChar</text>
</a>
</g>
</g>
<!-- Node5&#45;&gt;Node6 -->
<g id="edge5" class="edge">
<title>Node5&#45;&gt;Node6</title>
<path fill="none" stroke="midnightblue" d="M745.1,-91C767.22,-91 792.83,-91 817.24,-91"/>
<polygon fill="midnightblue" stroke="midnightblue" points="817.24,-94.5 827.24,-91 817.24,-87.5 817.24,-94.5"/>
</g>
<!-- Node8 -->
<g id="node8" class="node">
<title>Node8</title>
<g id="a_node8"><a xlink:href="class_guess_word.html#a10dbff1cdd81fe3d38e71f5d2552992d" target="_top" xlink:title=" ">
<polygon fill="white" stroke="black" points="816,-0.5 816,-21.5 1009,-21.5 1009,-0.5 816,-0.5"/>
<text text-anchor="middle" x="912.5" y="-7.9" font-family="Helvetica,sans-Serif" font-size="12.00">GuessWord::getGuessCharacters</text>
</a>
</g>
</g>
<!-- Node7&#45;&gt;Node8 -->
<g id="edge7" class="edge">
<title>Node7&#45;&gt;Node8</title>
<path fill="none" stroke="midnightblue" d="M744.51,-40.49C774.43,-35.21 810.87,-28.77 842.07,-23.26"/>
<polygon fill="midnightblue" stroke="midnightblue" points="842.76,-26.69 851.99,-21.51 841.54,-19.8 842.76,-26.69"/>
</g>
<!-- Node9 -->
<g id="node9" class="node">
<title>Node9</title>
<g id="a_node9"><a xlink:href="class_guess_character.html#ab10296cd0c254c4273e6f7f2fed84101" target="_top" xlink:title=" ">
<polygon fill="white" stroke="black" points="835,-40.5 835,-61.5 990,-61.5 990,-40.5 835,-40.5"/>
<text text-anchor="middle" x="912.5" y="-47.9" font-family="Helvetica,sans-Serif" font-size="12.00">GuessCharacter::getLetter</text>
</a>
</g>
</g>
<!-- Node7&#45;&gt;Node9 -->
<g id="edge8" class="edge">
<title>Node7&#45;&gt;Node9</title>
<path fill="none" stroke="midnightblue" d="M777.13,-51C792.8,-51 809.03,-51 824.57,-51"/>
<polygon fill="midnightblue" stroke="midnightblue" points="824.66,-54.5 834.66,-51 824.66,-47.5 824.66,-54.5"/>
</g>
<!-- Node11 -->
<g id="node11" class="node">
<title>Node11</title>
<g id="a_node11"><a xlink:href="class_guess_character.html#a2c4ca4daff3ffad0d2b515e1e52ce775" target="_top" xlink:title=" ">
<polygon fill="white" stroke="black" points="835.5,-120.5 835.5,-141.5 989.5,-141.5 989.5,-120.5 835.5,-120.5"/>
<text text-anchor="middle" x="912.5" y="-127.9" font-family="Helvetica,sans-Serif" font-size="12.00">GuessCharacter::setLetter</text>
</a>
</g>
</g>
<!-- Node10&#45;&gt;Node11 -->
<g id="edge10" class="edge">
<title>Node10&#45;&gt;Node11</title>
<path fill="none" stroke="midnightblue" d="M780.07,-131C795.02,-131 810.41,-131 825.15,-131"/>
<polygon fill="midnightblue" stroke="midnightblue" points="825.24,-134.5 835.24,-131 825.24,-127.5 825.24,-134.5"/>
</g>
<!-- Node12 -->
<g id="node12" class="node">
<title>Node12</title>
<g id="a_node12"><a xlink:href="class_guess_character.html#abf94f0f4d1d8fcae335a00b74bd13236" target="_top" xlink:title=" ">
<polygon fill="white" stroke="black" points="834,-160.5 834,-181.5 991,-181.5 991,-160.5 834,-160.5"/>
<text text-anchor="middle" x="912.5" y="-167.9" font-family="Helvetica,sans-Serif" font-size="12.00">GuessCharacter::setStatus</text>
</a>
</g>
</g>
<!-- Node10&#45;&gt;Node12 -->
<g id="edge11" class="edge">
<title>Node10&#45;&gt;Node12</title>
<path fill="none" stroke="midnightblue" d="M744.51,-141.51C774.43,-146.79 810.87,-153.23 842.07,-158.74"/>
<polygon fill="midnightblue" stroke="midnightblue" points="841.54,-162.2 851.99,-160.49 842.76,-155.31 841.54,-162.2"/>
</g>
<!-- Node15 -->
<g id="node15" class="node">
<title>Node15</title>
<g id="a_node15"><a xlink:href="class_game.html#ac2d21bf44a3e68ac01b522171bb67bcb" target="_top" xlink:title=" ">
<polygon fill="white" stroke="black" points="598.5,-0.5 598.5,-21.5 769.5,-21.5 769.5,-0.5 598.5,-0.5"/>
<text text-anchor="middle" x="684" y="-7.9" font-family="Helvetica,sans-Serif" font-size="12.00">Game::binarySearchWordList</text>
</a>
</g>
</g>
<!-- Node14&#45;&gt;Node15 -->
<g id="edge14" class="edge">
<title>Node14&#45;&gt;Node15</title>
<path fill="none" stroke="midnightblue" d="M522.03,-25.67C542.3,-23.82 565.57,-21.7 588,-19.66"/>
<polygon fill="midnightblue" stroke="midnightblue" points="588.59,-23.12 598.23,-18.72 587.95,-16.15 588.59,-23.12"/>
</g>
</g>
</svg>
