<?xml version="1.0" encoding="UTF-8" standalone="no"?>
<!DOCTYPE svg PUBLIC "-//W3C//DTD SVG 1.1//EN"
 "http://www.w3.org/Graphics/SVG/1.1/DTD/svg11.dtd">
<!-- Generated by graphviz version 2.50.0 (20211204.2007)
 -->
<!-- Title: Game::setAvailableLetterStatus Pages: 1 -->
<svg width="386pt" height="70pt"
 viewBox="0.00 0.00 386.00 70.00" xmlns="http://www.w3.org/2000/svg" xmlns:xlink="http://www.w3.org/1999/xlink">
<g id="graph0" class="graph" transform="scale(1 1) rotate(0) translate(4 66)">
<title>Game::setAvailableLetterStatus</title>
<polygon fill="white" stroke="transparent" points="-4,4 -4,-66 382,-66 382,4 -4,4"/>
<!-- Node1 -->
<g id="node1" class="node">
<title>Node1</title>
<g id="a_node1"><a xlink:title=" ">
<polygon fill="#bfbfbf" stroke="black" points="0,-14 0,-48 149,-48 149,-14 0,-14"/>
<text text-anchor="start" x="8" y="-34.4" font-family="Helvetica,sans-Serif" font-size="12.00">Game::setAvailableLetter</text>
<text text-anchor="middle" x="74.5" y="-21.4" font-family="Helvetica,sans-Serif" font-size="12.00">Status</text>
</a>
</g>
</g>
<!-- Node2 -->
<g id="node2" class="node">
<title>Node2</title>
<g id="a_node2"><a xlink:href="class_guess_word.html#a10dbff1cdd81fe3d38e71f5d2552992d" target="_top" xlink:title=" ">
<polygon fill="white" stroke="black" points="185,-40.5 185,-61.5 378,-61.5 378,-40.5 185,-40.5"/>
<text text-anchor="middle" x="281.5" y="-47.9" font-family="Helvetica,sans-Serif" font-size="12.00">GuessWord::getGuessCharacters</text>
</a>
</g>
</g>
<!-- Node1&#45;&gt;Node2 -->
<g id="edge1" class="edge">
<title>Node1&#45;&gt;Node2</title>
<path fill="none" stroke="midnightblue" d="M149.22,-38.19C157.55,-39.01 166.16,-39.85 174.8,-40.69"/>
<polygon fill="midnightblue" stroke="midnightblue" points="174.65,-44.19 184.94,-41.68 175.33,-37.22 174.65,-44.19"/>
</g>
<!-- Node3 -->
<g id="node3" class="node">
<title>Node3</title>
<g id="a_node3"><a xlink:href="class_guess_character.html#ab10296cd0c254c4273e6f7f2fed84101" target="_top" xlink:title=" ">
<polygon fill="white" stroke="black" points="204,-0.5 204,-21.5 359,-21.5 359,-0.5 204,-0.5"/>
<text text-anchor="middle" x="281.5" y="-7.9" font-family="Helvetica,sans-Serif" font-size="12.00">GuessCharacter::getLetter</text>
</a>
</g>
</g>
<!-- Node1&#45;&gt;Node3 -->
<g id="edge2" class="edge">
<title>Node1&#45;&gt;Node3</title>
<path fill="none" stroke="midnightblue" d="M149.22,-23.81C163.68,-22.4 178.96,-20.91 193.8,-19.46"/>
<polygon fill="midnightblue" stroke="midnightblue" points="194.37,-22.92 203.98,-18.47 193.69,-15.95 194.37,-22.92"/>
</g>
</g>
</svg>
