<?xml version="1.0" encoding="UTF-8" standalone="no"?>
<!DOCTYPE svg PUBLIC "-//W3C//DTD SVG 1.1//EN"
 "http://www.w3.org/Graphics/SVG/1.1/DTD/svg11.dtd">
<!-- Generated by graphviz version 2.50.0 (20211204.2007)
 -->
<!-- Title: GuessCharacter::getLetter Pages: 1 -->
<svg width="909pt" height="43pt"
 viewBox="0.00 0.00 909.00 43.00" xmlns="http://www.w3.org/2000/svg" xmlns:xlink="http://www.w3.org/1999/xlink">
<g id="graph0" class="graph" transform="scale(1 1) rotate(0) translate(4 39)">
<title>GuessCharacter::getLetter</title>
<polygon fill="white" stroke="transparent" points="-4,4 -4,-39 905,-39 905,4 -4,4"/>
<!-- Node1 -->
<g id="node1" class="node">
<title>Node1</title>
<g id="a_node1"><a xlink:title=" ">
<polygon fill="#bfbfbf" stroke="black" points="746,-7 746,-28 901,-28 901,-7 746,-7"/>
<text text-anchor="middle" x="823.5" y="-14.4" font-family="Helvetica,sans-Serif" font-size="12.00">GuessCharacter::getLetter</text>
</a>
</g>
</g>
<!-- Node2 -->
<g id="node2" class="node">
<title>Node2</title>
<g id="a_node2"><a xlink:href="class_game.html#a1aa22be99a91aa5c7752bb49641bbf30" target="_top" xlink:title=" ">
<polygon fill="white" stroke="black" points="561,-0.5 561,-34.5 710,-34.5 710,-0.5 561,-0.5"/>
<text text-anchor="start" x="569" y="-20.9" font-family="Helvetica,sans-Serif" font-size="12.00">Game::setAvailableLetter</text>
<text text-anchor="middle" x="635.5" y="-7.9" font-family="Helvetica,sans-Serif" font-size="12.00">Status</text>
</a>
</g>
</g>
<!-- Node1&#45;&gt;Node2 -->
<g id="edge1" class="edge">
<title>Node1&#45;&gt;Node2</title>
<path fill="none" stroke="midnightblue" d="M735.74,-17.5C727.15,-17.5 718.49,-17.5 710.06,-17.5"/>
<polygon fill="midnightblue" stroke="midnightblue" points="735.77,-21 745.77,-17.5 735.77,-14 735.77,-21"/>
</g>
<!-- Node3 -->
<g id="node3" class="node">
<title>Node3</title>
<g id="a_node3"><a xlink:href="class_game.html#a5e77f0c5ee41d17531e12de8211d8683" target="_top" xlink:title=" ">
<polygon fill="white" stroke="black" points="346,-7 346,-28 525,-28 525,-7 346,-7"/>
<text text-anchor="middle" x="435.5" y="-14.4" font-family="Helvetica,sans-Serif" font-size="12.00">Game::checkAndDisplayGuess</text>
</a>
</g>
</g>
<!-- Node2&#45;&gt;Node3 -->
<g id="edge2" class="edge">
<title>Node2&#45;&gt;Node3</title>
<path fill="none" stroke="midnightblue" d="M550.56,-17.5C542.11,-17.5 533.51,-17.5 525.01,-17.5"/>
<polygon fill="midnightblue" stroke="midnightblue" points="550.77,-21 560.77,-17.5 550.77,-14 550.77,-21"/>
</g>
<!-- Node4 -->
<g id="node4" class="node">
<title>Node4</title>
<g id="a_node4"><a xlink:href="class_game.html#a44e9cbf9c4f376e31a83ca6179f0ca38" target="_top" xlink:title=" ">
<polygon fill="white" stroke="black" points="190,-7 190,-28 310,-28 310,-7 190,-7"/>
<text text-anchor="middle" x="250" y="-14.4" font-family="Helvetica,sans-Serif" font-size="12.00">Game::playerGuess</text>
</a>
</g>
</g>
<!-- Node3&#45;&gt;Node4 -->
<g id="edge3" class="edge">
<title>Node3&#45;&gt;Node4</title>
<path fill="none" stroke="midnightblue" d="M335.69,-17.5C326.95,-17.5 318.29,-17.5 310.04,-17.5"/>
<polygon fill="midnightblue" stroke="midnightblue" points="335.98,-21 345.97,-17.5 335.97,-14 335.98,-21"/>
</g>
<!-- Node5 -->
<g id="node5" class="node">
<title>Node5</title>
<g id="a_node5"><a xlink:href="class_game.html#a50b01080d0d7c5bfc317801a360c84ac" target="_top" xlink:title=" ">
<polygon fill="white" stroke="black" points="78,-7 78,-28 154,-28 154,-7 78,-7"/>
<text text-anchor="middle" x="116" y="-14.4" font-family="Helvetica,sans-Serif" font-size="12.00">Game::play</text>
</a>
</g>
</g>
<!-- Node4&#45;&gt;Node5 -->
<g id="edge4" class="edge">
<title>Node4&#45;&gt;Node5</title>
<path fill="none" stroke="midnightblue" d="M179.89,-17.5C170.98,-17.5 162.14,-17.5 154.03,-17.5"/>
<polygon fill="midnightblue" stroke="midnightblue" points="179.95,-21 189.95,-17.5 179.95,-14 179.95,-21"/>
</g>
<!-- Node6 -->
<g id="node6" class="node">
<title>Node6</title>
<g id="a_node6"><a xlink:href="_wordle_o_o_8cpp.html#ae66f6b31b5ad750f1fe042a706a4e3d4" target="_top" xlink:title=" ">
<polygon fill="white" stroke="black" points="0,-7 0,-28 42,-28 42,-7 0,-7"/>
<text text-anchor="middle" x="21" y="-14.4" font-family="Helvetica,sans-Serif" font-size="12.00">main</text>
</a>
</g>
</g>
<!-- Node5&#45;&gt;Node6 -->
<g id="edge5" class="edge">
<title>Node5&#45;&gt;Node6</title>
<path fill="none" stroke="midnightblue" d="M67.79,-17.5C58.71,-17.5 49.68,-17.5 42.06,-17.5"/>
<polygon fill="midnightblue" stroke="midnightblue" points="67.98,-21 77.98,-17.5 67.98,-14 67.98,-21"/>
</g>
</g>
</svg>
