<?xml version="1.0" encoding="UTF-8" standalone="no"?>
<!DOCTYPE svg PUBLIC "-//W3C//DTD SVG 1.1//EN"
 "http://www.w3.org/Graphics/SVG/1.1/DTD/svg11.dtd">
<!-- Generated by graphviz version 2.50.0 (20211204.2007)
 -->
<!-- Title: GuessWord Pages: 1 -->
<svg width="184pt" height="302pt"
 viewBox="0.00 0.00 184.00 302.00" xmlns="http://www.w3.org/2000/svg" xmlns:xlink="http://www.w3.org/1999/xlink">
<g id="graph0" class="graph" transform="scale(1 1) rotate(0) translate(4 298)">
<title>GuessWord</title>
<polygon fill="white" stroke="transparent" points="-4,4 -4,-298 180,-298 180,4 -4,4"/>
<!-- Node1 -->
<g id="node1" class="node">
<title>Node1</title>
<g id="a_node1"><a xlink:title=" ">
<polygon fill="#bfbfbf" stroke="black" points="0,-0.5 0,-102.5 158,-102.5 158,-0.5 0,-0.5"/>
<text text-anchor="middle" x="79" y="-88.9" font-family="Helvetica,sans-Serif" font-size="12.00">GuessWord</text>
<polyline fill="none" stroke="black" points="0,-81.5 158,-81.5 "/>
<text text-anchor="middle" x="79" y="-67.9" font-family="Helvetica,sans-Serif" font-size="12.00"> </text>
<polyline fill="none" stroke="black" points="0,-60.5 158,-60.5 "/>
<text text-anchor="start" x="8" y="-46.9" font-family="Helvetica,sans-Serif" font-size="12.00">+ void setGuessCharacters</text>
<text text-anchor="start" x="8" y="-33.9" font-family="Helvetica,sans-Serif" font-size="12.00">(string guess, string</text>
<text text-anchor="start" x="8" y="-20.9" font-family="Helvetica,sans-Serif" font-size="12.00"> wordToFind)</text>
<text text-anchor="start" x="8" y="-7.9" font-family="Helvetica,sans-Serif" font-size="12.00">+ void display()</text>
</a>
</g>
</g>
<!-- Node2 -->
<g id="node2" class="node">
<title>Node2</title>
<g id="a_node2"><a xlink:href="class_guess_character.html" target="_top" xlink:title=" ">
<polygon fill="white" stroke="black" points="13.5,-152.5 13.5,-293.5 144.5,-293.5 144.5,-152.5 13.5,-152.5"/>
<text text-anchor="middle" x="79" y="-279.9" font-family="Helvetica,sans-Serif" font-size="12.00">GuessCharacter</text>
<polyline fill="none" stroke="black" points="13.5,-272.5 144.5,-272.5 "/>
<text text-anchor="start" x="21.5" y="-258.9" font-family="Helvetica,sans-Serif" font-size="12.00">&#45; char letter</text>
<text text-anchor="start" x="21.5" y="-245.9" font-family="Helvetica,sans-Serif" font-size="12.00">&#45; Status status</text>
<polyline fill="none" stroke="black" points="13.5,-238.5 144.5,-238.5 "/>
<text text-anchor="start" x="21.5" y="-224.9" font-family="Helvetica,sans-Serif" font-size="12.00">+ GuessCharacter()</text>
<text text-anchor="start" x="21.5" y="-211.9" font-family="Helvetica,sans-Serif" font-size="12.00">+ void displayChar()</text>
<text text-anchor="start" x="21.5" y="-198.9" font-family="Helvetica,sans-Serif" font-size="12.00">+ void setLetter(char</text>
<text text-anchor="start" x="21.5" y="-185.9" font-family="Helvetica,sans-Serif" font-size="12.00"> letter)</text>
<text text-anchor="start" x="21.5" y="-172.9" font-family="Helvetica,sans-Serif" font-size="12.00">+ void setStats(Status</text>
<text text-anchor="start" x="21.5" y="-159.9" font-family="Helvetica,sans-Serif" font-size="12.00"> status)</text>
</a>
</g>
</g>
<!-- Node2&#45;&gt;Node1 -->
<g id="edge1" class="edge">
<title>Node2&#45;&gt;Node1</title>
<path fill="none" stroke="#404040" d="M79,-152.08C79,-139.76 79,-127.01 79,-114.92"/>
<polygon fill="none" stroke="#404040" points="79,-114.59 75,-108.59 79,-102.59 83,-108.59 79,-114.59"/>
<text text-anchor="middle" x="127.5" y="-124.4" font-family="Helvetica,sans-Serif" font-size="12.00"> &#45;guessCharacters</text>
</g>
</g>
</svg>
