<?xml version="1.0" encoding="UTF-8" standalone="no"?>
<!DOCTYPE svg PUBLIC "-//W3C//DTD SVG 1.1//EN"
 "http://www.w3.org/Graphics/SVG/1.1/DTD/svg11.dtd">
<!-- Generated by graphviz version 2.50.0 (20211204.2007)
 -->
<!-- Title: GuessWord::setGuessCharacters Pages: 1 -->
<svg width="390pt" height="70pt"
 viewBox="0.00 0.00 390.00 70.00" xmlns="http://www.w3.org/2000/svg" xmlns:xlink="http://www.w3.org/1999/xlink">
<g id="graph0" class="graph" transform="scale(1 1) rotate(0) translate(4 66)">
<title>GuessWord::setGuessCharacters</title>
<polygon fill="white" stroke="transparent" points="-4,4 -4,-66 386,-66 386,4 -4,4"/>
<!-- Node1 -->
<g id="node1" class="node">
<title>Node1</title>
<g id="a_node1"><a xlink:title=" ">
<polygon fill="#bfbfbf" stroke="black" points="0,-20.5 0,-41.5 192,-41.5 192,-20.5 0,-20.5"/>
<text text-anchor="middle" x="96" y="-27.9" font-family="Helvetica,sans-Serif" font-size="12.00">GuessWord::setGuessCharacters</text>
</a>
</g>
</g>
<!-- Node2 -->
<g id="node2" class="node">
<title>Node2</title>
<g id="a_node2"><a xlink:href="class_guess_character.html#a2c4ca4daff3ffad0d2b515e1e52ce775" target="_top" xlink:title=" ">
<polygon fill="white" stroke="black" points="228,-40.5 228,-61.5 382,-61.5 382,-40.5 228,-40.5"/>
<text text-anchor="middle" x="305" y="-47.9" font-family="Helvetica,sans-Serif" font-size="12.00">GuessCharacter::setLetter</text>
</a>
</g>
</g>
<!-- Node1&#45;&gt;Node2 -->
<g id="edge1" class="edge">
<title>Node1&#45;&gt;Node2</title>
<path fill="none" stroke="midnightblue" d="M192.02,-40.18C200.56,-41.01 209.17,-41.84 217.63,-42.66"/>
<polygon fill="midnightblue" stroke="midnightblue" points="217.57,-46.17 227.86,-43.64 218.24,-39.2 217.57,-46.17"/>
</g>
<!-- Node3 -->
<g id="node3" class="node">
<title>Node3</title>
<g id="a_node3"><a xlink:href="class_guess_character.html#af7a35441a9c05a8b280ad1d28b2ebc27" target="_top" xlink:title=" ">
<polygon fill="white" stroke="black" points="229.5,-0.5 229.5,-21.5 380.5,-21.5 380.5,-0.5 229.5,-0.5"/>
<text text-anchor="middle" x="305" y="-7.9" font-family="Helvetica,sans-Serif" font-size="12.00">GuessCharacter::setStats</text>
</a>
</g>
</g>
<!-- Node1&#45;&gt;Node3 -->
<g id="edge2" class="edge">
<title>Node1&#45;&gt;Node3</title>
<path fill="none" stroke="midnightblue" d="M192.02,-21.82C201.13,-20.94 210.33,-20.05 219.33,-19.18"/>
<polygon fill="midnightblue" stroke="midnightblue" points="219.78,-22.65 229.4,-18.21 219.11,-15.69 219.78,-22.65"/>
</g>
</g>
</svg>
