<?xml version="1.0" encoding="UTF-8" standalone="no"?>
<!DOCTYPE svg PUBLIC "-//W3C//DTD SVG 1.1//EN"
 "http://www.w3.org/Graphics/SVG/1.1/DTD/svg11.dtd">
<!-- Generated by graphviz version 2.50.0 (20211204.2007)
 -->
<!-- Title: Game::welcomeMessage Pages: 1 -->
<svg width="719pt" height="50pt"
 viewBox="0.00 0.00 719.00 50.00" xmlns="http://www.w3.org/2000/svg" xmlns:xlink="http://www.w3.org/1999/xlink">
<g id="graph0" class="graph" transform="scale(1 1) rotate(0) translate(4 46)">
<title>Game::welcomeMessage</title>
<polygon fill="white" stroke="transparent" points="-4,4 -4,-46 715,-46 715,4 -4,4"/>
<!-- Node1 -->
<g id="node1" class="node">
<title>Node1</title>
<g id="a_node1"><a xlink:title=" ">
<polygon fill="#bfbfbf" stroke="black" points="561,-0.5 561,-21.5 711,-21.5 711,-0.5 561,-0.5"/>
<text text-anchor="middle" x="636" y="-7.9" font-family="Helvetica,sans-Serif" font-size="12.00">Game::welcomeMessage</text>
</a>
</g>
</g>
<!-- Node2 -->
<g id="node2" class="node">
<title>Node2</title>
<g id="a_node2"><a xlink:href="class_game.html#a5e77f0c5ee41d17531e12de8211d8683" target="_top" xlink:title=" ">
<polygon fill="white" stroke="black" points="346,-20.5 346,-41.5 525,-41.5 525,-20.5 346,-20.5"/>
<text text-anchor="middle" x="435.5" y="-27.9" font-family="Helvetica,sans-Serif" font-size="12.00">Game::checkAndDisplayGuess</text>
</a>
</g>
</g>
<!-- Node1&#45;&gt;Node2 -->
<g id="edge1" class="edge">
<title>Node1&#45;&gt;Node2</title>
<path fill="none" stroke="midnightblue" d="M550.85,-19.48C542.3,-20.34 533.6,-21.22 525.01,-22.08"/>
<polygon fill="midnightblue" stroke="midnightblue" points="551.2,-22.96 560.8,-18.48 550.5,-16 551.2,-22.96"/>
</g>
<!-- Node4 -->
<g id="node4" class="node">
<title>Node4</title>
<g id="a_node4"><a xlink:href="class_game.html#a50b01080d0d7c5bfc317801a360c84ac" target="_top" xlink:title=" ">
<polygon fill="white" stroke="black" points="78,-0.5 78,-21.5 154,-21.5 154,-0.5 78,-0.5"/>
<text text-anchor="middle" x="116" y="-7.9" font-family="Helvetica,sans-Serif" font-size="12.00">Game::play</text>
</a>
</g>
</g>
<!-- Node1&#45;&gt;Node4 -->
<g id="edge5" class="edge">
<title>Node1&#45;&gt;Node4</title>
<path fill="none" stroke="midnightblue" d="M550.65,-11C436.16,-11 236.4,-11 154.08,-11"/>
<polygon fill="midnightblue" stroke="midnightblue" points="550.78,-14.5 560.78,-11 550.78,-7.5 550.78,-14.5"/>
</g>
<!-- Node3 -->
<g id="node3" class="node">
<title>Node3</title>
<g id="a_node3"><a xlink:href="class_game.html#a44e9cbf9c4f376e31a83ca6179f0ca38" target="_top" xlink:title=" ">
<polygon fill="white" stroke="black" points="190,-20.5 190,-41.5 310,-41.5 310,-20.5 190,-20.5"/>
<text text-anchor="middle" x="250" y="-27.9" font-family="Helvetica,sans-Serif" font-size="12.00">Game::playerGuess</text>
</a>
</g>
</g>
<!-- Node2&#45;&gt;Node3 -->
<g id="edge2" class="edge">
<title>Node2&#45;&gt;Node3</title>
<path fill="none" stroke="midnightblue" d="M335.69,-31C326.95,-31 318.29,-31 310.04,-31"/>
<polygon fill="midnightblue" stroke="midnightblue" points="335.98,-34.5 345.97,-31 335.97,-27.5 335.98,-34.5"/>
</g>
<!-- Node3&#45;&gt;Node4 -->
<g id="edge3" class="edge">
<title>Node3&#45;&gt;Node4</title>
<path fill="none" stroke="midnightblue" d="M179.89,-20.53C170.98,-19.18 162.14,-17.84 154.03,-16.61"/>
<polygon fill="midnightblue" stroke="midnightblue" points="179.54,-24.02 189.95,-22.05 180.59,-17.09 179.54,-24.02"/>
</g>
<!-- Node5 -->
<g id="node5" class="node">
<title>Node5</title>
<g id="a_node5"><a xlink:href="_wordle_o_o_8cpp.html#ae66f6b31b5ad750f1fe042a706a4e3d4" target="_top" xlink:title=" ">
<polygon fill="white" stroke="black" points="0,-0.5 0,-21.5 42,-21.5 42,-0.5 0,-0.5"/>
<text text-anchor="middle" x="21" y="-7.9" font-family="Helvetica,sans-Serif" font-size="12.00">main</text>
</a>
</g>
</g>
<!-- Node4&#45;&gt;Node5 -->
<g id="edge4" class="edge">
<title>Node4&#45;&gt;Node5</title>
<path fill="none" stroke="midnightblue" d="M67.79,-11C58.71,-11 49.68,-11 42.06,-11"/>
<polygon fill="midnightblue" stroke="midnightblue" points="67.98,-14.5 77.98,-11 67.98,-7.5 67.98,-14.5"/>
</g>
</g>
</svg>
