<?xml version="1.0" encoding="UTF-8" standalone="no"?>
<!DOCTYPE svg PUBLIC "-//W3C//DTD SVG 1.1//EN"
 "http://www.w3.org/Graphics/SVG/1.1/DTD/svg11.dtd">
<!-- Generated by graphviz version 2.50.0 (20211204.2007)
 -->
<!-- Title: Game::play Pages: 1 -->
<svg width="916pt" height="228pt"
 viewBox="0.00 0.00 916.00 228.00" xmlns="http://www.w3.org/2000/svg" xmlns:xlink="http://www.w3.org/1999/xlink">
<g id="graph0" class="graph" transform="scale(1 1) rotate(0) translate(4 224)">
<title>Game::play</title>
<polygon fill="white" stroke="transparent" points="-4,4 -4,-224 912,-224 912,4 -4,4"/>
<!-- Node1 -->
<g id="node1" class="node">
<title>Node1</title>
<g id="a_node1"><a xlink:title=" ">
<polygon fill="#bfbfbf" stroke="black" points="0,-59.5 0,-80.5 76,-80.5 76,-59.5 0,-59.5"/>
<text text-anchor="middle" x="38" y="-66.9" font-family="Helvetica,sans-Serif" font-size="12.00">Game::play</text>
</a>
</g>
</g>
<!-- Node2 -->
<g id="node2" class="node">
<title>Node2</title>
<g id="a_node2"><a xlink:href="class_game.html#a44e9cbf9c4f376e31a83ca6179f0ca38" target="_top" xlink:title=" ">
<polygon fill="white" stroke="black" points="125.5,-118.5 125.5,-139.5 245.5,-139.5 245.5,-118.5 125.5,-118.5"/>
<text text-anchor="middle" x="185.5" y="-125.9" font-family="Helvetica,sans-Serif" font-size="12.00">Game::playerGuess</text>
</a>
</g>
</g>
<!-- Node1&#45;&gt;Node2 -->
<g id="edge1" class="edge">
<title>Node1&#45;&gt;Node2</title>
<path fill="none" stroke="midnightblue" d="M60.14,-80.56C74.58,-87.59 94.24,-96.82 112,-104 121.54,-107.85 131.92,-111.66 141.77,-115.09"/>
<polygon fill="midnightblue" stroke="midnightblue" points="140.8,-118.46 151.39,-118.39 143.07,-111.84 140.8,-118.46"/>
</g>
<!-- Node9 -->
<g id="node9" class="node">
<title>Node9</title>
<g id="a_node9"><a xlink:href="class_game.html#add1f07beb90c3a85e640bf343f2f3cda" target="_top" xlink:title=" ">
<polygon fill="white" stroke="black" points="531,-78.5 531,-99.5 681,-99.5 681,-78.5 531,-78.5"/>
<text text-anchor="middle" x="606" y="-85.9" font-family="Helvetica,sans-Serif" font-size="12.00">Game::welcomeMessage</text>
</a>
</g>
</g>
<!-- Node1&#45;&gt;Node9 -->
<g id="edge13" class="edge">
<title>Node1&#45;&gt;Node9</title>
<path fill="none" stroke="midnightblue" d="M76.14,-71.25C165.72,-74.25 395.52,-81.97 520.68,-86.17"/>
<polygon fill="midnightblue" stroke="midnightblue" points="520.88,-89.68 530.99,-86.52 521.11,-82.68 520.88,-89.68"/>
</g>
<!-- Node12 -->
<g id="node12" class="node">
<title>Node12</title>
<g id="a_node12"><a xlink:href="class_game.html#aff845e992fb69e1c2c7f749e8786699c" target="_top" xlink:title=" ">
<polygon fill="white" stroke="black" points="112,-40.5 112,-61.5 259,-61.5 259,-40.5 112,-40.5"/>
<text text-anchor="middle" x="185.5" y="-47.9" font-family="Helvetica,sans-Serif" font-size="12.00">Game::populateWordList</text>
</a>
</g>
</g>
<!-- Node1&#45;&gt;Node12 -->
<g id="edge11" class="edge">
<title>Node1&#45;&gt;Node12</title>
<path fill="none" stroke="midnightblue" d="M76.09,-65.16C84.04,-64.12 92.75,-62.98 101.67,-61.82"/>
<polygon fill="midnightblue" stroke="midnightblue" points="102.33,-65.26 111.79,-60.49 101.42,-58.32 102.33,-65.26"/>
</g>
<!-- Node13 -->
<g id="node13" class="node">
<title>Node13</title>
<g id="a_node13"><a xlink:href="class_game.html#a5872e5f53336a95489970a67d15d5dc0" target="_top" xlink:title=" ">
<polygon fill="white" stroke="black" points="128.5,-0.5 128.5,-21.5 242.5,-21.5 242.5,-0.5 128.5,-0.5"/>
<text text-anchor="middle" x="185.5" y="-7.9" font-family="Helvetica,sans-Serif" font-size="12.00">Game::selectWord</text>
</a>
</g>
</g>
<!-- Node1&#45;&gt;Node13 -->
<g id="edge12" class="edge">
<title>Node1&#45;&gt;Node13</title>
<path fill="none" stroke="midnightblue" d="M56.18,-59.42C70.65,-50.85 92.12,-38.94 112,-31 117.89,-28.65 124.15,-26.47 130.44,-24.48"/>
<polygon fill="midnightblue" stroke="midnightblue" points="131.71,-27.75 140.28,-21.52 129.69,-21.05 131.71,-27.75"/>
</g>
<!-- Node3 -->
<g id="node3" class="node">
<title>Node3</title>
<g id="a_node3"><a xlink:href="class_game.html#a5e77f0c5ee41d17531e12de8211d8683" target="_top" xlink:title=" ">
<polygon fill="white" stroke="black" points="295,-118.5 295,-139.5 474,-139.5 474,-118.5 295,-118.5"/>
<text text-anchor="middle" x="384.5" y="-125.9" font-family="Helvetica,sans-Serif" font-size="12.00">Game::checkAndDisplayGuess</text>
</a>
</g>
</g>
<!-- Node2&#45;&gt;Node3 -->
<g id="edge2" class="edge">
<title>Node2&#45;&gt;Node3</title>
<path fill="none" stroke="midnightblue" d="M245.61,-129C257.98,-129 271.35,-129 284.72,-129"/>
<polygon fill="midnightblue" stroke="midnightblue" points="284.93,-132.5 294.93,-129 284.93,-125.5 284.93,-132.5"/>
</g>
<!-- Node10 -->
<g id="node10" class="node">
<title>Node10</title>
<g id="a_node10"><a xlink:href="class_game.html#a0fe1584b29f33bf17dd976447fc0f8ce" target="_top" xlink:title=" ">
<polygon fill="white" stroke="black" points="325,-178.5 325,-199.5 444,-199.5 444,-178.5 325,-178.5"/>
<text text-anchor="middle" x="384.5" y="-185.9" font-family="Helvetica,sans-Serif" font-size="12.00">Game::isValidWord</text>
</a>
</g>
</g>
<!-- Node2&#45;&gt;Node10 -->
<g id="edge9" class="edge">
<title>Node2&#45;&gt;Node10</title>
<path fill="none" stroke="midnightblue" d="M221.27,-139.59C254.08,-149.58 303.43,-164.61 339.08,-175.47"/>
<polygon fill="midnightblue" stroke="midnightblue" points="338.16,-178.85 348.75,-178.42 340.2,-172.15 338.16,-178.85"/>
</g>
<!-- Node4 -->
<g id="node4" class="node">
<title>Node4</title>
<g id="a_node4"><a xlink:href="class_guess_word.html#a0b8dc3f491b390b645b6c3edd15b355e" target="_top" xlink:title=" ">
<polygon fill="white" stroke="black" points="545,-118.5 545,-139.5 667,-139.5 667,-118.5 545,-118.5"/>
<text text-anchor="middle" x="606" y="-125.9" font-family="Helvetica,sans-Serif" font-size="12.00">GuessWord::display</text>
</a>
</g>
</g>
<!-- Node3&#45;&gt;Node4 -->
<g id="edge3" class="edge">
<title>Node3&#45;&gt;Node4</title>
<path fill="none" stroke="midnightblue" d="M474.15,-129C494.32,-129 515.48,-129 534.76,-129"/>
<polygon fill="midnightblue" stroke="midnightblue" points="534.96,-132.5 544.96,-129 534.96,-125.5 534.96,-132.5"/>
</g>
<!-- Node6 -->
<g id="node6" class="node">
<title>Node6</title>
<g id="a_node6"><a xlink:href="class_guess_word.html#a158140ba0693b2e09d3066b1c0145119" target="_top" xlink:title=" ">
<polygon fill="white" stroke="black" points="510,-158.5 510,-179.5 702,-179.5 702,-158.5 510,-158.5"/>
<text text-anchor="middle" x="606" y="-165.9" font-family="Helvetica,sans-Serif" font-size="12.00">GuessWord::setGuessCharacters</text>
</a>
</g>
</g>
<!-- Node3&#45;&gt;Node6 -->
<g id="edge5" class="edge">
<title>Node3&#45;&gt;Node6</title>
<path fill="none" stroke="midnightblue" d="M443.17,-139.51C472.04,-144.77 507.18,-151.17 537.32,-156.67"/>
<polygon fill="midnightblue" stroke="midnightblue" points="536.87,-160.14 547.33,-158.49 538.12,-153.26 536.87,-160.14"/>
</g>
<!-- Node3&#45;&gt;Node9 -->
<g id="edge8" class="edge">
<title>Node3&#45;&gt;Node9</title>
<path fill="none" stroke="midnightblue" d="M443.17,-118.49C472.04,-113.23 507.18,-106.83 537.32,-101.33"/>
<polygon fill="midnightblue" stroke="midnightblue" points="538.12,-104.74 547.33,-99.51 536.87,-97.86 538.12,-104.74"/>
</g>
<!-- Node5 -->
<g id="node5" class="node">
<title>Node5</title>
<g id="a_node5"><a xlink:href="class_guess_character.html#ac7a6b5befd4b2808249349cf65300a49" target="_top" xlink:title=" ">
<polygon fill="white" stroke="black" points="738,-118.5 738,-139.5 908,-139.5 908,-118.5 738,-118.5"/>
<text text-anchor="middle" x="823" y="-125.9" font-family="Helvetica,sans-Serif" font-size="12.00">GuessCharacter::displayChar</text>
</a>
</g>
</g>
<!-- Node4&#45;&gt;Node5 -->
<g id="edge4" class="edge">
<title>Node4&#45;&gt;Node5</title>
<path fill="none" stroke="midnightblue" d="M667.18,-129C685.96,-129 707.16,-129 727.71,-129"/>
<polygon fill="midnightblue" stroke="midnightblue" points="727.73,-132.5 737.73,-129 727.73,-125.5 727.73,-132.5"/>
</g>
<!-- Node7 -->
<g id="node7" class="node">
<title>Node7</title>
<g id="a_node7"><a xlink:href="class_guess_character.html#a2c4ca4daff3ffad0d2b515e1e52ce775" target="_top" xlink:title=" ">
<polygon fill="white" stroke="black" points="746,-158.5 746,-179.5 900,-179.5 900,-158.5 746,-158.5"/>
<text text-anchor="middle" x="823" y="-165.9" font-family="Helvetica,sans-Serif" font-size="12.00">GuessCharacter::setLetter</text>
</a>
</g>
</g>
<!-- Node6&#45;&gt;Node7 -->
<g id="edge6" class="edge">
<title>Node6&#45;&gt;Node7</title>
<path fill="none" stroke="midnightblue" d="M702.24,-169C713.42,-169 724.78,-169 735.82,-169"/>
<polygon fill="midnightblue" stroke="midnightblue" points="735.87,-172.5 745.87,-169 735.87,-165.5 735.87,-172.5"/>
</g>
<!-- Node8 -->
<g id="node8" class="node">
<title>Node8</title>
<g id="a_node8"><a xlink:href="class_guess_character.html#af7a35441a9c05a8b280ad1d28b2ebc27" target="_top" xlink:title=" ">
<polygon fill="white" stroke="black" points="747.5,-198.5 747.5,-219.5 898.5,-219.5 898.5,-198.5 747.5,-198.5"/>
<text text-anchor="middle" x="823" y="-205.9" font-family="Helvetica,sans-Serif" font-size="12.00">GuessCharacter::setStats</text>
</a>
</g>
</g>
<!-- Node6&#45;&gt;Node8 -->
<g id="edge7" class="edge">
<title>Node6&#45;&gt;Node8</title>
<path fill="none" stroke="midnightblue" d="M663.49,-179.51C691.65,-184.75 725.88,-191.12 755.32,-196.59"/>
<polygon fill="midnightblue" stroke="midnightblue" points="755.04,-200.1 765.52,-198.49 756.32,-193.22 755.04,-200.1"/>
</g>
<!-- Node11 -->
<g id="node11" class="node">
<title>Node11</title>
<g id="a_node11"><a xlink:href="class_game.html#ac2d21bf44a3e68ac01b522171bb67bcb" target="_top" xlink:title=" ">
<polygon fill="white" stroke="black" points="520.5,-198.5 520.5,-219.5 691.5,-219.5 691.5,-198.5 520.5,-198.5"/>
<text text-anchor="middle" x="606" y="-205.9" font-family="Helvetica,sans-Serif" font-size="12.00">Game::binarySearchWordList</text>
</a>
</g>
</g>
<!-- Node10&#45;&gt;Node11 -->
<g id="edge10" class="edge">
<title>Node10&#45;&gt;Node11</title>
<path fill="none" stroke="midnightblue" d="M444.03,-194.33C464.3,-196.18 487.57,-198.3 510,-200.34"/>
<polygon fill="midnightblue" stroke="midnightblue" points="509.95,-203.85 520.23,-201.28 510.59,-196.88 509.95,-203.85"/>
</g>
</g>
</svg>
