<?xml version="1.0" encoding="UTF-8" standalone="no"?>
<!DOCTYPE svg PUBLIC "-//W3C//DTD SVG 1.1//EN"
 "http://www.w3.org/Graphics/SVG/1.1/DTD/svg11.dtd">
<!-- Generated by graphviz version 2.50.0 (20211204.2007)
 -->
<!-- Title: Game::playerGuess Pages: 1 -->
<svg width="777pt" height="150pt"
 viewBox="0.00 0.00 777.00 150.00" xmlns="http://www.w3.org/2000/svg" xmlns:xlink="http://www.w3.org/1999/xlink">
<g id="graph0" class="graph" transform="scale(1 1) rotate(0) translate(4 146)">
<title>Game::playerGuess</title>
<polygon fill="white" stroke="transparent" points="-4,4 -4,-146 773,-146 773,4 -4,4"/>
<!-- Node1 -->
<g id="node1" class="node">
<title>Node1</title>
<g id="a_node1"><a xlink:title=" ">
<polygon fill="#bfbfbf" stroke="black" points="0,-40.5 0,-61.5 120,-61.5 120,-40.5 0,-40.5"/>
<text text-anchor="middle" x="60" y="-47.9" font-family="Helvetica,sans-Serif" font-size="12.00">Game::playerGuess</text>
</a>
</g>
</g>
<!-- Node2 -->
<g id="node2" class="node">
<title>Node2</title>
<g id="a_node2"><a xlink:href="class_game.html#a5e77f0c5ee41d17531e12de8211d8683" target="_top" xlink:title=" ">
<polygon fill="white" stroke="black" points="156,-70.5 156,-91.5 335,-91.5 335,-70.5 156,-70.5"/>
<text text-anchor="middle" x="245.5" y="-77.9" font-family="Helvetica,sans-Serif" font-size="12.00">Game::checkAndDisplayGuess</text>
</a>
</g>
</g>
<!-- Node1&#45;&gt;Node2 -->
<g id="edge1" class="edge">
<title>Node1&#45;&gt;Node2</title>
<path fill="none" stroke="midnightblue" d="M120.07,-60.66C135.95,-63.25 153.33,-66.09 169.93,-68.81"/>
<polygon fill="midnightblue" stroke="midnightblue" points="169.71,-72.32 180.15,-70.48 170.84,-65.41 169.71,-72.32"/>
</g>
<!-- Node9 -->
<g id="node9" class="node">
<title>Node9</title>
<g id="a_node9"><a xlink:href="class_game.html#a0fe1584b29f33bf17dd976447fc0f8ce" target="_top" xlink:title=" ">
<polygon fill="white" stroke="black" points="186,-20.5 186,-41.5 305,-41.5 305,-20.5 186,-20.5"/>
<text text-anchor="middle" x="245.5" y="-27.9" font-family="Helvetica,sans-Serif" font-size="12.00">Game::isValidWord</text>
</a>
</g>
</g>
<!-- Node1&#45;&gt;Node9 -->
<g id="edge8" class="edge">
<title>Node1&#45;&gt;Node9</title>
<path fill="none" stroke="midnightblue" d="M120.07,-44.56C137.84,-42.63 157.49,-40.48 175.82,-38.49"/>
<polygon fill="midnightblue" stroke="midnightblue" points="176.29,-41.95 185.85,-37.39 175.53,-35 176.29,-41.95"/>
</g>
<!-- Node3 -->
<g id="node3" class="node">
<title>Node3</title>
<g id="a_node3"><a xlink:href="class_guess_word.html#a0b8dc3f491b390b645b6c3edd15b355e" target="_top" xlink:title=" ">
<polygon fill="white" stroke="black" points="406,-120.5 406,-141.5 528,-141.5 528,-120.5 406,-120.5"/>
<text text-anchor="middle" x="467" y="-127.9" font-family="Helvetica,sans-Serif" font-size="12.00">GuessWord::display</text>
</a>
</g>
</g>
<!-- Node2&#45;&gt;Node3 -->
<g id="edge2" class="edge">
<title>Node2&#45;&gt;Node3</title>
<path fill="none" stroke="midnightblue" d="M288.78,-91.51C312.84,-97.41 343.57,-104.81 371,-111 381.94,-113.47 393.6,-116 404.88,-118.41"/>
<polygon fill="midnightblue" stroke="midnightblue" points="404.16,-121.83 414.67,-120.48 405.61,-114.98 404.16,-121.83"/>
</g>
<!-- Node5 -->
<g id="node5" class="node">
<title>Node5</title>
<g id="a_node5"><a xlink:href="class_guess_word.html#a158140ba0693b2e09d3066b1c0145119" target="_top" xlink:title=" ">
<polygon fill="white" stroke="black" points="371,-80.5 371,-101.5 563,-101.5 563,-80.5 371,-80.5"/>
<text text-anchor="middle" x="467" y="-87.9" font-family="Helvetica,sans-Serif" font-size="12.00">GuessWord::setGuessCharacters</text>
</a>
</g>
</g>
<!-- Node2&#45;&gt;Node5 -->
<g id="edge4" class="edge">
<title>Node2&#45;&gt;Node5</title>
<path fill="none" stroke="midnightblue" d="M335.15,-85.04C343.61,-85.42 352.25,-85.82 360.86,-86.21"/>
<polygon fill="midnightblue" stroke="midnightblue" points="360.78,-89.71 370.92,-86.67 361.09,-82.72 360.78,-89.71"/>
</g>
<!-- Node8 -->
<g id="node8" class="node">
<title>Node8</title>
<g id="a_node8"><a xlink:href="class_game.html#add1f07beb90c3a85e640bf343f2f3cda" target="_top" xlink:title=" ">
<polygon fill="white" stroke="black" points="392,-40.5 392,-61.5 542,-61.5 542,-40.5 392,-40.5"/>
<text text-anchor="middle" x="467" y="-47.9" font-family="Helvetica,sans-Serif" font-size="12.00">Game::welcomeMessage</text>
</a>
</g>
</g>
<!-- Node2&#45;&gt;Node8 -->
<g id="edge7" class="edge">
<title>Node2&#45;&gt;Node8</title>
<path fill="none" stroke="midnightblue" d="M323.58,-70.47C342.32,-67.9 362.46,-65.15 381.53,-62.54"/>
<polygon fill="midnightblue" stroke="midnightblue" points="382.26,-65.98 391.69,-61.16 381.31,-59.04 382.26,-65.98"/>
</g>
<!-- Node4 -->
<g id="node4" class="node">
<title>Node4</title>
<g id="a_node4"><a xlink:href="class_guess_character.html#ac7a6b5befd4b2808249349cf65300a49" target="_top" xlink:title=" ">
<polygon fill="white" stroke="black" points="599,-120.5 599,-141.5 769,-141.5 769,-120.5 599,-120.5"/>
<text text-anchor="middle" x="684" y="-127.9" font-family="Helvetica,sans-Serif" font-size="12.00">GuessCharacter::displayChar</text>
</a>
</g>
</g>
<!-- Node3&#45;&gt;Node4 -->
<g id="edge3" class="edge">
<title>Node3&#45;&gt;Node4</title>
<path fill="none" stroke="midnightblue" d="M528.18,-131C546.96,-131 568.16,-131 588.71,-131"/>
<polygon fill="midnightblue" stroke="midnightblue" points="588.73,-134.5 598.73,-131 588.73,-127.5 588.73,-134.5"/>
</g>
<!-- Node6 -->
<g id="node6" class="node">
<title>Node6</title>
<g id="a_node6"><a xlink:href="class_guess_character.html#a2c4ca4daff3ffad0d2b515e1e52ce775" target="_top" xlink:title=" ">
<polygon fill="white" stroke="black" points="607,-80.5 607,-101.5 761,-101.5 761,-80.5 607,-80.5"/>
<text text-anchor="middle" x="684" y="-87.9" font-family="Helvetica,sans-Serif" font-size="12.00">GuessCharacter::setLetter</text>
</a>
</g>
</g>
<!-- Node5&#45;&gt;Node6 -->
<g id="edge5" class="edge">
<title>Node5&#45;&gt;Node6</title>
<path fill="none" stroke="midnightblue" d="M563.24,-91C574.42,-91 585.78,-91 596.82,-91"/>
<polygon fill="midnightblue" stroke="midnightblue" points="596.87,-94.5 606.87,-91 596.87,-87.5 596.87,-94.5"/>
</g>
<!-- Node7 -->
<g id="node7" class="node">
<title>Node7</title>
<g id="a_node7"><a xlink:href="class_guess_character.html#af7a35441a9c05a8b280ad1d28b2ebc27" target="_top" xlink:title=" ">
<polygon fill="white" stroke="black" points="608.5,-40.5 608.5,-61.5 759.5,-61.5 759.5,-40.5 608.5,-40.5"/>
<text text-anchor="middle" x="684" y="-47.9" font-family="Helvetica,sans-Serif" font-size="12.00">GuessCharacter::setStats</text>
</a>
</g>
</g>
<!-- Node5&#45;&gt;Node7 -->
<g id="edge6" class="edge">
<title>Node5&#45;&gt;Node7</title>
<path fill="none" stroke="midnightblue" d="M524.49,-80.49C552.65,-75.25 586.88,-68.88 616.32,-63.41"/>
<polygon fill="midnightblue" stroke="midnightblue" points="617.32,-66.78 626.52,-61.51 616.04,-59.9 617.32,-66.78"/>
</g>
<!-- Node10 -->
<g id="node10" class="node">
<title>Node10</title>
<g id="a_node10"><a xlink:href="class_game.html#ac2d21bf44a3e68ac01b522171bb67bcb" target="_top" xlink:title=" ">
<polygon fill="white" stroke="black" points="381.5,-0.5 381.5,-21.5 552.5,-21.5 552.5,-0.5 381.5,-0.5"/>
<text text-anchor="middle" x="467" y="-7.9" font-family="Helvetica,sans-Serif" font-size="12.00">Game::binarySearchWordList</text>
</a>
</g>
</g>
<!-- Node9&#45;&gt;Node10 -->
<g id="edge9" class="edge">
<title>Node9&#45;&gt;Node10</title>
<path fill="none" stroke="midnightblue" d="M305.03,-25.67C325.3,-23.82 348.57,-21.7 371,-19.66"/>
<polygon fill="midnightblue" stroke="midnightblue" points="371.59,-23.12 381.23,-18.72 370.95,-16.15 371.59,-23.12"/>
</g>
</g>
</svg>
