<?xml version="1.0" encoding="UTF-8" standalone="no"?>
<!DOCTYPE svg PUBLIC "-//W3C//DTD SVG 1.1//EN"
 "http://www.w3.org/Graphics/SVG/1.1/DTD/svg11.dtd">
<!-- Generated by graphviz version 2.50.0 (20211204.2007)
 -->
<!-- Title: Game::play Pages: 1 -->
<svg width="939pt" height="190pt"
 viewBox="0.00 0.00 939.00 190.00" xmlns="http://www.w3.org/2000/svg" xmlns:xlink="http://www.w3.org/1999/xlink">
<g id="graph0" class="graph" transform="scale(1 1) rotate(0) translate(4 186)">
<title>Game::play</title>
<polygon fill="white" stroke="transparent" points="-4,4 -4,-186 935,-186 935,4 -4,4"/>
<!-- Node1 -->
<g id="node1" class="node">
<title>Node1</title>
<g id="a_node1"><a xlink:title=" ">
<polygon fill="#bfbfbf" stroke="black" points="0,-90.5 0,-111.5 76,-111.5 76,-90.5 0,-90.5"/>
<text text-anchor="middle" x="38" y="-97.9" font-family="Helvetica,sans-Serif" font-size="12.00">Game::play</text>
</a>
</g>
</g>
<!-- Node2 -->
<g id="node2" class="node">
<title>Node2</title>
<g id="a_node2"><a xlink:href="class_game.html#a44e9cbf9c4f376e31a83ca6179f0ca38" target="_top" xlink:title=" ">
<polygon fill="white" stroke="black" points="125.5,-110.5 125.5,-131.5 245.5,-131.5 245.5,-110.5 125.5,-110.5"/>
<text text-anchor="middle" x="185.5" y="-117.9" font-family="Helvetica,sans-Serif" font-size="12.00">Game::playerGuess</text>
</a>
</g>
</g>
<!-- Node1&#45;&gt;Node2 -->
<g id="edge1" class="edge">
<title>Node1&#45;&gt;Node2</title>
<path fill="none" stroke="midnightblue" d="M76.09,-106.1C88.03,-107.74 101.68,-109.62 115.17,-111.47"/>
<polygon fill="midnightblue" stroke="midnightblue" points="115.04,-114.98 125.42,-112.88 115.99,-108.05 115.04,-114.98"/>
</g>
<!-- Node12 -->
<g id="node12" class="node">
<title>Node12</title>
<g id="a_node12"><a xlink:href="class_game.html#add1f07beb90c3a85e640bf343f2f3cda" target="_top" xlink:title=" ">
<polygon fill="white" stroke="black" points="531,-160.5 531,-181.5 681,-181.5 681,-160.5 531,-160.5"/>
<text text-anchor="middle" x="606" y="-167.9" font-family="Helvetica,sans-Serif" font-size="12.00">Game::welcomeMessage</text>
</a>
</g>
</g>
<!-- Node1&#45;&gt;Node12 -->
<g id="edge17" class="edge">
<title>Node1&#45;&gt;Node12</title>
<path fill="none" stroke="midnightblue" d="M53.8,-111.68C67.97,-121.26 90.34,-134.75 112,-141 250.99,-181.12 420.89,-181.39 520.61,-176.91"/>
<polygon fill="midnightblue" stroke="midnightblue" points="520.8,-180.4 530.63,-176.43 520.47,-173.41 520.8,-180.4"/>
</g>
<!-- Node16 -->
<g id="node16" class="node">
<title>Node16</title>
<g id="a_node16"><a xlink:href="class_game.html#aff845e992fb69e1c2c7f749e8786699c" target="_top" xlink:title=" ">
<polygon fill="white" stroke="black" points="112,-70.5 112,-91.5 259,-91.5 259,-70.5 112,-70.5"/>
<text text-anchor="middle" x="185.5" y="-77.9" font-family="Helvetica,sans-Serif" font-size="12.00">Game::populateWordList</text>
</a>
</g>
</g>
<!-- Node1&#45;&gt;Node16 -->
<g id="edge15" class="edge">
<title>Node1&#45;&gt;Node16</title>
<path fill="none" stroke="midnightblue" d="M76.09,-95.9C84.04,-94.81 92.75,-93.61 101.67,-92.39"/>
<polygon fill="midnightblue" stroke="midnightblue" points="102.36,-95.82 111.79,-90.99 101.4,-88.89 102.36,-95.82"/>
</g>
<!-- Node17 -->
<g id="node17" class="node">
<title>Node17</title>
<g id="a_node17"><a xlink:href="class_game.html#a5872e5f53336a95489970a67d15d5dc0" target="_top" xlink:title=" ">
<polygon fill="white" stroke="black" points="128.5,-30.5 128.5,-51.5 242.5,-51.5 242.5,-30.5 128.5,-30.5"/>
<text text-anchor="middle" x="185.5" y="-37.9" font-family="Helvetica,sans-Serif" font-size="12.00">Game::selectWord</text>
</a>
</g>
</g>
<!-- Node1&#45;&gt;Node17 -->
<g id="edge16" class="edge">
<title>Node1&#45;&gt;Node17</title>
<path fill="none" stroke="midnightblue" d="M55.56,-90.47C70.01,-81.64 91.78,-69.2 112,-61 117.8,-58.65 123.96,-56.48 130.16,-54.5"/>
<polygon fill="midnightblue" stroke="midnightblue" points="131.31,-57.81 139.86,-51.56 129.28,-51.11 131.31,-57.81"/>
</g>
<!-- Node3 -->
<g id="node3" class="node">
<title>Node3</title>
<g id="a_node3"><a xlink:href="class_game.html#a5e77f0c5ee41d17531e12de8211d8683" target="_top" xlink:title=" ">
<polygon fill="white" stroke="black" points="295,-110.5 295,-131.5 474,-131.5 474,-110.5 295,-110.5"/>
<text text-anchor="middle" x="384.5" y="-117.9" font-family="Helvetica,sans-Serif" font-size="12.00">Game::checkAndDisplayGuess</text>
</a>
</g>
</g>
<!-- Node2&#45;&gt;Node3 -->
<g id="edge2" class="edge">
<title>Node2&#45;&gt;Node3</title>
<path fill="none" stroke="midnightblue" d="M245.61,-121C257.98,-121 271.35,-121 284.72,-121"/>
<polygon fill="midnightblue" stroke="midnightblue" points="284.93,-124.5 294.93,-121 284.93,-117.5 284.93,-124.5"/>
</g>
<!-- Node13 -->
<g id="node13" class="node">
<title>Node13</title>
<g id="a_node13"><a xlink:href="class_game.html#a0fe1584b29f33bf17dd976447fc0f8ce" target="_top" xlink:title=" ">
<polygon fill="white" stroke="black" points="325,-20.5 325,-41.5 444,-41.5 444,-20.5 325,-20.5"/>
<text text-anchor="middle" x="384.5" y="-27.9" font-family="Helvetica,sans-Serif" font-size="12.00">Game::isValidWord</text>
</a>
</g>
</g>
<!-- Node2&#45;&gt;Node13 -->
<g id="edge12" class="edge">
<title>Node2&#45;&gt;Node13</title>
<path fill="none" stroke="midnightblue" d="M238.72,-110.49C245.81,-107.96 252.78,-104.84 259,-101 279.35,-88.43 275.03,-74.16 295,-61 305.06,-54.38 316.72,-49.07 328.21,-44.88"/>
<polygon fill="midnightblue" stroke="midnightblue" points="329.45,-48.15 337.79,-41.61 327.2,-41.53 329.45,-48.15"/>
</g>
<!-- Node15 -->
<g id="node15" class="node">
<title>Node15</title>
<g id="a_node15"><a xlink:href="class_game.html#af9f553e976692b1dbe351655ee5d1191" target="_top" xlink:title=" ">
<polygon fill="white" stroke="black" points="304,-70.5 304,-91.5 465,-91.5 465,-70.5 304,-70.5"/>
<text text-anchor="middle" x="384.5" y="-77.9" font-family="Helvetica,sans-Serif" font-size="12.00">Game::printAvailableLetters</text>
</a>
</g>
</g>
<!-- Node2&#45;&gt;Node15 -->
<g id="edge14" class="edge">
<title>Node2&#45;&gt;Node15</title>
<path fill="none" stroke="midnightblue" d="M238.26,-110.49C263.83,-105.3 294.88,-98.99 321.7,-93.55"/>
<polygon fill="midnightblue" stroke="midnightblue" points="322.64,-96.93 331.74,-91.51 321.25,-90.07 322.64,-96.93"/>
</g>
<!-- Node4 -->
<g id="node4" class="node">
<title>Node4</title>
<g id="a_node4"><a xlink:href="class_guess_word.html#a0b8dc3f491b390b645b6c3edd15b355e" target="_top" xlink:title=" ">
<polygon fill="white" stroke="black" points="545,-80.5 545,-101.5 667,-101.5 667,-80.5 545,-80.5"/>
<text text-anchor="middle" x="606" y="-87.9" font-family="Helvetica,sans-Serif" font-size="12.00">GuessWord::display</text>
</a>
</g>
</g>
<!-- Node3&#45;&gt;Node4 -->
<g id="edge3" class="edge">
<title>Node3&#45;&gt;Node4</title>
<path fill="none" stroke="midnightblue" d="M462.58,-110.47C486.04,-107.26 511.69,-103.75 534.67,-100.61"/>
<polygon fill="midnightblue" stroke="midnightblue" points="535.25,-104.07 544.69,-99.24 534.31,-97.13 535.25,-104.07"/>
</g>
<!-- Node6 -->
<g id="node6" class="node">
<title>Node6</title>
<g id="a_node6"><a xlink:href="class_game.html#aaa8ee9358c0268b758fa6b93a0cc6c2f" target="_top" xlink:title=" ">
<polygon fill="white" stroke="black" points="513,-40.5 513,-61.5 699,-61.5 699,-40.5 513,-40.5"/>
<text text-anchor="middle" x="606" y="-47.9" font-family="Helvetica,sans-Serif" font-size="12.00">Game::setAvailableWordsStatus</text>
</a>
</g>
</g>
<!-- Node3&#45;&gt;Node6 -->
<g id="edge5" class="edge">
<title>Node3&#45;&gt;Node6</title>
<path fill="none" stroke="midnightblue" d="M449.13,-110.46C457.72,-107.94 466.23,-104.83 474,-101 492.68,-91.78 491.26,-80.08 510,-71 514.98,-68.59 520.24,-66.47 525.63,-64.6"/>
<polygon fill="midnightblue" stroke="midnightblue" points="526.96,-67.85 535.44,-61.51 524.85,-61.18 526.96,-67.85"/>
</g>
<!-- Node9 -->
<g id="node9" class="node">
<title>Node9</title>
<g id="a_node9"><a xlink:href="class_guess_word.html#a158140ba0693b2e09d3066b1c0145119" target="_top" xlink:title=" ">
<polygon fill="white" stroke="black" points="510,-120.5 510,-141.5 702,-141.5 702,-120.5 510,-120.5"/>
<text text-anchor="middle" x="606" y="-127.9" font-family="Helvetica,sans-Serif" font-size="12.00">GuessWord::setGuessCharacters</text>
</a>
</g>
</g>
<!-- Node3&#45;&gt;Node9 -->
<g id="edge8" class="edge">
<title>Node3&#45;&gt;Node9</title>
<path fill="none" stroke="midnightblue" d="M474.15,-125.04C482.61,-125.42 491.25,-125.82 499.86,-126.21"/>
<polygon fill="midnightblue" stroke="midnightblue" points="499.78,-129.71 509.92,-126.67 500.09,-122.72 499.78,-129.71"/>
</g>
<!-- Node3&#45;&gt;Node12 -->
<g id="edge11" class="edge">
<title>Node3&#45;&gt;Node12</title>
<path fill="none" stroke="midnightblue" d="M427.78,-131.51C451.84,-137.41 482.57,-144.81 510,-151 520.94,-153.47 532.6,-156 543.88,-158.41"/>
<polygon fill="midnightblue" stroke="midnightblue" points="543.16,-161.83 553.67,-160.48 544.61,-154.98 543.16,-161.83"/>
</g>
<!-- Node5 -->
<g id="node5" class="node">
<title>Node5</title>
<g id="a_node5"><a xlink:href="class_guess_character.html#ac7a6b5befd4b2808249349cf65300a49" target="_top" xlink:title=" ">
<polygon fill="white" stroke="black" points="749.5,-80.5 749.5,-101.5 919.5,-101.5 919.5,-80.5 749.5,-80.5"/>
<text text-anchor="middle" x="834.5" y="-87.9" font-family="Helvetica,sans-Serif" font-size="12.00">GuessCharacter::displayChar</text>
</a>
</g>
</g>
<!-- Node4&#45;&gt;Node5 -->
<g id="edge4" class="edge">
<title>Node4&#45;&gt;Node5</title>
<path fill="none" stroke="midnightblue" d="M667.1,-91C689.22,-91 714.83,-91 739.24,-91"/>
<polygon fill="midnightblue" stroke="midnightblue" points="739.24,-94.5 749.24,-91 739.24,-87.5 739.24,-94.5"/>
</g>
<!-- Node7 -->
<g id="node7" class="node">
<title>Node7</title>
<g id="a_node7"><a xlink:href="class_guess_word.html#a10dbff1cdd81fe3d38e71f5d2552992d" target="_top" xlink:title=" ">
<polygon fill="white" stroke="black" points="738,-0.5 738,-21.5 931,-21.5 931,-0.5 738,-0.5"/>
<text text-anchor="middle" x="834.5" y="-7.9" font-family="Helvetica,sans-Serif" font-size="12.00">GuessWord::getGuessCharacters</text>
</a>
</g>
</g>
<!-- Node6&#45;&gt;Node7 -->
<g id="edge6" class="edge">
<title>Node6&#45;&gt;Node7</title>
<path fill="none" stroke="midnightblue" d="M666.51,-40.49C696.43,-35.21 732.87,-28.77 764.07,-23.26"/>
<polygon fill="midnightblue" stroke="midnightblue" points="764.76,-26.69 773.99,-21.51 763.54,-19.8 764.76,-26.69"/>
</g>
<!-- Node8 -->
<g id="node8" class="node">
<title>Node8</title>
<g id="a_node8"><a xlink:href="class_guess_character.html#ab10296cd0c254c4273e6f7f2fed84101" target="_top" xlink:title=" ">
<polygon fill="white" stroke="black" points="757,-40.5 757,-61.5 912,-61.5 912,-40.5 757,-40.5"/>
<text text-anchor="middle" x="834.5" y="-47.9" font-family="Helvetica,sans-Serif" font-size="12.00">GuessCharacter::getLetter</text>
</a>
</g>
</g>
<!-- Node6&#45;&gt;Node8 -->
<g id="edge7" class="edge">
<title>Node6&#45;&gt;Node8</title>
<path fill="none" stroke="midnightblue" d="M699.13,-51C714.8,-51 731.03,-51 746.57,-51"/>
<polygon fill="midnightblue" stroke="midnightblue" points="746.66,-54.5 756.66,-51 746.66,-47.5 746.66,-54.5"/>
</g>
<!-- Node10 -->
<g id="node10" class="node">
<title>Node10</title>
<g id="a_node10"><a xlink:href="class_guess_character.html#a2c4ca4daff3ffad0d2b515e1e52ce775" target="_top" xlink:title=" ">
<polygon fill="white" stroke="black" points="757.5,-120.5 757.5,-141.5 911.5,-141.5 911.5,-120.5 757.5,-120.5"/>
<text text-anchor="middle" x="834.5" y="-127.9" font-family="Helvetica,sans-Serif" font-size="12.00">GuessCharacter::setLetter</text>
</a>
</g>
</g>
<!-- Node9&#45;&gt;Node10 -->
<g id="edge9" class="edge">
<title>Node9&#45;&gt;Node10</title>
<path fill="none" stroke="midnightblue" d="M702.07,-131C717.02,-131 732.41,-131 747.15,-131"/>
<polygon fill="midnightblue" stroke="midnightblue" points="747.24,-134.5 757.24,-131 747.24,-127.5 747.24,-134.5"/>
</g>
<!-- Node11 -->
<g id="node11" class="node">
<title>Node11</title>
<g id="a_node11"><a xlink:href="class_guess_character.html#abf94f0f4d1d8fcae335a00b74bd13236" target="_top" xlink:title=" ">
<polygon fill="white" stroke="black" points="756,-160.5 756,-181.5 913,-181.5 913,-160.5 756,-160.5"/>
<text text-anchor="middle" x="834.5" y="-167.9" font-family="Helvetica,sans-Serif" font-size="12.00">GuessCharacter::setStatus</text>
</a>
</g>
</g>
<!-- Node9&#45;&gt;Node11 -->
<g id="edge10" class="edge">
<title>Node9&#45;&gt;Node11</title>
<path fill="none" stroke="midnightblue" d="M666.51,-141.51C696.43,-146.79 732.87,-153.23 764.07,-158.74"/>
<polygon fill="midnightblue" stroke="midnightblue" points="763.54,-162.2 773.99,-160.49 764.76,-155.31 763.54,-162.2"/>
</g>
<!-- Node14 -->
<g id="node14" class="node">
<title>Node14</title>
<g id="a_node14"><a xlink:href="class_game.html#ac2d21bf44a3e68ac01b522171bb67bcb" target="_top" xlink:title=" ">
<polygon fill="white" stroke="black" points="520.5,-0.5 520.5,-21.5 691.5,-21.5 691.5,-0.5 520.5,-0.5"/>
<text text-anchor="middle" x="606" y="-7.9" font-family="Helvetica,sans-Serif" font-size="12.00">Game::binarySearchWordList</text>
</a>
</g>
</g>
<!-- Node13&#45;&gt;Node14 -->
<g id="edge13" class="edge">
<title>Node13&#45;&gt;Node14</title>
<path fill="none" stroke="midnightblue" d="M444.03,-25.67C464.3,-23.82 487.57,-21.7 510,-19.66"/>
<polygon fill="midnightblue" stroke="midnightblue" points="510.59,-23.12 520.23,-18.72 509.95,-16.15 510.59,-23.12"/>
</g>
</g>
</svg>
