<?xml version="1.0" encoding="UTF-8" standalone="no"?>
<!DOCTYPE svg PUBLIC "-//W3C//DTD SVG 1.1//EN"
 "http://www.w3.org/Graphics/SVG/1.1/DTD/svg11.dtd">
<!-- Generated by graphviz version 2.50.0 (20211204.2007)
 -->
<!-- Title: Game::printAvailableLetters Pages: 1 -->
<svg width="515pt" height="30pt"
 viewBox="0.00 0.00 515.00 30.00" xmlns="http://www.w3.org/2000/svg" xmlns:xlink="http://www.w3.org/1999/xlink">
<g id="graph0" class="graph" transform="scale(1 1) rotate(0) translate(4 26)">
<title>Game::printAvailableLetters</title>
<polygon fill="white" stroke="transparent" points="-4,4 -4,-26 511,-26 511,4 -4,4"/>
<!-- Node1 -->
<g id="node1" class="node">
<title>Node1</title>
<g id="a_node1"><a xlink:title=" ">
<polygon fill="#bfbfbf" stroke="black" points="346,-0.5 346,-21.5 507,-21.5 507,-0.5 346,-0.5"/>
<text text-anchor="middle" x="426.5" y="-7.9" font-family="Helvetica,sans-Serif" font-size="12.00">Game::printAvailableLetters</text>
</a>
</g>
</g>
<!-- Node2 -->
<g id="node2" class="node">
<title>Node2</title>
<g id="a_node2"><a xlink:href="class_game.html#a44e9cbf9c4f376e31a83ca6179f0ca38" target="_top" xlink:title=" ">
<polygon fill="white" stroke="black" points="190,-0.5 190,-21.5 310,-21.5 310,-0.5 190,-0.5"/>
<text text-anchor="middle" x="250" y="-7.9" font-family="Helvetica,sans-Serif" font-size="12.00">Game::playerGuess</text>
</a>
</g>
</g>
<!-- Node1&#45;&gt;Node2 -->
<g id="edge1" class="edge">
<title>Node1&#45;&gt;Node2</title>
<path fill="none" stroke="midnightblue" d="M335.72,-11C327.04,-11 318.39,-11 310.11,-11"/>
<polygon fill="midnightblue" stroke="midnightblue" points="335.91,-14.5 345.91,-11 335.91,-7.5 335.91,-14.5"/>
</g>
<!-- Node3 -->
<g id="node3" class="node">
<title>Node3</title>
<g id="a_node3"><a xlink:href="class_game.html#a50b01080d0d7c5bfc317801a360c84ac" target="_top" xlink:title=" ">
<polygon fill="white" stroke="black" points="78,-0.5 78,-21.5 154,-21.5 154,-0.5 78,-0.5"/>
<text text-anchor="middle" x="116" y="-7.9" font-family="Helvetica,sans-Serif" font-size="12.00">Game::play</text>
</a>
</g>
</g>
<!-- Node2&#45;&gt;Node3 -->
<g id="edge2" class="edge">
<title>Node2&#45;&gt;Node3</title>
<path fill="none" stroke="midnightblue" d="M179.89,-11C170.98,-11 162.14,-11 154.03,-11"/>
<polygon fill="midnightblue" stroke="midnightblue" points="179.95,-14.5 189.95,-11 179.95,-7.5 179.95,-14.5"/>
</g>
<!-- Node4 -->
<g id="node4" class="node">
<title>Node4</title>
<g id="a_node4"><a xlink:href="_wordle_o_o_8cpp.html#ae66f6b31b5ad750f1fe042a706a4e3d4" target="_top" xlink:title=" ">
<polygon fill="white" stroke="black" points="0,-0.5 0,-21.5 42,-21.5 42,-0.5 0,-0.5"/>
<text text-anchor="middle" x="21" y="-7.9" font-family="Helvetica,sans-Serif" font-size="12.00">main</text>
</a>
</g>
</g>
<!-- Node3&#45;&gt;Node4 -->
<g id="edge3" class="edge">
<title>Node3&#45;&gt;Node4</title>
<path fill="none" stroke="midnightblue" d="M67.79,-11C58.71,-11 49.68,-11 42.06,-11"/>
<polygon fill="midnightblue" stroke="midnightblue" points="67.98,-14.5 77.98,-11 67.98,-7.5 67.98,-14.5"/>
</g>
</g>
</svg>
