<?xml version="1.0" encoding="UTF-8" standalone="no"?>
<!DOCTYPE svg PUBLIC "-//W3C//DTD SVG 1.1//EN"
 "http://www.w3.org/Graphics/SVG/1.1/DTD/svg11.dtd">
<!-- Generated by graphviz version 2.50.0 (20211204.2007)
 -->
<!-- Title: GuessWord Pages: 1 -->
<svg width="192pt" height="354pt"
 viewBox="0.00 0.00 191.50 354.00" xmlns="http://www.w3.org/2000/svg" xmlns:xlink="http://www.w3.org/1999/xlink">
<g id="graph0" class="graph" transform="scale(1 1) rotate(0) translate(4 350)">
<title>GuessWord</title>
<polygon fill="white" stroke="transparent" points="-4,4 -4,-350 187.5,-350 187.5,4 -4,4"/>
<!-- Node1 -->
<g id="node1" class="node">
<title>Node1</title>
<g id="a_node1"><a xlink:title=" ">
<polygon fill="#bfbfbf" stroke="black" points="0,-0.5 0,-128.5 173,-128.5 173,-0.5 0,-0.5"/>
<text text-anchor="middle" x="86.5" y="-114.9" font-family="Helvetica,sans-Serif" font-size="12.00">GuessWord</text>
<polyline fill="none" stroke="black" points="0,-107.5 173,-107.5 "/>
<text text-anchor="start" x="8" y="-93.9" font-family="Helvetica,sans-Serif" font-size="12.00">&#45; int wordLength</text>
<polyline fill="none" stroke="black" points="0,-86.5 173,-86.5 "/>
<text text-anchor="start" x="8" y="-72.9" font-family="Helvetica,sans-Serif" font-size="12.00">+ void setGuessCharacters</text>
<text text-anchor="start" x="8" y="-59.9" font-family="Helvetica,sans-Serif" font-size="12.00">(string guess, string</text>
<text text-anchor="start" x="8" y="-46.9" font-family="Helvetica,sans-Serif" font-size="12.00"> wordToFind)</text>
<text text-anchor="start" x="8" y="-33.9" font-family="Helvetica,sans-Serif" font-size="12.00">+ GuessCharacter * getGuess</text>
<text text-anchor="start" x="8" y="-20.9" font-family="Helvetica,sans-Serif" font-size="12.00">Characters()</text>
<text text-anchor="start" x="8" y="-7.9" font-family="Helvetica,sans-Serif" font-size="12.00">+ void display()</text>
</a>
</g>
</g>
<!-- Node2 -->
<g id="node2" class="node">
<title>Node2</title>
<g id="a_node2"><a xlink:href="class_guess_character.html" target="_top" xlink:title=" ">
<polygon fill="white" stroke="black" points="18,-178.5 18,-345.5 155,-345.5 155,-178.5 18,-178.5"/>
<text text-anchor="middle" x="86.5" y="-331.9" font-family="Helvetica,sans-Serif" font-size="12.00">GuessCharacter</text>
<polyline fill="none" stroke="black" points="18,-324.5 155,-324.5 "/>
<text text-anchor="start" x="26" y="-310.9" font-family="Helvetica,sans-Serif" font-size="12.00">&#45; char letter</text>
<text text-anchor="start" x="26" y="-297.9" font-family="Helvetica,sans-Serif" font-size="12.00">&#45; Status status</text>
<polyline fill="none" stroke="black" points="18,-290.5 155,-290.5 "/>
<text text-anchor="start" x="26" y="-276.9" font-family="Helvetica,sans-Serif" font-size="12.00">+ GuessCharacter()</text>
<text text-anchor="start" x="26" y="-263.9" font-family="Helvetica,sans-Serif" font-size="12.00">+ void displayChar()</text>
<text text-anchor="start" x="26" y="-250.9" font-family="Helvetica,sans-Serif" font-size="12.00">+ void setLetter(char</text>
<text text-anchor="start" x="26" y="-237.9" font-family="Helvetica,sans-Serif" font-size="12.00"> letter)</text>
<text text-anchor="start" x="26" y="-224.9" font-family="Helvetica,sans-Serif" font-size="12.00">+ void setStatus(Status</text>
<text text-anchor="start" x="26" y="-211.9" font-family="Helvetica,sans-Serif" font-size="12.00"> status)</text>
<text text-anchor="start" x="26" y="-198.9" font-family="Helvetica,sans-Serif" font-size="12.00">+ Status getStatus()</text>
<text text-anchor="start" x="26" y="-185.9" font-family="Helvetica,sans-Serif" font-size="12.00">+ char getLetter()</text>
</a>
</g>
</g>
<!-- Node2&#45;&gt;Node1 -->
<g id="edge1" class="edge">
<title>Node2&#45;&gt;Node1</title>
<path fill="none" stroke="#404040" d="M86.5,-178.37C86.5,-165.87 86.5,-153.02 86.5,-140.69"/>
<polygon fill="none" stroke="#404040" points="86.5,-140.55 82.5,-134.55 86.5,-128.55 90.5,-134.55 86.5,-140.55"/>
<text text-anchor="middle" x="135" y="-150.4" font-family="Helvetica,sans-Serif" font-size="12.00"> &#45;guessCharacters</text>
</g>
</g>
</svg>
