<?xml version="1.0" encoding="UTF-8" standalone="no"?>
<!DOCTYPE svg PUBLIC "-//W3C//DTD SVG 1.1//EN"
 "http://www.w3.org/Graphics/SVG/1.1/DTD/svg11.dtd">
<!-- Generated by graphviz version 2.50.0 (20211204.2007)
 -->
<!-- Title: Game::playerGuess Pages: 1 -->
<svg width="800pt" height="250pt"
 viewBox="0.00 0.00 800.00 250.00" xmlns="http://www.w3.org/2000/svg" xmlns:xlink="http://www.w3.org/1999/xlink">
<g id="graph0" class="graph" transform="scale(1 1) rotate(0) translate(4 246)">
<title>Game::playerGuess</title>
<polygon fill="white" stroke="transparent" points="-4,4 -4,-246 796,-246 796,4 -4,4"/>
<!-- Node1 -->
<g id="node1" class="node">
<title>Node1</title>
<g id="a_node1"><a xlink:title=" ">
<polygon fill="#bfbfbf" stroke="black" points="0,-40.5 0,-61.5 120,-61.5 120,-40.5 0,-40.5"/>
<text text-anchor="middle" x="60" y="-47.9" font-family="Helvetica,sans-Serif" font-size="12.00">Game::playerGuess</text>
</a>
</g>
</g>
<!-- Node2 -->
<g id="node2" class="node">
<title>Node2</title>
<g id="a_node2"><a xlink:href="class_game.html#a5e77f0c5ee41d17531e12de8211d8683" target="_top" xlink:title=" ">
<polygon fill="white" stroke="black" points="156,-100.5 156,-121.5 335,-121.5 335,-100.5 156,-100.5"/>
<text text-anchor="middle" x="245.5" y="-107.9" font-family="Helvetica,sans-Serif" font-size="12.00">Game::checkAndDisplayGuess</text>
</a>
</g>
</g>
<!-- Node1&#45;&gt;Node2 -->
<g id="edge1" class="edge">
<title>Node1&#45;&gt;Node2</title>
<path fill="none" stroke="midnightblue" d="M93.38,-61.59C123.69,-71.5 169.13,-86.36 202.27,-97.19"/>
<polygon fill="midnightblue" stroke="midnightblue" points="201.54,-100.64 212.13,-100.42 203.71,-93.98 201.54,-100.64"/>
</g>
<!-- Node12 -->
<g id="node12" class="node">
<title>Node12</title>
<g id="a_node12"><a xlink:href="class_game.html#a0fe1584b29f33bf17dd976447fc0f8ce" target="_top" xlink:title=" ">
<polygon fill="white" stroke="black" points="186,-40.5 186,-61.5 305,-61.5 305,-40.5 186,-40.5"/>
<text text-anchor="middle" x="245.5" y="-47.9" font-family="Helvetica,sans-Serif" font-size="12.00">Game::isValidWord</text>
</a>
</g>
</g>
<!-- Node1&#45;&gt;Node12 -->
<g id="edge11" class="edge">
<title>Node1&#45;&gt;Node12</title>
<path fill="none" stroke="midnightblue" d="M120.07,-51C137.84,-51 157.49,-51 175.82,-51"/>
<polygon fill="midnightblue" stroke="midnightblue" points="175.85,-54.5 185.85,-51 175.85,-47.5 175.85,-54.5"/>
</g>
<!-- Node14 -->
<g id="node14" class="node">
<title>Node14</title>
<g id="a_node14"><a xlink:href="class_game.html#af9f553e976692b1dbe351655ee5d1191" target="_top" xlink:title=" ">
<polygon fill="white" stroke="black" points="165,-0.5 165,-21.5 326,-21.5 326,-0.5 165,-0.5"/>
<text text-anchor="middle" x="245.5" y="-7.9" font-family="Helvetica,sans-Serif" font-size="12.00">Game::printAvailableLetters</text>
</a>
</g>
</g>
<!-- Node1&#45;&gt;Node14 -->
<g id="edge13" class="edge">
<title>Node1&#45;&gt;Node14</title>
<path fill="none" stroke="midnightblue" d="M109.21,-40.49C132.82,-35.34 161.44,-29.1 186.27,-23.69"/>
<polygon fill="midnightblue" stroke="midnightblue" points="187.27,-27.06 196.29,-21.51 185.78,-20.22 187.27,-27.06"/>
</g>
<!-- Node3 -->
<g id="node3" class="node">
<title>Node3</title>
<g id="a_node3"><a xlink:href="class_guess_word.html#a0b8dc3f491b390b645b6c3edd15b355e" target="_top" xlink:title=" ">
<polygon fill="white" stroke="black" points="406,-200.5 406,-221.5 528,-221.5 528,-200.5 406,-200.5"/>
<text text-anchor="middle" x="467" y="-207.9" font-family="Helvetica,sans-Serif" font-size="12.00">GuessWord::display</text>
</a>
</g>
</g>
<!-- Node2&#45;&gt;Node3 -->
<g id="edge2" class="edge">
<title>Node2&#45;&gt;Node3</title>
<path fill="none" stroke="midnightblue" d="M267.49,-121.52C292.12,-133.76 334.26,-154.42 371,-171 390.54,-179.82 412.6,-189.14 430.54,-196.57"/>
<polygon fill="midnightblue" stroke="midnightblue" points="429.46,-199.91 440.04,-200.48 432.13,-193.44 429.46,-199.91"/>
</g>
<!-- Node5 -->
<g id="node5" class="node">
<title>Node5</title>
<g id="a_node5"><a xlink:href="class_game.html#aaa8ee9358c0268b758fa6b93a0cc6c2f" target="_top" xlink:title=" ">
<polygon fill="white" stroke="black" points="374,-140.5 374,-161.5 560,-161.5 560,-140.5 374,-140.5"/>
<text text-anchor="middle" x="467" y="-147.9" font-family="Helvetica,sans-Serif" font-size="12.00">Game::setAvailableWordsStatus</text>
</a>
</g>
</g>
<!-- Node2&#45;&gt;Node5 -->
<g id="edge4" class="edge">
<title>Node2&#45;&gt;Node5</title>
<path fill="none" stroke="midnightblue" d="M304.17,-121.51C333.04,-126.77 368.18,-133.17 398.32,-138.67"/>
<polygon fill="midnightblue" stroke="midnightblue" points="397.87,-142.14 408.33,-140.49 399.12,-135.26 397.87,-142.14"/>
</g>
<!-- Node8 -->
<g id="node8" class="node">
<title>Node8</title>
<g id="a_node8"><a xlink:href="class_guess_word.html#a158140ba0693b2e09d3066b1c0145119" target="_top" xlink:title=" ">
<polygon fill="white" stroke="black" points="371,-100.5 371,-121.5 563,-121.5 563,-100.5 371,-100.5"/>
<text text-anchor="middle" x="467" y="-107.9" font-family="Helvetica,sans-Serif" font-size="12.00">GuessWord::setGuessCharacters</text>
</a>
</g>
</g>
<!-- Node2&#45;&gt;Node8 -->
<g id="edge7" class="edge">
<title>Node2&#45;&gt;Node8</title>
<path fill="none" stroke="midnightblue" d="M335.15,-111C343.61,-111 352.25,-111 360.86,-111"/>
<polygon fill="midnightblue" stroke="midnightblue" points="360.92,-114.5 370.92,-111 360.92,-107.5 360.92,-114.5"/>
</g>
<!-- Node11 -->
<g id="node11" class="node">
<title>Node11</title>
<g id="a_node11"><a xlink:href="class_game.html#add1f07beb90c3a85e640bf343f2f3cda" target="_top" xlink:title=" ">
<polygon fill="white" stroke="black" points="392,-60.5 392,-81.5 542,-81.5 542,-60.5 392,-60.5"/>
<text text-anchor="middle" x="467" y="-67.9" font-family="Helvetica,sans-Serif" font-size="12.00">Game::welcomeMessage</text>
</a>
</g>
</g>
<!-- Node2&#45;&gt;Node11 -->
<g id="edge10" class="edge">
<title>Node2&#45;&gt;Node11</title>
<path fill="none" stroke="midnightblue" d="M304.17,-100.49C333.04,-95.23 368.18,-88.83 398.32,-83.33"/>
<polygon fill="midnightblue" stroke="midnightblue" points="399.12,-86.74 408.33,-81.51 397.87,-79.86 399.12,-86.74"/>
</g>
<!-- Node4 -->
<g id="node4" class="node">
<title>Node4</title>
<g id="a_node4"><a xlink:href="class_guess_character.html#ac7a6b5befd4b2808249349cf65300a49" target="_top" xlink:title=" ">
<polygon fill="white" stroke="black" points="610.5,-220.5 610.5,-241.5 780.5,-241.5 780.5,-220.5 610.5,-220.5"/>
<text text-anchor="middle" x="695.5" y="-227.9" font-family="Helvetica,sans-Serif" font-size="12.00">GuessCharacter::displayChar</text>
</a>
</g>
</g>
<!-- Node3&#45;&gt;Node4 -->
<g id="edge3" class="edge">
<title>Node3&#45;&gt;Node4</title>
<path fill="none" stroke="midnightblue" d="M528.1,-216.31C550.22,-218.26 575.83,-220.52 600.24,-222.68"/>
<polygon fill="midnightblue" stroke="midnightblue" points="599.97,-226.17 610.24,-223.56 600.59,-219.19 599.97,-226.17"/>
</g>
<!-- Node6 -->
<g id="node6" class="node">
<title>Node6</title>
<g id="a_node6"><a xlink:href="class_guess_word.html#a10dbff1cdd81fe3d38e71f5d2552992d" target="_top" xlink:title=" ">
<polygon fill="white" stroke="black" points="599,-180.5 599,-201.5 792,-201.5 792,-180.5 599,-180.5"/>
<text text-anchor="middle" x="695.5" y="-187.9" font-family="Helvetica,sans-Serif" font-size="12.00">GuessWord::getGuessCharacters</text>
</a>
</g>
</g>
<!-- Node5&#45;&gt;Node6 -->
<g id="edge5" class="edge">
<title>Node5&#45;&gt;Node6</title>
<path fill="none" stroke="midnightblue" d="M527.51,-161.51C557.43,-166.79 593.87,-173.23 625.07,-178.74"/>
<polygon fill="midnightblue" stroke="midnightblue" points="624.54,-182.2 634.99,-180.49 625.76,-175.31 624.54,-182.2"/>
</g>
<!-- Node7 -->
<g id="node7" class="node">
<title>Node7</title>
<g id="a_node7"><a xlink:href="class_guess_character.html#ab10296cd0c254c4273e6f7f2fed84101" target="_top" xlink:title=" ">
<polygon fill="white" stroke="black" points="618,-140.5 618,-161.5 773,-161.5 773,-140.5 618,-140.5"/>
<text text-anchor="middle" x="695.5" y="-147.9" font-family="Helvetica,sans-Serif" font-size="12.00">GuessCharacter::getLetter</text>
</a>
</g>
</g>
<!-- Node5&#45;&gt;Node7 -->
<g id="edge6" class="edge">
<title>Node5&#45;&gt;Node7</title>
<path fill="none" stroke="midnightblue" d="M560.13,-151C575.8,-151 592.03,-151 607.57,-151"/>
<polygon fill="midnightblue" stroke="midnightblue" points="607.66,-154.5 617.66,-151 607.66,-147.5 607.66,-154.5"/>
</g>
<!-- Node9 -->
<g id="node9" class="node">
<title>Node9</title>
<g id="a_node9"><a xlink:href="class_guess_character.html#a2c4ca4daff3ffad0d2b515e1e52ce775" target="_top" xlink:title=" ">
<polygon fill="white" stroke="black" points="618.5,-100.5 618.5,-121.5 772.5,-121.5 772.5,-100.5 618.5,-100.5"/>
<text text-anchor="middle" x="695.5" y="-107.9" font-family="Helvetica,sans-Serif" font-size="12.00">GuessCharacter::setLetter</text>
</a>
</g>
</g>
<!-- Node8&#45;&gt;Node9 -->
<g id="edge8" class="edge">
<title>Node8&#45;&gt;Node9</title>
<path fill="none" stroke="midnightblue" d="M563.07,-111C578.02,-111 593.41,-111 608.15,-111"/>
<polygon fill="midnightblue" stroke="midnightblue" points="608.24,-114.5 618.24,-111 608.24,-107.5 608.24,-114.5"/>
</g>
<!-- Node10 -->
<g id="node10" class="node">
<title>Node10</title>
<g id="a_node10"><a xlink:href="class_guess_character.html#abf94f0f4d1d8fcae335a00b74bd13236" target="_top" xlink:title=" ">
<polygon fill="white" stroke="black" points="617,-60.5 617,-81.5 774,-81.5 774,-60.5 617,-60.5"/>
<text text-anchor="middle" x="695.5" y="-67.9" font-family="Helvetica,sans-Serif" font-size="12.00">GuessCharacter::setStatus</text>
</a>
</g>
</g>
<!-- Node8&#45;&gt;Node10 -->
<g id="edge9" class="edge">
<title>Node8&#45;&gt;Node10</title>
<path fill="none" stroke="midnightblue" d="M527.51,-100.49C557.43,-95.21 593.87,-88.77 625.07,-83.26"/>
<polygon fill="midnightblue" stroke="midnightblue" points="625.76,-86.69 634.99,-81.51 624.54,-79.8 625.76,-86.69"/>
</g>
<!-- Node13 -->
<g id="node13" class="node">
<title>Node13</title>
<g id="a_node13"><a xlink:href="class_game.html#ac2d21bf44a3e68ac01b522171bb67bcb" target="_top" xlink:title=" ">
<polygon fill="white" stroke="black" points="381.5,-20.5 381.5,-41.5 552.5,-41.5 552.5,-20.5 381.5,-20.5"/>
<text text-anchor="middle" x="467" y="-27.9" font-family="Helvetica,sans-Serif" font-size="12.00">Game::binarySearchWordList</text>
</a>
</g>
</g>
<!-- Node12&#45;&gt;Node13 -->
<g id="edge12" class="edge">
<title>Node12&#45;&gt;Node13</title>
<path fill="none" stroke="midnightblue" d="M305.03,-45.67C325.3,-43.82 348.57,-41.7 371,-39.66"/>
<polygon fill="midnightblue" stroke="midnightblue" points="371.59,-43.12 381.23,-38.72 370.95,-36.15 371.59,-43.12"/>
</g>
</g>
</svg>
