<?xml version="1.0" encoding="UTF-8" standalone="no"?>
<!DOCTYPE svg PUBLIC "-//W3C//DTD SVG 1.1//EN"
 "http://www.w3.org/Graphics/SVG/1.1/DTD/svg11.dtd">
<!-- Generated by graphviz version 2.50.0 (20211204.2007)
 -->
<!-- Title: Game::checkAndDisplayGuess Pages: 1 -->
<svg width="621pt" height="110pt"
 viewBox="0.00 0.00 621.00 110.00" xmlns="http://www.w3.org/2000/svg" xmlns:xlink="http://www.w3.org/1999/xlink">
<g id="graph0" class="graph" transform="scale(1 1) rotate(0) translate(4 106)">
<title>Game::checkAndDisplayGuess</title>
<polygon fill="white" stroke="transparent" points="-4,4 -4,-106 617,-106 617,4 -4,4"/>
<!-- Node1 -->
<g id="node1" class="node">
<title>Node1</title>
<g id="a_node1"><a xlink:title=" ">
<polygon fill="#bfbfbf" stroke="black" points="0,-40.5 0,-61.5 179,-61.5 179,-40.5 0,-40.5"/>
<text text-anchor="middle" x="89.5" y="-47.9" font-family="Helvetica,sans-Serif" font-size="12.00">Game::checkAndDisplayGuess</text>
</a>
</g>
</g>
<!-- Node2 -->
<g id="node2" class="node">
<title>Node2</title>
<g id="a_node2"><a xlink:href="class_guess_word.html#a0b8dc3f491b390b645b6c3edd15b355e" target="_top" xlink:title=" ">
<polygon fill="white" stroke="black" points="250,-80.5 250,-101.5 372,-101.5 372,-80.5 250,-80.5"/>
<text text-anchor="middle" x="311" y="-87.9" font-family="Helvetica,sans-Serif" font-size="12.00">GuessWord::display</text>
</a>
</g>
</g>
<!-- Node1&#45;&gt;Node2 -->
<g id="edge1" class="edge">
<title>Node1&#45;&gt;Node2</title>
<path fill="none" stroke="midnightblue" d="M148.17,-61.51C177.04,-66.77 212.18,-73.17 242.32,-78.67"/>
<polygon fill="midnightblue" stroke="midnightblue" points="241.87,-82.14 252.33,-80.49 243.12,-75.26 241.87,-82.14"/>
</g>
<!-- Node4 -->
<g id="node4" class="node">
<title>Node4</title>
<g id="a_node4"><a xlink:href="class_guess_word.html#a158140ba0693b2e09d3066b1c0145119" target="_top" xlink:title=" ">
<polygon fill="white" stroke="black" points="215,-40.5 215,-61.5 407,-61.5 407,-40.5 215,-40.5"/>
<text text-anchor="middle" x="311" y="-47.9" font-family="Helvetica,sans-Serif" font-size="12.00">GuessWord::setGuessCharacters</text>
</a>
</g>
</g>
<!-- Node1&#45;&gt;Node4 -->
<g id="edge3" class="edge">
<title>Node1&#45;&gt;Node4</title>
<path fill="none" stroke="midnightblue" d="M179.15,-51C187.61,-51 196.25,-51 204.86,-51"/>
<polygon fill="midnightblue" stroke="midnightblue" points="204.92,-54.5 214.92,-51 204.92,-47.5 204.92,-54.5"/>
</g>
<!-- Node7 -->
<g id="node7" class="node">
<title>Node7</title>
<g id="a_node7"><a xlink:href="class_game.html#add1f07beb90c3a85e640bf343f2f3cda" target="_top" xlink:title=" ">
<polygon fill="white" stroke="black" points="236,-0.5 236,-21.5 386,-21.5 386,-0.5 236,-0.5"/>
<text text-anchor="middle" x="311" y="-7.9" font-family="Helvetica,sans-Serif" font-size="12.00">Game::welcomeMessage</text>
</a>
</g>
</g>
<!-- Node1&#45;&gt;Node7 -->
<g id="edge6" class="edge">
<title>Node1&#45;&gt;Node7</title>
<path fill="none" stroke="midnightblue" d="M148.17,-40.49C177.04,-35.23 212.18,-28.83 242.32,-23.33"/>
<polygon fill="midnightblue" stroke="midnightblue" points="243.12,-26.74 252.33,-21.51 241.87,-19.86 243.12,-26.74"/>
</g>
<!-- Node3 -->
<g id="node3" class="node">
<title>Node3</title>
<g id="a_node3"><a xlink:href="class_guess_character.html#ac7a6b5befd4b2808249349cf65300a49" target="_top" xlink:title=" ">
<polygon fill="white" stroke="black" points="443,-80.5 443,-101.5 613,-101.5 613,-80.5 443,-80.5"/>
<text text-anchor="middle" x="528" y="-87.9" font-family="Helvetica,sans-Serif" font-size="12.00">GuessCharacter::displayChar</text>
</a>
</g>
</g>
<!-- Node2&#45;&gt;Node3 -->
<g id="edge2" class="edge">
<title>Node2&#45;&gt;Node3</title>
<path fill="none" stroke="midnightblue" d="M372.18,-91C390.96,-91 412.16,-91 432.71,-91"/>
<polygon fill="midnightblue" stroke="midnightblue" points="432.73,-94.5 442.73,-91 432.73,-87.5 432.73,-94.5"/>
</g>
<!-- Node5 -->
<g id="node5" class="node">
<title>Node5</title>
<g id="a_node5"><a xlink:href="class_guess_character.html#a2c4ca4daff3ffad0d2b515e1e52ce775" target="_top" xlink:title=" ">
<polygon fill="white" stroke="black" points="451,-40.5 451,-61.5 605,-61.5 605,-40.5 451,-40.5"/>
<text text-anchor="middle" x="528" y="-47.9" font-family="Helvetica,sans-Serif" font-size="12.00">GuessCharacter::setLetter</text>
</a>
</g>
</g>
<!-- Node4&#45;&gt;Node5 -->
<g id="edge4" class="edge">
<title>Node4&#45;&gt;Node5</title>
<path fill="none" stroke="midnightblue" d="M407.24,-51C418.42,-51 429.78,-51 440.82,-51"/>
<polygon fill="midnightblue" stroke="midnightblue" points="440.87,-54.5 450.87,-51 440.87,-47.5 440.87,-54.5"/>
</g>
<!-- Node6 -->
<g id="node6" class="node">
<title>Node6</title>
<g id="a_node6"><a xlink:href="class_guess_character.html#af7a35441a9c05a8b280ad1d28b2ebc27" target="_top" xlink:title=" ">
<polygon fill="white" stroke="black" points="452.5,-0.5 452.5,-21.5 603.5,-21.5 603.5,-0.5 452.5,-0.5"/>
<text text-anchor="middle" x="528" y="-7.9" font-family="Helvetica,sans-Serif" font-size="12.00">GuessCharacter::setStats</text>
</a>
</g>
</g>
<!-- Node4&#45;&gt;Node6 -->
<g id="edge5" class="edge">
<title>Node4&#45;&gt;Node6</title>
<path fill="none" stroke="midnightblue" d="M368.49,-40.49C396.65,-35.25 430.88,-28.88 460.32,-23.41"/>
<polygon fill="midnightblue" stroke="midnightblue" points="461.32,-26.78 470.52,-21.51 460.04,-19.9 461.32,-26.78"/>
</g>
</g>
</svg>
