<?xml version="1.0" encoding="UTF-8" standalone="no"?>
<!DOCTYPE svg PUBLIC "-//W3C//DTD SVG 1.1//EN"
 "http://www.w3.org/Graphics/SVG/1.1/DTD/svg11.dtd">
<!-- Generated by graphviz version 2.50.0 (20211204.2007)
 -->
<!-- Title: Game Pages: 1 -->
<svg width="155pt" height="430pt"
 viewBox="0.00 0.00 154.50 430.00" xmlns="http://www.w3.org/2000/svg" xmlns:xlink="http://www.w3.org/1999/xlink">
<g id="graph0" class="graph" transform="scale(1 1) rotate(0) translate(4 426)">
<title>Game</title>
<polygon fill="white" stroke="transparent" points="-4,4 -4,-426 150.5,-426 150.5,4 -4,4"/>
<!-- Node1 -->
<g id="node1" class="node">
<title>Node1</title>
<g id="a_node1"><a xlink:title=" ">
<polygon fill="#bfbfbf" stroke="black" points="0,-0.5 0,-156.5 133,-156.5 133,-0.5 0,-0.5"/>
<text text-anchor="middle" x="66.5" y="-144.5" font-family="Helvetica,sans-Serif" font-size="10.00">Game</text>
<polyline fill="none" stroke="black" points="0,-137.5 133,-137.5 "/>
<text text-anchor="start" x="8" y="-125.5" font-family="Helvetica,sans-Serif" font-size="10.00">&#45; wordList</text>
<text text-anchor="start" x="8" y="-114.5" font-family="Helvetica,sans-Serif" font-size="10.00">&#45; wordToFind</text>
<text text-anchor="start" x="8" y="-103.5" font-family="Helvetica,sans-Serif" font-size="10.00">&#45; turn</text>
<polyline fill="none" stroke="black" points="0,-96.5 133,-96.5 "/>
<text text-anchor="start" x="8" y="-84.5" font-family="Helvetica,sans-Serif" font-size="10.00">+ play()</text>
<text text-anchor="start" x="8" y="-73.5" font-family="Helvetica,sans-Serif" font-size="10.00">&#45; populateWordList()</text>
<text text-anchor="start" x="8" y="-62.5" font-family="Helvetica,sans-Serif" font-size="10.00">&#45; binarySearchWordList()</text>
<text text-anchor="start" x="8" y="-51.5" font-family="Helvetica,sans-Serif" font-size="10.00">&#45; isValidWord()</text>
<text text-anchor="start" x="8" y="-40.5" font-family="Helvetica,sans-Serif" font-size="10.00">&#45; selectWord()</text>
<text text-anchor="start" x="8" y="-29.5" font-family="Helvetica,sans-Serif" font-size="10.00">&#45; welcomeMessage()</text>
<text text-anchor="start" x="8" y="-18.5" font-family="Helvetica,sans-Serif" font-size="10.00">&#45; checkAndDisplayGuess()</text>
<text text-anchor="start" x="8" y="-7.5" font-family="Helvetica,sans-Serif" font-size="10.00">&#45; playerGuess()</text>
</a>
</g>
</g>
<!-- Node2 -->
<g id="node2" class="node">
<title>Node2</title>
<g id="a_node2"><a xlink:href="class_guess_word.html" target="_top" xlink:title=" ">
<polygon fill="white" stroke="black" points="6,-204.5 6,-272.5 127,-272.5 127,-204.5 6,-204.5"/>
<text text-anchor="middle" x="66.5" y="-260.5" font-family="Helvetica,sans-Serif" font-size="10.00">GuessWord</text>
<polyline fill="none" stroke="black" points="6,-253.5 127,-253.5 "/>
<text text-anchor="middle" x="66.5" y="-241.5" font-family="Helvetica,sans-Serif" font-size="10.00"> </text>
<polyline fill="none" stroke="black" points="6,-234.5 127,-234.5 "/>
<text text-anchor="start" x="14" y="-222.5" font-family="Helvetica,sans-Serif" font-size="10.00">+ setGuessCharacters()</text>
<text text-anchor="start" x="14" y="-211.5" font-family="Helvetica,sans-Serif" font-size="10.00">+ display()</text>
</a>
</g>
</g>
<!-- Node2&#45;&gt;Node1 -->
<g id="edge1" class="edge">
<title>Node2&#45;&gt;Node1</title>
<path fill="none" stroke="#404040" d="M66.5,-204.38C66.5,-193.75 66.5,-181.42 66.5,-168.74"/>
<polygon fill="none" stroke="#404040" points="66.5,-168.52 62.5,-162.52 66.5,-156.52 70.5,-162.52 66.5,-168.52"/>
<text text-anchor="middle" x="97" y="-178" font-family="Helvetica,sans-Serif" font-size="10.00"> &#45;guessWords</text>
</g>
<!-- Node3 -->
<g id="node3" class="node">
<title>Node3</title>
<g id="a_node3"><a xlink:href="class_guess_character.html" target="_top" xlink:title=" ">
<polygon fill="white" stroke="black" points="15.5,-320.5 15.5,-421.5 117.5,-421.5 117.5,-320.5 15.5,-320.5"/>
<text text-anchor="middle" x="66.5" y="-409.5" font-family="Helvetica,sans-Serif" font-size="10.00">GuessCharacter</text>
<polyline fill="none" stroke="black" points="15.5,-402.5 117.5,-402.5 "/>
<text text-anchor="start" x="23.5" y="-390.5" font-family="Helvetica,sans-Serif" font-size="10.00">&#45; letter</text>
<text text-anchor="start" x="23.5" y="-379.5" font-family="Helvetica,sans-Serif" font-size="10.00">&#45; status</text>
<polyline fill="none" stroke="black" points="15.5,-372.5 117.5,-372.5 "/>
<text text-anchor="start" x="23.5" y="-360.5" font-family="Helvetica,sans-Serif" font-size="10.00">+ GuessCharacter()</text>
<text text-anchor="start" x="23.5" y="-349.5" font-family="Helvetica,sans-Serif" font-size="10.00">+ displayChar()</text>
<text text-anchor="start" x="23.5" y="-338.5" font-family="Helvetica,sans-Serif" font-size="10.00">+ setLetter()</text>
<text text-anchor="start" x="23.5" y="-327.5" font-family="Helvetica,sans-Serif" font-size="10.00">+ setStats()</text>
</a>
</g>
</g>
<!-- Node3&#45;&gt;Node2 -->
<g id="edge2" class="edge">
<title>Node3&#45;&gt;Node2</title>
<path fill="none" stroke="#404040" d="M66.5,-320.29C66.5,-308.55 66.5,-296.09 66.5,-284.57"/>
<polygon fill="none" stroke="#404040" points="66.5,-284.51 62.5,-278.51 66.5,-272.51 70.5,-278.51 66.5,-284.51"/>
<text text-anchor="middle" x="106.5" y="-294" font-family="Helvetica,sans-Serif" font-size="10.00"> &#45;guessCharacters</text>
</g>
</g>
</svg>
