<?xml version="1.0" encoding="UTF-8" standalone="no"?>
<!DOCTYPE svg PUBLIC "-//W3C//DTD SVG 1.1//EN"
 "http://www.w3.org/Graphics/SVG/1.1/DTD/svg11.dtd">
<!-- Generated by graphviz version 2.50.0 (20211204.2007)
 -->
<!-- Title: Game::play Pages: 1 -->
<svg width="939pt" height="204pt"
 viewBox="0.00 0.00 939.00 204.00" xmlns="http://www.w3.org/2000/svg" xmlns:xlink="http://www.w3.org/1999/xlink">
<g id="graph0" class="graph" transform="scale(1 1) rotate(0) translate(4 200)">
<title>Game::play</title>
<polygon fill="white" stroke="transparent" points="-4,4 -4,-200 935,-200 935,4 -4,4"/>
<!-- Node1 -->
<g id="node1" class="node">
<title>Node1</title>
<g id="a_node1"><a xlink:title=" ">
<polygon fill="#bfbfbf" stroke="black" points="0,-64.5 0,-85.5 76,-85.5 76,-64.5 0,-64.5"/>
<text text-anchor="middle" x="38" y="-71.9" font-family="Helvetica,sans-Serif" font-size="12.00">Game::play</text>
</a>
</g>
</g>
<!-- Node2 -->
<g id="node2" class="node">
<title>Node2</title>
<g id="a_node2"><a xlink:href="class_game.html#a44e9cbf9c4f376e31a83ca6179f0ca38" target="_top" xlink:title=" ">
<polygon fill="white" stroke="black" points="125.5,-84.5 125.5,-105.5 245.5,-105.5 245.5,-84.5 125.5,-84.5"/>
<text text-anchor="middle" x="185.5" y="-91.9" font-family="Helvetica,sans-Serif" font-size="12.00">Game::playerGuess</text>
</a>
</g>
</g>
<!-- Node1&#45;&gt;Node2 -->
<g id="edge1" class="edge">
<title>Node1&#45;&gt;Node2</title>
<path fill="none" stroke="midnightblue" d="M76.09,-80.1C88.03,-81.74 101.68,-83.62 115.17,-85.47"/>
<polygon fill="midnightblue" stroke="midnightblue" points="115.04,-88.98 125.42,-86.88 115.99,-82.05 115.04,-88.98"/>
</g>
<!-- Node12 -->
<g id="node12" class="node">
<title>Node12</title>
<g id="a_node12"><a xlink:href="class_game.html#add1f07beb90c3a85e640bf343f2f3cda" target="_top" xlink:title=" ">
<polygon fill="white" stroke="black" points="531,-174.5 531,-195.5 681,-195.5 681,-174.5 531,-174.5"/>
<text text-anchor="middle" x="606" y="-181.9" font-family="Helvetica,sans-Serif" font-size="12.00">Game::welcomeMessage</text>
</a>
</g>
</g>
<!-- Node1&#45;&gt;Node12 -->
<g id="edge17" class="edge">
<title>Node1&#45;&gt;Node12</title>
<path fill="none" stroke="midnightblue" d="M54.47,-85.64C68.75,-94.93 90.88,-107.97 112,-115 250.59,-161.1 420.97,-176.84 520.82,-182.22"/>
<polygon fill="midnightblue" stroke="midnightblue" points="520.69,-185.71 530.86,-182.73 521.05,-178.72 520.69,-185.71"/>
</g>
<!-- Node16 -->
<g id="node16" class="node">
<title>Node16</title>
<g id="a_node16"><a xlink:href="class_game.html#aff845e992fb69e1c2c7f749e8786699c" target="_top" xlink:title=" ">
<polygon fill="white" stroke="black" points="112,-44.5 112,-65.5 259,-65.5 259,-44.5 112,-44.5"/>
<text text-anchor="middle" x="185.5" y="-51.9" font-family="Helvetica,sans-Serif" font-size="12.00">Game::populateWordList</text>
</a>
</g>
</g>
<!-- Node1&#45;&gt;Node16 -->
<g id="edge15" class="edge">
<title>Node1&#45;&gt;Node16</title>
<path fill="none" stroke="midnightblue" d="M76.09,-69.9C84.04,-68.81 92.75,-67.61 101.67,-66.39"/>
<polygon fill="midnightblue" stroke="midnightblue" points="102.36,-69.82 111.79,-64.99 101.4,-62.89 102.36,-69.82"/>
</g>
<!-- Node17 -->
<g id="node17" class="node">
<title>Node17</title>
<g id="a_node17"><a xlink:href="class_game.html#a5872e5f53336a95489970a67d15d5dc0" target="_top" xlink:title=" ">
<polygon fill="white" stroke="black" points="128.5,-4.5 128.5,-25.5 242.5,-25.5 242.5,-4.5 128.5,-4.5"/>
<text text-anchor="middle" x="185.5" y="-11.9" font-family="Helvetica,sans-Serif" font-size="12.00">Game::selectWord</text>
</a>
</g>
</g>
<!-- Node1&#45;&gt;Node17 -->
<g id="edge16" class="edge">
<title>Node1&#45;&gt;Node17</title>
<path fill="none" stroke="midnightblue" d="M55.56,-64.47C70.01,-55.64 91.78,-43.2 112,-35 117.8,-32.65 123.96,-30.48 130.16,-28.5"/>
<polygon fill="midnightblue" stroke="midnightblue" points="131.31,-31.81 139.86,-25.56 129.28,-25.11 131.31,-31.81"/>
</g>
<!-- Node3 -->
<g id="node3" class="node">
<title>Node3</title>
<g id="a_node3"><a xlink:href="class_game.html#a5e77f0c5ee41d17531e12de8211d8683" target="_top" xlink:title=" ">
<polygon fill="white" stroke="black" points="295,-104.5 295,-125.5 474,-125.5 474,-104.5 295,-104.5"/>
<text text-anchor="middle" x="384.5" y="-111.9" font-family="Helvetica,sans-Serif" font-size="12.00">Game::checkAndDisplayGuess</text>
</a>
</g>
</g>
<!-- Node2&#45;&gt;Node3 -->
<g id="edge2" class="edge">
<title>Node2&#45;&gt;Node3</title>
<path fill="none" stroke="midnightblue" d="M245.61,-101C257.98,-102.26 271.35,-103.61 284.72,-104.97"/>
<polygon fill="midnightblue" stroke="midnightblue" points="284.63,-108.48 294.93,-106.01 285.33,-101.52 284.63,-108.48"/>
</g>
<!-- Node13 -->
<g id="node13" class="node">
<title>Node13</title>
<g id="a_node13"><a xlink:href="class_game.html#a0fe1584b29f33bf17dd976447fc0f8ce" target="_top" xlink:title=" ">
<polygon fill="white" stroke="black" points="325,-17.5 325,-38.5 444,-38.5 444,-17.5 325,-17.5"/>
<text text-anchor="middle" x="384.5" y="-24.9" font-family="Helvetica,sans-Serif" font-size="12.00">Game::isValidWord</text>
</a>
</g>
</g>
<!-- Node2&#45;&gt;Node13 -->
<g id="edge12" class="edge">
<title>Node2&#45;&gt;Node13</title>
<path fill="none" stroke="midnightblue" d="M231.15,-84.48C240.49,-81.78 250.18,-78.61 259,-75 275.94,-68.07 278.15,-62.15 295,-55 306.9,-49.95 320.07,-45.4 332.52,-41.55"/>
<polygon fill="midnightblue" stroke="midnightblue" points="333.75,-44.83 342.33,-38.6 331.74,-38.13 333.75,-44.83"/>
</g>
<!-- Node15 -->
<g id="node15" class="node">
<title>Node15</title>
<g id="a_node15"><a xlink:href="class_game.html#af9f553e976692b1dbe351655ee5d1191" target="_top" xlink:title=" ">
<polygon fill="white" stroke="black" points="304,-64.5 304,-85.5 465,-85.5 465,-64.5 304,-64.5"/>
<text text-anchor="middle" x="384.5" y="-71.9" font-family="Helvetica,sans-Serif" font-size="12.00">Game::printAvailableLetters</text>
</a>
</g>
</g>
<!-- Node2&#45;&gt;Node15 -->
<g id="edge14" class="edge">
<title>Node2&#45;&gt;Node15</title>
<path fill="none" stroke="midnightblue" d="M245.61,-89C260.72,-87.47 277.31,-85.78 293.59,-84.13"/>
<polygon fill="midnightblue" stroke="midnightblue" points="294.07,-87.6 303.66,-83.11 293.36,-80.63 294.07,-87.6"/>
</g>
<!-- Node4 -->
<g id="node4" class="node">
<title>Node4</title>
<g id="a_node4"><a xlink:href="class_guess_word.html#a0b8dc3f491b390b645b6c3edd15b355e" target="_top" xlink:title=" ">
<polygon fill="white" stroke="black" points="545,-94.5 545,-115.5 667,-115.5 667,-94.5 545,-94.5"/>
<text text-anchor="middle" x="606" y="-101.9" font-family="Helvetica,sans-Serif" font-size="12.00">GuessWord::display</text>
</a>
</g>
</g>
<!-- Node3&#45;&gt;Node4 -->
<g id="edge3" class="edge">
<title>Node3&#45;&gt;Node4</title>
<path fill="none" stroke="midnightblue" d="M474.15,-110.96C494.32,-110.04 515.48,-109.08 534.76,-108.2"/>
<polygon fill="midnightblue" stroke="midnightblue" points="535.13,-111.69 544.96,-107.74 534.81,-104.69 535.13,-111.69"/>
</g>
<!-- Node6 -->
<g id="node6" class="node">
<title>Node6</title>
<g id="a_node6"><a xlink:href="class_game.html#a1aa22be99a91aa5c7752bb49641bbf30" target="_top" xlink:title=" ">
<polygon fill="white" stroke="black" points="531.5,-41 531.5,-75 680.5,-75 680.5,-41 531.5,-41"/>
<text text-anchor="start" x="539.5" y="-61.4" font-family="Helvetica,sans-Serif" font-size="12.00">Game::setAvailableLetter</text>
<text text-anchor="middle" x="606" y="-48.4" font-family="Helvetica,sans-Serif" font-size="12.00">Status</text>
</a>
</g>
</g>
<!-- Node3&#45;&gt;Node6 -->
<g id="edge5" class="edge">
<title>Node3&#45;&gt;Node6</title>
<path fill="none" stroke="midnightblue" d="M434.3,-104.46C447.24,-101.53 461.18,-98.26 474,-95 477.38,-94.14 505.54,-86.19 534.89,-77.88"/>
<polygon fill="midnightblue" stroke="midnightblue" points="536.19,-81.16 544.86,-75.06 534.28,-74.42 536.19,-81.16"/>
</g>
<!-- Node9 -->
<g id="node9" class="node">
<title>Node9</title>
<g id="a_node9"><a xlink:href="class_guess_word.html#a158140ba0693b2e09d3066b1c0145119" target="_top" xlink:title=" ">
<polygon fill="white" stroke="black" points="510,-134.5 510,-155.5 702,-155.5 702,-134.5 510,-134.5"/>
<text text-anchor="middle" x="606" y="-141.9" font-family="Helvetica,sans-Serif" font-size="12.00">GuessWord::setGuessCharacters</text>
</a>
</g>
</g>
<!-- Node3&#45;&gt;Node9 -->
<g id="edge8" class="edge">
<title>Node3&#45;&gt;Node9</title>
<path fill="none" stroke="midnightblue" d="M462.58,-125.53C480.51,-127.98 499.71,-130.61 518.03,-133.11"/>
<polygon fill="midnightblue" stroke="midnightblue" points="517.72,-136.6 528.11,-134.49 518.67,-129.67 517.72,-136.6"/>
</g>
<!-- Node3&#45;&gt;Node12 -->
<g id="edge11" class="edge">
<title>Node3&#45;&gt;Node12</title>
<path fill="none" stroke="midnightblue" d="M408.47,-125.64C433.13,-136.72 473.67,-153.97 510,-165 518.71,-167.64 527.96,-170.06 537.15,-172.23"/>
<polygon fill="midnightblue" stroke="midnightblue" points="536.54,-175.68 547.07,-174.49 538.1,-168.85 536.54,-175.68"/>
</g>
<!-- Node5 -->
<g id="node5" class="node">
<title>Node5</title>
<g id="a_node5"><a xlink:href="class_guess_character.html#ac7a6b5befd4b2808249349cf65300a49" target="_top" xlink:title=" ">
<polygon fill="white" stroke="black" points="749.5,-94.5 749.5,-115.5 919.5,-115.5 919.5,-94.5 749.5,-94.5"/>
<text text-anchor="middle" x="834.5" y="-101.9" font-family="Helvetica,sans-Serif" font-size="12.00">GuessCharacter::displayChar</text>
</a>
</g>
</g>
<!-- Node4&#45;&gt;Node5 -->
<g id="edge4" class="edge">
<title>Node4&#45;&gt;Node5</title>
<path fill="none" stroke="midnightblue" d="M667.1,-105C689.22,-105 714.83,-105 739.24,-105"/>
<polygon fill="midnightblue" stroke="midnightblue" points="739.24,-108.5 749.24,-105 739.24,-101.5 739.24,-108.5"/>
</g>
<!-- Node7 -->
<g id="node7" class="node">
<title>Node7</title>
<g id="a_node7"><a xlink:href="class_guess_word.html#a10dbff1cdd81fe3d38e71f5d2552992d" target="_top" xlink:title=" ">
<polygon fill="white" stroke="black" points="738,-11.5 738,-32.5 931,-32.5 931,-11.5 738,-11.5"/>
<text text-anchor="middle" x="834.5" y="-18.9" font-family="Helvetica,sans-Serif" font-size="12.00">GuessWord::getGuessCharacters</text>
</a>
</g>
</g>
<!-- Node6&#45;&gt;Node7 -->
<g id="edge6" class="edge">
<title>Node6&#45;&gt;Node7</title>
<path fill="none" stroke="midnightblue" d="M680.54,-46.31C705.06,-42.41 732.43,-38.06 757.16,-34.13"/>
<polygon fill="midnightblue" stroke="midnightblue" points="757.89,-37.56 767.22,-32.54 756.79,-30.65 757.89,-37.56"/>
</g>
<!-- Node8 -->
<g id="node8" class="node">
<title>Node8</title>
<g id="a_node8"><a xlink:href="class_guess_character.html#ab10296cd0c254c4273e6f7f2fed84101" target="_top" xlink:title=" ">
<polygon fill="white" stroke="black" points="757,-51.5 757,-72.5 912,-72.5 912,-51.5 757,-51.5"/>
<text text-anchor="middle" x="834.5" y="-58.9" font-family="Helvetica,sans-Serif" font-size="12.00">GuessCharacter::getLetter</text>
</a>
</g>
</g>
<!-- Node6&#45;&gt;Node8 -->
<g id="edge7" class="edge">
<title>Node6&#45;&gt;Node8</title>
<path fill="none" stroke="midnightblue" d="M680.54,-59.3C701.61,-59.67 724.79,-60.08 746.59,-60.47"/>
<polygon fill="midnightblue" stroke="midnightblue" points="746.77,-63.97 756.83,-60.65 746.89,-56.97 746.77,-63.97"/>
</g>
<!-- Node10 -->
<g id="node10" class="node">
<title>Node10</title>
<g id="a_node10"><a xlink:href="class_guess_character.html#a2c4ca4daff3ffad0d2b515e1e52ce775" target="_top" xlink:title=" ">
<polygon fill="white" stroke="black" points="757.5,-134.5 757.5,-155.5 911.5,-155.5 911.5,-134.5 757.5,-134.5"/>
<text text-anchor="middle" x="834.5" y="-141.9" font-family="Helvetica,sans-Serif" font-size="12.00">GuessCharacter::setLetter</text>
</a>
</g>
</g>
<!-- Node9&#45;&gt;Node10 -->
<g id="edge9" class="edge">
<title>Node9&#45;&gt;Node10</title>
<path fill="none" stroke="midnightblue" d="M702.07,-145C717.02,-145 732.41,-145 747.15,-145"/>
<polygon fill="midnightblue" stroke="midnightblue" points="747.24,-148.5 757.24,-145 747.24,-141.5 747.24,-148.5"/>
</g>
<!-- Node11 -->
<g id="node11" class="node">
<title>Node11</title>
<g id="a_node11"><a xlink:href="class_guess_character.html#abf94f0f4d1d8fcae335a00b74bd13236" target="_top" xlink:title=" ">
<polygon fill="white" stroke="black" points="756,-174.5 756,-195.5 913,-195.5 913,-174.5 756,-174.5"/>
<text text-anchor="middle" x="834.5" y="-181.9" font-family="Helvetica,sans-Serif" font-size="12.00">GuessCharacter::setStatus</text>
</a>
</g>
</g>
<!-- Node9&#45;&gt;Node11 -->
<g id="edge10" class="edge">
<title>Node9&#45;&gt;Node11</title>
<path fill="none" stroke="midnightblue" d="M666.51,-155.51C696.43,-160.79 732.87,-167.23 764.07,-172.74"/>
<polygon fill="midnightblue" stroke="midnightblue" points="763.54,-176.2 773.99,-174.49 764.76,-169.31 763.54,-176.2"/>
</g>
<!-- Node14 -->
<g id="node14" class="node">
<title>Node14</title>
<g id="a_node14"><a xlink:href="class_game.html#ac2d21bf44a3e68ac01b522171bb67bcb" target="_top" xlink:title=" ">
<polygon fill="white" stroke="black" points="520.5,-0.5 520.5,-21.5 691.5,-21.5 691.5,-0.5 520.5,-0.5"/>
<text text-anchor="middle" x="606" y="-7.9" font-family="Helvetica,sans-Serif" font-size="12.00">Game::binarySearchWordList</text>
</a>
</g>
</g>
<!-- Node13&#45;&gt;Node14 -->
<g id="edge13" class="edge">
<title>Node13&#45;&gt;Node14</title>
<path fill="none" stroke="midnightblue" d="M444.03,-23.47C464.3,-21.9 487.57,-20.1 510,-18.36"/>
<polygon fill="midnightblue" stroke="midnightblue" points="510.53,-21.83 520.23,-17.57 509.99,-14.85 510.53,-21.83"/>
</g>
</g>
</svg>
