<?xml version="1.0" encoding="UTF-8" standalone="no"?>
<!DOCTYPE svg PUBLIC "-//W3C//DTD SVG 1.1//EN"
 "http://www.w3.org/Graphics/SVG/1.1/DTD/svg11.dtd">
<!-- Generated by graphviz version 2.50.0 (20211204.2007)
 -->
<!-- Title: Game::selectWord Pages: 1 -->
<svg width="312pt" height="30pt"
 viewBox="0.00 0.00 312.00 30.00" xmlns="http://www.w3.org/2000/svg" xmlns:xlink="http://www.w3.org/1999/xlink">
<g id="graph0" class="graph" transform="scale(1 1) rotate(0) translate(4 26)">
<title>Game::selectWord</title>
<polygon fill="white" stroke="transparent" points="-4,4 -4,-26 308,-26 308,4 -4,4"/>
<!-- Node1 -->
<g id="node1" class="node">
<title>Node1</title>
<g id="a_node1"><a xlink:title=" ">
<polygon fill="#bfbfbf" stroke="black" points="190,-0.5 190,-21.5 304,-21.5 304,-0.5 190,-0.5"/>
<text text-anchor="middle" x="247" y="-7.9" font-family="Helvetica,sans-Serif" font-size="12.00">Game::selectWord</text>
</a>
</g>
</g>
<!-- Node2 -->
<g id="node2" class="node">
<title>Node2</title>
<g id="a_node2"><a xlink:href="class_game.html#a50b01080d0d7c5bfc317801a360c84ac" target="_top" xlink:title=" ">
<polygon fill="white" stroke="black" points="78,-0.5 78,-21.5 154,-21.5 154,-0.5 78,-0.5"/>
<text text-anchor="middle" x="116" y="-7.9" font-family="Helvetica,sans-Serif" font-size="12.00">Game::play</text>
</a>
</g>
</g>
<!-- Node1&#45;&gt;Node2 -->
<g id="edge1" class="edge">
<title>Node1&#45;&gt;Node2</title>
<path fill="none" stroke="midnightblue" d="M179.54,-11C170.79,-11 162.09,-11 154.09,-11"/>
<polygon fill="midnightblue" stroke="midnightblue" points="179.79,-14.5 189.79,-11 179.79,-7.5 179.79,-14.5"/>
</g>
<!-- Node3 -->
<g id="node3" class="node">
<title>Node3</title>
<g id="a_node3"><a xlink:href="_wordle_o_o_8cpp.html#ae66f6b31b5ad750f1fe042a706a4e3d4" target="_top" xlink:title=" ">
<polygon fill="white" stroke="black" points="0,-0.5 0,-21.5 42,-21.5 42,-0.5 0,-0.5"/>
<text text-anchor="middle" x="21" y="-7.9" font-family="Helvetica,sans-Serif" font-size="12.00">main</text>
</a>
</g>
</g>
<!-- Node2&#45;&gt;Node3 -->
<g id="edge2" class="edge">
<title>Node2&#45;&gt;Node3</title>
<path fill="none" stroke="midnightblue" d="M67.79,-11C58.71,-11 49.68,-11 42.06,-11"/>
<polygon fill="midnightblue" stroke="midnightblue" points="67.98,-14.5 77.98,-11 67.98,-7.5 67.98,-14.5"/>
</g>
</g>
</svg>
