<?xml version="1.0" encoding="UTF-8" standalone="no"?>
<!DOCTYPE svg PUBLIC "-//W3C//DTD SVG 1.1//EN"
 "http://www.w3.org/Graphics/SVG/1.1/DTD/svg11.dtd">
<!-- Generated by graphviz version 2.50.0 (20211204.2007)
 -->
<!-- Title: Game::setAvailableWordsStatus Pages: 1 -->
<svg width="423pt" height="70pt"
 viewBox="0.00 0.00 423.00 70.00" xmlns="http://www.w3.org/2000/svg" xmlns:xlink="http://www.w3.org/1999/xlink">
<g id="graph0" class="graph" transform="scale(1 1) rotate(0) translate(4 66)">
<title>Game::setAvailableWordsStatus</title>
<polygon fill="white" stroke="transparent" points="-4,4 -4,-66 419,-66 419,4 -4,4"/>
<!-- Node1 -->
<g id="node1" class="node">
<title>Node1</title>
<g id="a_node1"><a xlink:title=" ">
<polygon fill="#bfbfbf" stroke="black" points="0,-20.5 0,-41.5 186,-41.5 186,-20.5 0,-20.5"/>
<text text-anchor="middle" x="93" y="-27.9" font-family="Helvetica,sans-Serif" font-size="12.00">Game::setAvailableWordsStatus</text>
</a>
</g>
</g>
<!-- Node2 -->
<g id="node2" class="node">
<title>Node2</title>
<g id="a_node2"><a xlink:href="class_guess_word.html#a10dbff1cdd81fe3d38e71f5d2552992d" target="_top" xlink:title=" ">
<polygon fill="white" stroke="black" points="222,-40.5 222,-61.5 415,-61.5 415,-40.5 222,-40.5"/>
<text text-anchor="middle" x="318.5" y="-47.9" font-family="Helvetica,sans-Serif" font-size="12.00">GuessWord::getGuessCharacters</text>
</a>
</g>
</g>
<!-- Node1&#45;&gt;Node2 -->
<g id="edge1" class="edge">
<title>Node1&#45;&gt;Node2</title>
<path fill="none" stroke="midnightblue" d="M186.2,-39.25C194.67,-40.01 203.29,-40.78 211.87,-41.55"/>
<polygon fill="midnightblue" stroke="midnightblue" points="211.63,-45.04 221.9,-42.45 212.25,-38.07 211.63,-45.04"/>
</g>
<!-- Node3 -->
<g id="node3" class="node">
<title>Node3</title>
<g id="a_node3"><a xlink:href="class_guess_character.html#ab10296cd0c254c4273e6f7f2fed84101" target="_top" xlink:title=" ">
<polygon fill="white" stroke="black" points="241,-0.5 241,-21.5 396,-21.5 396,-0.5 241,-0.5"/>
<text text-anchor="middle" x="318.5" y="-7.9" font-family="Helvetica,sans-Serif" font-size="12.00">GuessCharacter::getLetter</text>
</a>
</g>
</g>
<!-- Node1&#45;&gt;Node3 -->
<g id="edge2" class="edge">
<title>Node1&#45;&gt;Node3</title>
<path fill="none" stroke="midnightblue" d="M186.2,-22.75C200.95,-21.43 216.17,-20.07 230.79,-18.76"/>
<polygon fill="midnightblue" stroke="midnightblue" points="231.15,-22.24 240.8,-17.86 230.53,-15.27 231.15,-22.24"/>
</g>
</g>
</svg>
