<?xml version="1.0" encoding="UTF-8" standalone="no"?>
<!DOCTYPE svg PUBLIC "-//W3C//DTD SVG 1.1//EN"
 "http://www.w3.org/Graphics/SVG/1.1/DTD/svg11.dtd">
<!-- Generated by graphviz version 2.50.0 (20211204.2007)
 -->
<!-- Title: Game Pages: 1 -->
<svg width="196pt" height="688pt"
 viewBox="0.00 0.00 196.00 688.00" xmlns="http://www.w3.org/2000/svg" xmlns:xlink="http://www.w3.org/1999/xlink">
<g id="graph0" class="graph" transform="scale(1 1) rotate(0) translate(4 684)">
<title>Game</title>
<polygon fill="white" stroke="transparent" points="-4,4 -4,-684 192,-684 192,4 -4,4"/>
<!-- Node1 -->
<g id="node1" class="node">
<title>Node1</title>
<g id="a_node1"><a xlink:title=" ">
<polygon fill="#bfbfbf" stroke="black" points="0,-0.5 0,-284.5 182,-284.5 182,-0.5 0,-0.5"/>
<text text-anchor="middle" x="91" y="-270.9" font-family="Helvetica,sans-Serif" font-size="12.00">Game</text>
<polyline fill="none" stroke="black" points="0,-263.5 182,-263.5 "/>
<text text-anchor="start" x="8" y="-249.9" font-family="Helvetica,sans-Serif" font-size="12.00">&#45; map&lt; char, GuessCharacter</text>
<text text-anchor="start" x="8" y="-236.9" font-family="Helvetica,sans-Serif" font-size="12.00"> &gt; availableLetters</text>
<text text-anchor="start" x="8" y="-223.9" font-family="Helvetica,sans-Serif" font-size="12.00">&#45; vector&lt; string &gt; wordList</text>
<text text-anchor="start" x="8" y="-210.9" font-family="Helvetica,sans-Serif" font-size="12.00">&#45; string wordToFind</text>
<text text-anchor="start" x="8" y="-197.9" font-family="Helvetica,sans-Serif" font-size="12.00">&#45; int turn</text>
<polyline fill="none" stroke="black" points="0,-190.5 182,-190.5 "/>
<text text-anchor="start" x="8" y="-176.9" font-family="Helvetica,sans-Serif" font-size="12.00">+ Game()</text>
<text text-anchor="start" x="8" y="-163.9" font-family="Helvetica,sans-Serif" font-size="12.00">+ void play(bool cheat)</text>
<text text-anchor="start" x="8" y="-150.9" font-family="Helvetica,sans-Serif" font-size="12.00">&#45; void populateWordList()</text>
<text text-anchor="start" x="8" y="-137.9" font-family="Helvetica,sans-Serif" font-size="12.00">&#45; bool binarySearchWordList</text>
<text text-anchor="start" x="8" y="-124.9" font-family="Helvetica,sans-Serif" font-size="12.00">(string value)</text>
<text text-anchor="start" x="8" y="-111.9" font-family="Helvetica,sans-Serif" font-size="12.00">&#45; bool isValidWord(string</text>
<text text-anchor="start" x="8" y="-98.9" font-family="Helvetica,sans-Serif" font-size="12.00"> guess)</text>
<text text-anchor="start" x="8" y="-85.9" font-family="Helvetica,sans-Serif" font-size="12.00">&#45; void selectWord()</text>
<text text-anchor="start" x="8" y="-72.9" font-family="Helvetica,sans-Serif" font-size="12.00">&#45; void welcomeMessage()</text>
<text text-anchor="start" x="8" y="-59.9" font-family="Helvetica,sans-Serif" font-size="12.00">&#45; void setAvailableLetterStatus()</text>
<text text-anchor="start" x="8" y="-46.9" font-family="Helvetica,sans-Serif" font-size="12.00">&#45; bool checkAndDisplayGuess</text>
<text text-anchor="start" x="8" y="-33.9" font-family="Helvetica,sans-Serif" font-size="12.00">(string guess)</text>
<text text-anchor="start" x="8" y="-20.9" font-family="Helvetica,sans-Serif" font-size="12.00">&#45; void printAvailableLetters()</text>
<text text-anchor="start" x="8" y="-7.9" font-family="Helvetica,sans-Serif" font-size="12.00">&#45; bool playerGuess()</text>
</a>
</g>
</g>
<!-- Node2 -->
<g id="node2" class="node">
<title>Node2</title>
<g id="a_node2"><a xlink:href="class_guess_word.html" target="_top" xlink:title=" ">
<polygon fill="white" stroke="black" points="4.5,-334.5 4.5,-462.5 177.5,-462.5 177.5,-334.5 4.5,-334.5"/>
<text text-anchor="middle" x="91" y="-448.9" font-family="Helvetica,sans-Serif" font-size="12.00">GuessWord</text>
<polyline fill="none" stroke="black" points="4.5,-441.5 177.5,-441.5 "/>
<text text-anchor="start" x="12.5" y="-427.9" font-family="Helvetica,sans-Serif" font-size="12.00">&#45; int wordLength</text>
<polyline fill="none" stroke="black" points="4.5,-420.5 177.5,-420.5 "/>
<text text-anchor="start" x="12.5" y="-406.9" font-family="Helvetica,sans-Serif" font-size="12.00">+ void setGuessCharacters</text>
<text text-anchor="start" x="12.5" y="-393.9" font-family="Helvetica,sans-Serif" font-size="12.00">(string guess, string</text>
<text text-anchor="start" x="12.5" y="-380.9" font-family="Helvetica,sans-Serif" font-size="12.00"> wordToFind)</text>
<text text-anchor="start" x="12.5" y="-367.9" font-family="Helvetica,sans-Serif" font-size="12.00">+ GuessCharacter * getGuess</text>
<text text-anchor="start" x="12.5" y="-354.9" font-family="Helvetica,sans-Serif" font-size="12.00">Characters()</text>
<text text-anchor="start" x="12.5" y="-341.9" font-family="Helvetica,sans-Serif" font-size="12.00">+ void display()</text>
</a>
</g>
</g>
<!-- Node2&#45;&gt;Node1 -->
<g id="edge1" class="edge">
<title>Node2&#45;&gt;Node1</title>
<path fill="none" stroke="#404040" d="M91,-334.39C91,-322.69 91,-310.01 91,-296.94"/>
<polygon fill="none" stroke="#404040" points="91,-296.85 87,-290.85 91,-284.85 95,-290.85 91,-296.85"/>
<text text-anchor="middle" x="127.5" y="-306.4" font-family="Helvetica,sans-Serif" font-size="12.00"> &#45;guessWords</text>
</g>
<!-- Node3 -->
<g id="node3" class="node">
<title>Node3</title>
<g id="a_node3"><a xlink:href="class_guess_character.html" target="_top" xlink:title=" ">
<polygon fill="white" stroke="black" points="22.5,-512.5 22.5,-679.5 159.5,-679.5 159.5,-512.5 22.5,-512.5"/>
<text text-anchor="middle" x="91" y="-665.9" font-family="Helvetica,sans-Serif" font-size="12.00">GuessCharacter</text>
<polyline fill="none" stroke="black" points="22.5,-658.5 159.5,-658.5 "/>
<text text-anchor="start" x="30.5" y="-644.9" font-family="Helvetica,sans-Serif" font-size="12.00">&#45; char letter</text>
<text text-anchor="start" x="30.5" y="-631.9" font-family="Helvetica,sans-Serif" font-size="12.00">&#45; Status status</text>
<polyline fill="none" stroke="black" points="22.5,-624.5 159.5,-624.5 "/>
<text text-anchor="start" x="30.5" y="-610.9" font-family="Helvetica,sans-Serif" font-size="12.00">+ GuessCharacter()</text>
<text text-anchor="start" x="30.5" y="-597.9" font-family="Helvetica,sans-Serif" font-size="12.00">+ void displayChar()</text>
<text text-anchor="start" x="30.5" y="-584.9" font-family="Helvetica,sans-Serif" font-size="12.00">+ void setLetter(char</text>
<text text-anchor="start" x="30.5" y="-571.9" font-family="Helvetica,sans-Serif" font-size="12.00"> letter)</text>
<text text-anchor="start" x="30.5" y="-558.9" font-family="Helvetica,sans-Serif" font-size="12.00">+ void setStatus(Status</text>
<text text-anchor="start" x="30.5" y="-545.9" font-family="Helvetica,sans-Serif" font-size="12.00"> status)</text>
<text text-anchor="start" x="30.5" y="-532.9" font-family="Helvetica,sans-Serif" font-size="12.00">+ Status getStatus()</text>
<text text-anchor="start" x="30.5" y="-519.9" font-family="Helvetica,sans-Serif" font-size="12.00">+ char getLetter()</text>
</a>
</g>
</g>
<!-- Node3&#45;&gt;Node2 -->
<g id="edge2" class="edge">
<title>Node3&#45;&gt;Node2</title>
<path fill="none" stroke="#404040" d="M91,-512.37C91,-499.87 91,-487.02 91,-474.69"/>
<polygon fill="none" stroke="#404040" points="91,-474.55 87,-468.55 91,-462.55 95,-468.55 91,-474.55"/>
<text text-anchor="middle" x="139.5" y="-484.4" font-family="Helvetica,sans-Serif" font-size="12.00"> &#45;guessCharacters</text>
</g>
</g>
</svg>
