<?xml version="1.0" encoding="UTF-8" standalone="no"?>
<!DOCTYPE svg PUBLIC "-//W3C//DTD SVG 1.1//EN"
 "http://www.w3.org/Graphics/SVG/1.1/DTD/svg11.dtd">
<!-- Generated by graphviz version 2.50.0 (20211204.2007)
 -->
<!-- Title: Game::checkAndDisplayGuess Pages: 1 -->
<svg width="644pt" height="190pt"
 viewBox="0.00 0.00 644.00 190.00" xmlns="http://www.w3.org/2000/svg" xmlns:xlink="http://www.w3.org/1999/xlink">
<g id="graph0" class="graph" transform="scale(1 1) rotate(0) translate(4 186)">
<title>Game::checkAndDisplayGuess</title>
<polygon fill="white" stroke="transparent" points="-4,4 -4,-186 640,-186 640,4 -4,4"/>
<!-- Node1 -->
<g id="node1" class="node">
<title>Node1</title>
<g id="a_node1"><a xlink:title=" ">
<polygon fill="#bfbfbf" stroke="black" points="0,-60.5 0,-81.5 179,-81.5 179,-60.5 0,-60.5"/>
<text text-anchor="middle" x="89.5" y="-67.9" font-family="Helvetica,sans-Serif" font-size="12.00">Game::checkAndDisplayGuess</text>
</a>
</g>
</g>
<!-- Node2 -->
<g id="node2" class="node">
<title>Node2</title>
<g id="a_node2"><a xlink:href="class_guess_word.html#a0b8dc3f491b390b645b6c3edd15b355e" target="_top" xlink:title=" ">
<polygon fill="white" stroke="black" points="250,-140.5 250,-161.5 372,-161.5 372,-140.5 250,-140.5"/>
<text text-anchor="middle" x="311" y="-147.9" font-family="Helvetica,sans-Serif" font-size="12.00">GuessWord::display</text>
</a>
</g>
</g>
<!-- Node1&#45;&gt;Node2 -->
<g id="edge1" class="edge">
<title>Node1&#45;&gt;Node2</title>
<path fill="none" stroke="midnightblue" d="M119.65,-81.62C158.7,-95.86 228.11,-121.16 271.45,-136.95"/>
<polygon fill="midnightblue" stroke="midnightblue" points="270.49,-140.32 281.08,-140.46 272.88,-133.75 270.49,-140.32"/>
</g>
<!-- Node4 -->
<g id="node4" class="node">
<title>Node4</title>
<g id="a_node4"><a xlink:href="class_game.html#aaa8ee9358c0268b758fa6b93a0cc6c2f" target="_top" xlink:title=" ">
<polygon fill="white" stroke="black" points="218,-80.5 218,-101.5 404,-101.5 404,-80.5 218,-80.5"/>
<text text-anchor="middle" x="311" y="-87.9" font-family="Helvetica,sans-Serif" font-size="12.00">Game::setAvailableWordsStatus</text>
</a>
</g>
</g>
<!-- Node1&#45;&gt;Node4 -->
<g id="edge3" class="edge">
<title>Node1&#45;&gt;Node4</title>
<path fill="none" stroke="midnightblue" d="M179.15,-79.08C188.5,-79.93 198.06,-80.8 207.55,-81.66"/>
<polygon fill="midnightblue" stroke="midnightblue" points="207.52,-85.18 217.8,-82.6 208.16,-78.21 207.52,-85.18"/>
</g>
<!-- Node7 -->
<g id="node7" class="node">
<title>Node7</title>
<g id="a_node7"><a xlink:href="class_guess_word.html#a158140ba0693b2e09d3066b1c0145119" target="_top" xlink:title=" ">
<polygon fill="white" stroke="black" points="215,-40.5 215,-61.5 407,-61.5 407,-40.5 215,-40.5"/>
<text text-anchor="middle" x="311" y="-47.9" font-family="Helvetica,sans-Serif" font-size="12.00">GuessWord::setGuessCharacters</text>
</a>
</g>
</g>
<!-- Node1&#45;&gt;Node7 -->
<g id="edge6" class="edge">
<title>Node1&#45;&gt;Node7</title>
<path fill="none" stroke="midnightblue" d="M179.15,-62.92C187.61,-62.15 196.25,-61.36 204.86,-60.58"/>
<polygon fill="midnightblue" stroke="midnightblue" points="205.28,-64.06 214.92,-59.66 204.65,-57.08 205.28,-64.06"/>
</g>
<!-- Node10 -->
<g id="node10" class="node">
<title>Node10</title>
<g id="a_node10"><a xlink:href="class_game.html#add1f07beb90c3a85e640bf343f2f3cda" target="_top" xlink:title=" ">
<polygon fill="white" stroke="black" points="236,-0.5 236,-21.5 386,-21.5 386,-0.5 236,-0.5"/>
<text text-anchor="middle" x="311" y="-7.9" font-family="Helvetica,sans-Serif" font-size="12.00">Game::welcomeMessage</text>
</a>
</g>
</g>
<!-- Node1&#45;&gt;Node10 -->
<g id="edge9" class="edge">
<title>Node1&#45;&gt;Node10</title>
<path fill="none" stroke="midnightblue" d="M120.43,-60.42C145.49,-51.8 182.3,-39.67 215,-31 224.71,-28.42 235.06,-25.96 245.21,-23.7"/>
<polygon fill="midnightblue" stroke="midnightblue" points="246.24,-27.06 255.26,-21.51 244.75,-20.22 246.24,-27.06"/>
</g>
<!-- Node3 -->
<g id="node3" class="node">
<title>Node3</title>
<g id="a_node3"><a xlink:href="class_guess_character.html#ac7a6b5befd4b2808249349cf65300a49" target="_top" xlink:title=" ">
<polygon fill="white" stroke="black" points="454.5,-160.5 454.5,-181.5 624.5,-181.5 624.5,-160.5 454.5,-160.5"/>
<text text-anchor="middle" x="539.5" y="-167.9" font-family="Helvetica,sans-Serif" font-size="12.00">GuessCharacter::displayChar</text>
</a>
</g>
</g>
<!-- Node2&#45;&gt;Node3 -->
<g id="edge2" class="edge">
<title>Node2&#45;&gt;Node3</title>
<path fill="none" stroke="midnightblue" d="M372.1,-156.31C394.22,-158.26 419.83,-160.52 444.24,-162.68"/>
<polygon fill="midnightblue" stroke="midnightblue" points="443.97,-166.17 454.24,-163.56 444.59,-159.19 443.97,-166.17"/>
</g>
<!-- Node5 -->
<g id="node5" class="node">
<title>Node5</title>
<g id="a_node5"><a xlink:href="class_guess_word.html#a10dbff1cdd81fe3d38e71f5d2552992d" target="_top" xlink:title=" ">
<polygon fill="white" stroke="black" points="443,-120.5 443,-141.5 636,-141.5 636,-120.5 443,-120.5"/>
<text text-anchor="middle" x="539.5" y="-127.9" font-family="Helvetica,sans-Serif" font-size="12.00">GuessWord::getGuessCharacters</text>
</a>
</g>
</g>
<!-- Node4&#45;&gt;Node5 -->
<g id="edge4" class="edge">
<title>Node4&#45;&gt;Node5</title>
<path fill="none" stroke="midnightblue" d="M371.51,-101.51C401.43,-106.79 437.87,-113.23 469.07,-118.74"/>
<polygon fill="midnightblue" stroke="midnightblue" points="468.54,-122.2 478.99,-120.49 469.76,-115.31 468.54,-122.2"/>
</g>
<!-- Node6 -->
<g id="node6" class="node">
<title>Node6</title>
<g id="a_node6"><a xlink:href="class_guess_character.html#ab10296cd0c254c4273e6f7f2fed84101" target="_top" xlink:title=" ">
<polygon fill="white" stroke="black" points="462,-80.5 462,-101.5 617,-101.5 617,-80.5 462,-80.5"/>
<text text-anchor="middle" x="539.5" y="-87.9" font-family="Helvetica,sans-Serif" font-size="12.00">GuessCharacter::getLetter</text>
</a>
</g>
</g>
<!-- Node4&#45;&gt;Node6 -->
<g id="edge5" class="edge">
<title>Node4&#45;&gt;Node6</title>
<path fill="none" stroke="midnightblue" d="M404.13,-91C419.8,-91 436.03,-91 451.57,-91"/>
<polygon fill="midnightblue" stroke="midnightblue" points="451.66,-94.5 461.66,-91 451.66,-87.5 451.66,-94.5"/>
</g>
<!-- Node8 -->
<g id="node8" class="node">
<title>Node8</title>
<g id="a_node8"><a xlink:href="class_guess_character.html#a2c4ca4daff3ffad0d2b515e1e52ce775" target="_top" xlink:title=" ">
<polygon fill="white" stroke="black" points="462.5,-40.5 462.5,-61.5 616.5,-61.5 616.5,-40.5 462.5,-40.5"/>
<text text-anchor="middle" x="539.5" y="-47.9" font-family="Helvetica,sans-Serif" font-size="12.00">GuessCharacter::setLetter</text>
</a>
</g>
</g>
<!-- Node7&#45;&gt;Node8 -->
<g id="edge7" class="edge">
<title>Node7&#45;&gt;Node8</title>
<path fill="none" stroke="midnightblue" d="M407.07,-51C422.02,-51 437.41,-51 452.15,-51"/>
<polygon fill="midnightblue" stroke="midnightblue" points="452.24,-54.5 462.24,-51 452.24,-47.5 452.24,-54.5"/>
</g>
<!-- Node9 -->
<g id="node9" class="node">
<title>Node9</title>
<g id="a_node9"><a xlink:href="class_guess_character.html#abf94f0f4d1d8fcae335a00b74bd13236" target="_top" xlink:title=" ">
<polygon fill="white" stroke="black" points="461,-0.5 461,-21.5 618,-21.5 618,-0.5 461,-0.5"/>
<text text-anchor="middle" x="539.5" y="-7.9" font-family="Helvetica,sans-Serif" font-size="12.00">GuessCharacter::setStatus</text>
</a>
</g>
</g>
<!-- Node7&#45;&gt;Node9 -->
<g id="edge8" class="edge">
<title>Node7&#45;&gt;Node9</title>
<path fill="none" stroke="midnightblue" d="M371.51,-40.49C401.43,-35.21 437.87,-28.77 469.07,-23.26"/>
<polygon fill="midnightblue" stroke="midnightblue" points="469.76,-26.69 478.99,-21.51 468.54,-19.8 469.76,-26.69"/>
</g>
</g>
</svg>
