<?xml version="1.0" encoding="UTF-8" standalone="no"?>
<!DOCTYPE svg PUBLIC "-//W3C//DTD SVG 1.1//EN"
 "http://www.w3.org/Graphics/SVG/1.1/DTD/svg11.dtd">
<!-- Generated by graphviz version 2.50.0 (20211204.2007)
 -->
<!-- Title: GuessWord Pages: 1 -->
<svg width="149pt" height="226pt"
 viewBox="0.00 0.00 148.50 226.00" xmlns="http://www.w3.org/2000/svg" xmlns:xlink="http://www.w3.org/1999/xlink">
<g id="graph0" class="graph" transform="scale(1 1) rotate(0) translate(4 222)">
<title>GuessWord</title>
<polygon fill="white" stroke="transparent" points="-4,4 -4,-222 144.5,-222 144.5,4 -4,4"/>
<!-- Node1 -->
<g id="node1" class="node">
<title>Node1</title>
<g id="a_node1"><a xlink:title=" ">
<polygon fill="#bfbfbf" stroke="black" points="0,-0.5 0,-68.5 121,-68.5 121,-0.5 0,-0.5"/>
<text text-anchor="middle" x="60.5" y="-56.5" font-family="Helvetica,sans-Serif" font-size="10.00">GuessWord</text>
<polyline fill="none" stroke="black" points="0,-49.5 121,-49.5 "/>
<text text-anchor="middle" x="60.5" y="-37.5" font-family="Helvetica,sans-Serif" font-size="10.00"> </text>
<polyline fill="none" stroke="black" points="0,-30.5 121,-30.5 "/>
<text text-anchor="start" x="8" y="-18.5" font-family="Helvetica,sans-Serif" font-size="10.00">+ setGuessCharacters()</text>
<text text-anchor="start" x="8" y="-7.5" font-family="Helvetica,sans-Serif" font-size="10.00">+ display()</text>
</a>
</g>
</g>
<!-- Node2 -->
<g id="node2" class="node">
<title>Node2</title>
<g id="a_node2"><a xlink:href="class_guess_character.html" target="_top" xlink:title=" ">
<polygon fill="white" stroke="black" points="9.5,-116.5 9.5,-217.5 111.5,-217.5 111.5,-116.5 9.5,-116.5"/>
<text text-anchor="middle" x="60.5" y="-205.5" font-family="Helvetica,sans-Serif" font-size="10.00">GuessCharacter</text>
<polyline fill="none" stroke="black" points="9.5,-198.5 111.5,-198.5 "/>
<text text-anchor="start" x="17.5" y="-186.5" font-family="Helvetica,sans-Serif" font-size="10.00">&#45; letter</text>
<text text-anchor="start" x="17.5" y="-175.5" font-family="Helvetica,sans-Serif" font-size="10.00">&#45; status</text>
<polyline fill="none" stroke="black" points="9.5,-168.5 111.5,-168.5 "/>
<text text-anchor="start" x="17.5" y="-156.5" font-family="Helvetica,sans-Serif" font-size="10.00">+ GuessCharacter()</text>
<text text-anchor="start" x="17.5" y="-145.5" font-family="Helvetica,sans-Serif" font-size="10.00">+ displayChar()</text>
<text text-anchor="start" x="17.5" y="-134.5" font-family="Helvetica,sans-Serif" font-size="10.00">+ setLetter()</text>
<text text-anchor="start" x="17.5" y="-123.5" font-family="Helvetica,sans-Serif" font-size="10.00">+ setStats()</text>
</a>
</g>
</g>
<!-- Node2&#45;&gt;Node1 -->
<g id="edge1" class="edge">
<title>Node2&#45;&gt;Node1</title>
<path fill="none" stroke="#404040" d="M60.5,-116.29C60.5,-104.55 60.5,-92.09 60.5,-80.57"/>
<polygon fill="none" stroke="#404040" points="60.5,-80.51 56.5,-74.51 60.5,-68.51 64.5,-74.51 60.5,-80.51"/>
<text text-anchor="middle" x="100.5" y="-90" font-family="Helvetica,sans-Serif" font-size="10.00"> &#45;guessCharacters</text>
</g>
</g>
</svg>
