<?xml version="1.0" encoding="UTF-8" standalone="no"?>
<!DOCTYPE svg PUBLIC "-//W3C//DTD SVG 1.1//EN"
 "http://www.w3.org/Graphics/SVG/1.1/DTD/svg11.dtd">
<!-- Generated by graphviz version 2.50.0 (20211204.2007)
 -->
<!-- Title: Game::playerGuess Pages: 1 -->
<svg width="681pt" height="142pt"
 viewBox="0.00 0.00 681.00 142.00" xmlns="http://www.w3.org/2000/svg" xmlns:xlink="http://www.w3.org/1999/xlink">
<g id="graph0" class="graph" transform="scale(1 1) rotate(0) translate(4 138)">
<title>Game::playerGuess</title>
<polygon fill="white" stroke="transparent" points="-4,4 -4,-138 677,-138 677,4 -4,4"/>
<!-- Node1 -->
<g id="node1" class="node">
<title>Node1</title>
<g id="a_node1"><a xlink:title=" ">
<polygon fill="#bfbfbf" stroke="black" points="0,-38.5 0,-57.5 104,-57.5 104,-38.5 0,-38.5"/>
<text text-anchor="middle" x="52" y="-45.5" font-family="Helvetica,sans-Serif" font-size="10.00">Game::playerGuess</text>
</a>
</g>
</g>
<!-- Node2 -->
<g id="node2" class="node">
<title>Node2</title>
<g id="a_node2"><a xlink:href="class_game.html#a5e77f0c5ee41d17531e12de8211d8683" target="_top" xlink:title=" ">
<polygon fill="white" stroke="black" points="140,-66.5 140,-85.5 293,-85.5 293,-66.5 140,-66.5"/>
<text text-anchor="middle" x="216.5" y="-73.5" font-family="Helvetica,sans-Serif" font-size="10.00">Game::checkAndDisplayGuess</text>
</a>
</g>
</g>
<!-- Node1&#45;&gt;Node2 -->
<g id="edge1" class="edge">
<title>Node1&#45;&gt;Node2</title>
<path fill="none" stroke="midnightblue" d="M104.42,-56.86C118.98,-59.37 135.04,-62.14 150.31,-64.77"/>
<polygon fill="midnightblue" stroke="midnightblue" points="149.75,-68.22 160.2,-66.47 150.94,-61.32 149.75,-68.22"/>
</g>
<!-- Node9 -->
<g id="node9" class="node">
<title>Node9</title>
<g id="a_node9"><a xlink:href="class_game.html#a0fe1584b29f33bf17dd976447fc0f8ce" target="_top" xlink:title=" ">
<polygon fill="white" stroke="black" points="166,-19.5 166,-38.5 267,-38.5 267,-19.5 166,-19.5"/>
<text text-anchor="middle" x="216.5" y="-26.5" font-family="Helvetica,sans-Serif" font-size="10.00">Game::isValidWord</text>
</a>
</g>
</g>
<!-- Node1&#45;&gt;Node9 -->
<g id="edge8" class="edge">
<title>Node1&#45;&gt;Node9</title>
<path fill="none" stroke="midnightblue" d="M104.42,-41.99C120.66,-40.09 138.76,-37.97 155.55,-36.01"/>
<polygon fill="midnightblue" stroke="midnightblue" points="156.28,-39.45 165.81,-34.81 155.47,-32.5 156.28,-39.45"/>
</g>
<!-- Node3 -->
<g id="node3" class="node">
<title>Node3</title>
<g id="a_node3"><a xlink:href="class_guess_word.html#a0b8dc3f491b390b645b6c3edd15b355e" target="_top" xlink:title=" ">
<polygon fill="white" stroke="black" points="358.5,-114.5 358.5,-133.5 463.5,-133.5 463.5,-114.5 358.5,-114.5"/>
<text text-anchor="middle" x="411" y="-121.5" font-family="Helvetica,sans-Serif" font-size="10.00">GuessWord::display</text>
</a>
</g>
</g>
<!-- Node2&#45;&gt;Node3 -->
<g id="edge2" class="edge">
<title>Node2&#45;&gt;Node3</title>
<path fill="none" stroke="midnightblue" d="M253.35,-85.56C275.18,-91.32 303.66,-98.73 329,-105 338.47,-107.34 348.58,-109.77 358.34,-112.08"/>
<polygon fill="midnightblue" stroke="midnightblue" points="357.79,-115.55 368.33,-114.43 359.4,-108.73 357.79,-115.55"/>
</g>
<!-- Node5 -->
<g id="node5" class="node">
<title>Node5</title>
<g id="a_node5"><a xlink:href="class_guess_word.html#a158140ba0693b2e09d3066b1c0145119" target="_top" xlink:title=" ">
<polygon fill="white" stroke="black" points="329,-76.5 329,-95.5 493,-95.5 493,-76.5 329,-76.5"/>
<text text-anchor="middle" x="411" y="-83.5" font-family="Helvetica,sans-Serif" font-size="10.00">GuessWord::setGuessCharacters</text>
</a>
</g>
</g>
<!-- Node2&#45;&gt;Node5 -->
<g id="edge4" class="edge">
<title>Node2&#45;&gt;Node5</title>
<path fill="none" stroke="midnightblue" d="M293.03,-79.92C301.51,-80.36 310.21,-80.82 318.86,-81.27"/>
<polygon fill="midnightblue" stroke="midnightblue" points="318.8,-84.77 328.97,-81.79 319.17,-77.78 318.8,-84.77"/>
</g>
<!-- Node8 -->
<g id="node8" class="node">
<title>Node8</title>
<g id="a_node8"><a xlink:href="class_game.html#add1f07beb90c3a85e640bf343f2f3cda" target="_top" xlink:title=" ">
<polygon fill="white" stroke="black" points="347.5,-38.5 347.5,-57.5 474.5,-57.5 474.5,-38.5 347.5,-38.5"/>
<text text-anchor="middle" x="411" y="-45.5" font-family="Helvetica,sans-Serif" font-size="10.00">Game::welcomeMessage</text>
</a>
</g>
</g>
<!-- Node2&#45;&gt;Node8 -->
<g id="edge7" class="edge">
<title>Node2&#45;&gt;Node8</title>
<path fill="none" stroke="midnightblue" d="M282.94,-66.48C300.34,-63.95 319.25,-61.2 337.03,-58.61"/>
<polygon fill="midnightblue" stroke="midnightblue" points="337.95,-62.02 347.34,-57.11 336.94,-55.09 337.95,-62.02"/>
</g>
<!-- Node4 -->
<g id="node4" class="node">
<title>Node4</title>
<g id="a_node4"><a xlink:href="class_guess_character.html#ac7a6b5befd4b2808249349cf65300a49" target="_top" xlink:title=" ">
<polygon fill="white" stroke="black" points="529,-114.5 529,-133.5 673,-133.5 673,-114.5 529,-114.5"/>
<text text-anchor="middle" x="601" y="-121.5" font-family="Helvetica,sans-Serif" font-size="10.00">GuessCharacter::displayChar</text>
</a>
</g>
</g>
<!-- Node3&#45;&gt;Node4 -->
<g id="edge3" class="edge">
<title>Node3&#45;&gt;Node4</title>
<path fill="none" stroke="midnightblue" d="M463.87,-124C480.83,-124 500.11,-124 518.71,-124"/>
<polygon fill="midnightblue" stroke="midnightblue" points="518.95,-127.5 528.95,-124 518.95,-120.5 518.95,-127.5"/>
</g>
<!-- Node6 -->
<g id="node6" class="node">
<title>Node6</title>
<g id="a_node6"><a xlink:href="class_guess_character.html#a2c4ca4daff3ffad0d2b515e1e52ce775" target="_top" xlink:title=" ">
<polygon fill="white" stroke="black" points="535.5,-76.5 535.5,-95.5 666.5,-95.5 666.5,-76.5 535.5,-76.5"/>
<text text-anchor="middle" x="601" y="-83.5" font-family="Helvetica,sans-Serif" font-size="10.00">GuessCharacter::setLetter</text>
</a>
</g>
</g>
<!-- Node5&#45;&gt;Node6 -->
<g id="edge5" class="edge">
<title>Node5&#45;&gt;Node6</title>
<path fill="none" stroke="midnightblue" d="M493.09,-86C503.79,-86 514.71,-86 525.29,-86"/>
<polygon fill="midnightblue" stroke="midnightblue" points="525.31,-89.5 535.31,-86 525.31,-82.5 525.31,-89.5"/>
</g>
<!-- Node7 -->
<g id="node7" class="node">
<title>Node7</title>
<g id="a_node7"><a xlink:href="class_guess_character.html#af7a35441a9c05a8b280ad1d28b2ebc27" target="_top" xlink:title=" ">
<polygon fill="white" stroke="black" points="536,-38.5 536,-57.5 666,-57.5 666,-38.5 536,-38.5"/>
<text text-anchor="middle" x="601" y="-45.5" font-family="Helvetica,sans-Serif" font-size="10.00">GuessCharacter::setStats</text>
</a>
</g>
</g>
<!-- Node5&#45;&gt;Node7 -->
<g id="edge6" class="edge">
<title>Node5&#45;&gt;Node7</title>
<path fill="none" stroke="midnightblue" d="M459.44,-76.41C484.81,-71.28 516.23,-64.93 542.92,-59.54"/>
<polygon fill="midnightblue" stroke="midnightblue" points="543.79,-62.93 552.9,-57.52 542.41,-56.07 543.79,-62.93"/>
</g>
<!-- Node10 -->
<g id="node10" class="node">
<title>Node10</title>
<g id="a_node10"><a xlink:href="class_game.html#ac2d21bf44a3e68ac01b522171bb67bcb" target="_top" xlink:title=" ">
<polygon fill="white" stroke="black" points="338.5,-0.5 338.5,-19.5 483.5,-19.5 483.5,-0.5 338.5,-0.5"/>
<text text-anchor="middle" x="411" y="-7.5" font-family="Helvetica,sans-Serif" font-size="10.00">Game::binarySearchWordList</text>
</a>
</g>
</g>
<!-- Node9&#45;&gt;Node10 -->
<g id="edge9" class="edge">
<title>Node9&#45;&gt;Node10</title>
<path fill="none" stroke="midnightblue" d="M267.07,-24.11C285.74,-22.26 307.5,-20.12 328.33,-18.06"/>
<polygon fill="midnightblue" stroke="midnightblue" points="328.85,-21.53 338.46,-17.06 328.16,-14.56 328.85,-21.53"/>
</g>
</g>
</svg>
