<?xml version="1.0" encoding="UTF-8" standalone="no"?>
<!DOCTYPE svg PUBLIC "-//W3C//DTD SVG 1.1//EN"
 "http://www.w3.org/Graphics/SVG/1.1/DTD/svg11.dtd">
<!-- Generated by graphviz version 2.50.0 (20211204.2007)
 -->
<!-- Title: Game::play Pages: 1 -->
<svg width="805pt" height="218pt"
 viewBox="0.00 0.00 805.00 218.00" xmlns="http://www.w3.org/2000/svg" xmlns:xlink="http://www.w3.org/1999/xlink">
<g id="graph0" class="graph" transform="scale(1 1) rotate(0) translate(4 214)">
<title>Game::play</title>
<polygon fill="white" stroke="transparent" points="-4,4 -4,-214 801,-214 801,4 -4,4"/>
<!-- Node1 -->
<g id="node1" class="node">
<title>Node1</title>
<g id="a_node1"><a xlink:title=" ">
<polygon fill="#bfbfbf" stroke="black" points="0,-57.5 0,-76.5 67,-76.5 67,-57.5 0,-57.5"/>
<text text-anchor="middle" x="33.5" y="-64.5" font-family="Helvetica,sans-Serif" font-size="10.00">Game::play</text>
</a>
</g>
</g>
<!-- Node2 -->
<g id="node2" class="node">
<title>Node2</title>
<g id="a_node2"><a xlink:href="class_game.html#a44e9cbf9c4f376e31a83ca6179f0ca38" target="_top" xlink:title=" ">
<polygon fill="white" stroke="black" points="113.5,-114.5 113.5,-133.5 217.5,-133.5 217.5,-114.5 113.5,-114.5"/>
<text text-anchor="middle" x="165.5" y="-121.5" font-family="Helvetica,sans-Serif" font-size="10.00">Game::playerGuess</text>
</a>
</g>
</g>
<!-- Node1&#45;&gt;Node2 -->
<g id="edge1" class="edge">
<title>Node1&#45;&gt;Node2</title>
<path fill="none" stroke="midnightblue" d="M53.51,-76.64C67.16,-83.45 86.05,-92.62 103,-100 111.4,-103.66 120.55,-107.37 129.16,-110.75"/>
<polygon fill="midnightblue" stroke="midnightblue" points="128,-114.05 138.59,-114.39 130.52,-107.52 128,-114.05"/>
</g>
<!-- Node9 -->
<g id="node9" class="node">
<title>Node9</title>
<g id="a_node9"><a xlink:href="class_game.html#add1f07beb90c3a85e640bf343f2f3cda" target="_top" xlink:title=" ">
<polygon fill="white" stroke="black" points="471.5,-76.5 471.5,-95.5 598.5,-95.5 598.5,-76.5 471.5,-76.5"/>
<text text-anchor="middle" x="535" y="-83.5" font-family="Helvetica,sans-Serif" font-size="10.00">Game::welcomeMessage</text>
</a>
</g>
</g>
<!-- Node1&#45;&gt;Node9 -->
<g id="edge13" class="edge">
<title>Node1&#45;&gt;Node9</title>
<path fill="none" stroke="midnightblue" d="M67.27,-68.25C146.73,-71.27 351.16,-79.04 461.23,-83.23"/>
<polygon fill="midnightblue" stroke="midnightblue" points="461.13,-86.73 471.26,-83.61 461.4,-79.74 461.13,-86.73"/>
</g>
<!-- Node12 -->
<g id="node12" class="node">
<title>Node12</title>
<g id="a_node12"><a xlink:href="class_game.html#aff845e992fb69e1c2c7f749e8786699c" target="_top" xlink:title=" ">
<polygon fill="white" stroke="black" points="103,-38.5 103,-57.5 228,-57.5 228,-38.5 103,-38.5"/>
<text text-anchor="middle" x="165.5" y="-45.5" font-family="Helvetica,sans-Serif" font-size="10.00">Game::populateWordList</text>
</a>
</g>
</g>
<!-- Node1&#45;&gt;Node12 -->
<g id="edge11" class="edge">
<title>Node1&#45;&gt;Node12</title>
<path fill="none" stroke="midnightblue" d="M67.3,-62.21C75.17,-61.06 83.89,-59.78 92.77,-58.48"/>
<polygon fill="midnightblue" stroke="midnightblue" points="93.44,-61.92 102.83,-57.01 92.43,-55 93.44,-61.92"/>
</g>
<!-- Node13 -->
<g id="node13" class="node">
<title>Node13</title>
<g id="a_node13"><a xlink:href="class_game.html#a5872e5f53336a95489970a67d15d5dc0" target="_top" xlink:title=" ">
<polygon fill="white" stroke="black" points="116.5,-0.5 116.5,-19.5 214.5,-19.5 214.5,-0.5 116.5,-0.5"/>
<text text-anchor="middle" x="165.5" y="-7.5" font-family="Helvetica,sans-Serif" font-size="10.00">Game::selectWord</text>
</a>
</g>
</g>
<!-- Node1&#45;&gt;Node13 -->
<g id="edge12" class="edge">
<title>Node1&#45;&gt;Node13</title>
<path fill="none" stroke="midnightblue" d="M49.55,-57.46C63.13,-49.14 83.86,-37.16 103,-29 108.33,-26.73 114.03,-24.59 119.73,-22.64"/>
<polygon fill="midnightblue" stroke="midnightblue" points="120.83,-25.96 129.25,-19.52 118.65,-19.31 120.83,-25.96"/>
</g>
<!-- Node3 -->
<g id="node3" class="node">
<title>Node3</title>
<g id="a_node3"><a xlink:href="class_game.html#a5e77f0c5ee41d17531e12de8211d8683" target="_top" xlink:title=" ">
<polygon fill="white" stroke="black" points="264,-114.5 264,-133.5 417,-133.5 417,-114.5 264,-114.5"/>
<text text-anchor="middle" x="340.5" y="-121.5" font-family="Helvetica,sans-Serif" font-size="10.00">Game::checkAndDisplayGuess</text>
</a>
</g>
</g>
<!-- Node2&#45;&gt;Node3 -->
<g id="edge2" class="edge">
<title>Node2&#45;&gt;Node3</title>
<path fill="none" stroke="midnightblue" d="M217.94,-124C229.22,-124 241.46,-124 253.68,-124"/>
<polygon fill="midnightblue" stroke="midnightblue" points="253.93,-127.5 263.93,-124 253.93,-120.5 253.93,-127.5"/>
</g>
<!-- Node10 -->
<g id="node10" class="node">
<title>Node10</title>
<g id="a_node10"><a xlink:href="class_game.html#a0fe1584b29f33bf17dd976447fc0f8ce" target="_top" xlink:title=" ">
<polygon fill="white" stroke="black" points="290,-171.5 290,-190.5 391,-190.5 391,-171.5 290,-171.5"/>
<text text-anchor="middle" x="340.5" y="-178.5" font-family="Helvetica,sans-Serif" font-size="10.00">Game::isValidWord</text>
</a>
</g>
</g>
<!-- Node2&#45;&gt;Node10 -->
<g id="edge9" class="edge">
<title>Node2&#45;&gt;Node10</title>
<path fill="none" stroke="midnightblue" d="M195.46,-133.54C224.27,-143.03 268.68,-157.67 300.57,-168.17"/>
<polygon fill="midnightblue" stroke="midnightblue" points="299.86,-171.62 310.45,-171.43 302.05,-164.97 299.86,-171.62"/>
</g>
<!-- Node4 -->
<g id="node4" class="node">
<title>Node4</title>
<g id="a_node4"><a xlink:href="class_guess_word.html#a0b8dc3f491b390b645b6c3edd15b355e" target="_top" xlink:title=" ">
<polygon fill="white" stroke="black" points="482.5,-114.5 482.5,-133.5 587.5,-133.5 587.5,-114.5 482.5,-114.5"/>
<text text-anchor="middle" x="535" y="-121.5" font-family="Helvetica,sans-Serif" font-size="10.00">GuessWord::display</text>
</a>
</g>
</g>
<!-- Node3&#45;&gt;Node4 -->
<g id="edge3" class="edge">
<title>Node3&#45;&gt;Node4</title>
<path fill="none" stroke="midnightblue" d="M417.03,-124C435.34,-124 454.71,-124 472.3,-124"/>
<polygon fill="midnightblue" stroke="midnightblue" points="472.43,-127.5 482.43,-124 472.43,-120.5 472.43,-127.5"/>
</g>
<!-- Node6 -->
<g id="node6" class="node">
<title>Node6</title>
<g id="a_node6"><a xlink:href="class_guess_word.html#a158140ba0693b2e09d3066b1c0145119" target="_top" xlink:title=" ">
<polygon fill="white" stroke="black" points="453,-152.5 453,-171.5 617,-171.5 617,-152.5 453,-152.5"/>
<text text-anchor="middle" x="535" y="-159.5" font-family="Helvetica,sans-Serif" font-size="10.00">GuessWord::setGuessCharacters</text>
</a>
</g>
</g>
<!-- Node3&#45;&gt;Node6 -->
<g id="edge5" class="edge">
<title>Node3&#45;&gt;Node6</title>
<path fill="none" stroke="midnightblue" d="M390.08,-133.59C416.16,-138.74 448.51,-145.12 475.92,-150.53"/>
<polygon fill="midnightblue" stroke="midnightblue" points="475.28,-153.98 485.77,-152.48 476.64,-147.11 475.28,-153.98"/>
</g>
<!-- Node3&#45;&gt;Node9 -->
<g id="edge8" class="edge">
<title>Node3&#45;&gt;Node9</title>
<path fill="none" stroke="midnightblue" d="M390.08,-114.41C416.16,-109.26 448.51,-102.88 475.92,-97.47"/>
<polygon fill="midnightblue" stroke="midnightblue" points="476.64,-100.89 485.77,-95.52 475.28,-94.02 476.64,-100.89"/>
</g>
<!-- Node5 -->
<g id="node5" class="node">
<title>Node5</title>
<g id="a_node5"><a xlink:href="class_guess_character.html#ac7a6b5befd4b2808249349cf65300a49" target="_top" xlink:title=" ">
<polygon fill="white" stroke="black" points="653,-114.5 653,-133.5 797,-133.5 797,-114.5 653,-114.5"/>
<text text-anchor="middle" x="725" y="-121.5" font-family="Helvetica,sans-Serif" font-size="10.00">GuessCharacter::displayChar</text>
</a>
</g>
</g>
<!-- Node4&#45;&gt;Node5 -->
<g id="edge4" class="edge">
<title>Node4&#45;&gt;Node5</title>
<path fill="none" stroke="midnightblue" d="M587.87,-124C604.83,-124 624.11,-124 642.71,-124"/>
<polygon fill="midnightblue" stroke="midnightblue" points="642.95,-127.5 652.95,-124 642.95,-120.5 642.95,-127.5"/>
</g>
<!-- Node7 -->
<g id="node7" class="node">
<title>Node7</title>
<g id="a_node7"><a xlink:href="class_guess_character.html#a2c4ca4daff3ffad0d2b515e1e52ce775" target="_top" xlink:title=" ">
<polygon fill="white" stroke="black" points="659.5,-152.5 659.5,-171.5 790.5,-171.5 790.5,-152.5 659.5,-152.5"/>
<text text-anchor="middle" x="725" y="-159.5" font-family="Helvetica,sans-Serif" font-size="10.00">GuessCharacter::setLetter</text>
</a>
</g>
</g>
<!-- Node6&#45;&gt;Node7 -->
<g id="edge6" class="edge">
<title>Node6&#45;&gt;Node7</title>
<path fill="none" stroke="midnightblue" d="M617.09,-162C627.79,-162 638.71,-162 649.29,-162"/>
<polygon fill="midnightblue" stroke="midnightblue" points="649.31,-165.5 659.31,-162 649.31,-158.5 649.31,-165.5"/>
</g>
<!-- Node8 -->
<g id="node8" class="node">
<title>Node8</title>
<g id="a_node8"><a xlink:href="class_guess_character.html#af7a35441a9c05a8b280ad1d28b2ebc27" target="_top" xlink:title=" ">
<polygon fill="white" stroke="black" points="660,-190.5 660,-209.5 790,-209.5 790,-190.5 660,-190.5"/>
<text text-anchor="middle" x="725" y="-197.5" font-family="Helvetica,sans-Serif" font-size="10.00">GuessCharacter::setStats</text>
</a>
</g>
</g>
<!-- Node6&#45;&gt;Node8 -->
<g id="edge7" class="edge">
<title>Node6&#45;&gt;Node8</title>
<path fill="none" stroke="midnightblue" d="M583.44,-171.59C608.81,-176.72 640.23,-183.07 666.92,-188.46"/>
<polygon fill="midnightblue" stroke="midnightblue" points="666.41,-191.93 676.9,-190.48 667.79,-185.07 666.41,-191.93"/>
</g>
<!-- Node11 -->
<g id="node11" class="node">
<title>Node11</title>
<g id="a_node11"><a xlink:href="class_game.html#ac2d21bf44a3e68ac01b522171bb67bcb" target="_top" xlink:title=" ">
<polygon fill="white" stroke="black" points="462.5,-190.5 462.5,-209.5 607.5,-209.5 607.5,-190.5 462.5,-190.5"/>
<text text-anchor="middle" x="535" y="-197.5" font-family="Helvetica,sans-Serif" font-size="10.00">Game::binarySearchWordList</text>
</a>
</g>
</g>
<!-- Node10&#45;&gt;Node11 -->
<g id="edge10" class="edge">
<title>Node10&#45;&gt;Node11</title>
<path fill="none" stroke="midnightblue" d="M391.07,-185.89C409.74,-187.74 431.5,-189.88 452.33,-191.94"/>
<polygon fill="midnightblue" stroke="midnightblue" points="452.16,-195.44 462.46,-192.94 452.85,-188.47 452.16,-195.44"/>
</g>
</g>
</svg>
