<?xml version="1.0" encoding="UTF-8" standalone="no"?>
<!DOCTYPE svg PUBLIC "-//W3C//DTD SVG 1.1//EN"
 "http://www.w3.org/Graphics/SVG/1.1/DTD/svg11.dtd">
<!-- Generated by graphviz version 2.50.0 (20211204.2007)
 -->
<!-- Title: GuessWord::setGuessCharacters Pages: 1 -->
<svg width="393pt" height="70pt"
 viewBox="0.00 0.00 393.00 70.00" xmlns="http://www.w3.org/2000/svg" xmlns:xlink="http://www.w3.org/1999/xlink">
<g id="graph0" class="graph" transform="scale(1 1) rotate(0) translate(4 66)">
<title>GuessWord::setGuessCharacters</title>
<polygon fill="white" stroke="transparent" points="-4,4 -4,-66 389,-66 389,4 -4,4"/>
<!-- Node1 -->
<g id="node1" class="node">
<title>Node1</title>
<g id="a_node1"><a xlink:title=" ">
<polygon fill="#bfbfbf" stroke="black" points="0,-20.5 0,-41.5 192,-41.5 192,-20.5 0,-20.5"/>
<text text-anchor="middle" x="96" y="-27.9" font-family="Helvetica,sans-Serif" font-size="12.00">GuessWord::setGuessCharacters</text>
</a>
</g>
</g>
<!-- Node2 -->
<g id="node2" class="node">
<title>Node2</title>
<g id="a_node2"><a xlink:href="class_guess_character.html#a2c4ca4daff3ffad0d2b515e1e52ce775" target="_top" xlink:title=" ">
<polygon fill="white" stroke="black" points="229.5,-40.5 229.5,-61.5 383.5,-61.5 383.5,-40.5 229.5,-40.5"/>
<text text-anchor="middle" x="306.5" y="-47.9" font-family="Helvetica,sans-Serif" font-size="12.00">GuessCharacter::setLetter</text>
</a>
</g>
</g>
<!-- Node1&#45;&gt;Node2 -->
<g id="edge1" class="edge">
<title>Node1&#45;&gt;Node2</title>
<path fill="none" stroke="midnightblue" d="M192.1,-40.12C201.15,-40.99 210.29,-41.87 219.26,-42.73"/>
<polygon fill="midnightblue" stroke="midnightblue" points="218.99,-46.22 229.28,-43.69 219.66,-39.25 218.99,-46.22"/>
</g>
<!-- Node3 -->
<g id="node3" class="node">
<title>Node3</title>
<g id="a_node3"><a xlink:href="class_guess_character.html#abf94f0f4d1d8fcae335a00b74bd13236" target="_top" xlink:title=" ">
<polygon fill="white" stroke="black" points="228,-0.5 228,-21.5 385,-21.5 385,-0.5 228,-0.5"/>
<text text-anchor="middle" x="306.5" y="-7.9" font-family="Helvetica,sans-Serif" font-size="12.00">GuessCharacter::setStatus</text>
</a>
</g>
</g>
<!-- Node1&#45;&gt;Node3 -->
<g id="edge2" class="edge">
<title>Node1&#45;&gt;Node3</title>
<path fill="none" stroke="midnightblue" d="M192.1,-21.88C200.57,-21.06 209.13,-20.24 217.54,-19.44"/>
<polygon fill="midnightblue" stroke="midnightblue" points="218.1,-22.9 227.72,-18.46 217.43,-15.93 218.1,-22.9"/>
</g>
</g>
</svg>
