<?xml version="1.0" encoding="UTF-8" standalone="no"?>
<!DOCTYPE svg PUBLIC "-//W3C//DTD SVG 1.1//EN"
 "http://www.w3.org/Graphics/SVG/1.1/DTD/svg11.dtd">
<!-- Generated by graphviz version 2.50.0 (20211204.2007)
 -->
<!-- Title: Game Pages: 1 -->
<svg width="192pt" height="571pt"
 viewBox="0.00 0.00 191.50 571.00" xmlns="http://www.w3.org/2000/svg" xmlns:xlink="http://www.w3.org/1999/xlink">
<g id="graph0" class="graph" transform="scale(1 1) rotate(0) translate(4 567)">
<title>Game</title>
<polygon fill="white" stroke="transparent" points="-4,4 -4,-567 187.5,-567 187.5,4 -4,4"/>
<!-- Node1 -->
<g id="node1" class="node">
<title>Node1</title>
<g id="a_node1"><a xlink:title=" ">
<polygon fill="#bfbfbf" stroke="black" points="0,-0.5 0,-219.5 173,-219.5 173,-0.5 0,-0.5"/>
<text text-anchor="middle" x="86.5" y="-205.9" font-family="Helvetica,sans-Serif" font-size="12.00">Game</text>
<polyline fill="none" stroke="black" points="0,-198.5 173,-198.5 "/>
<text text-anchor="start" x="8" y="-184.9" font-family="Helvetica,sans-Serif" font-size="12.00">&#45; vector&lt; string &gt; wordList</text>
<text text-anchor="start" x="8" y="-171.9" font-family="Helvetica,sans-Serif" font-size="12.00">&#45; string wordToFind</text>
<text text-anchor="start" x="8" y="-158.9" font-family="Helvetica,sans-Serif" font-size="12.00">&#45; int turn</text>
<polyline fill="none" stroke="black" points="0,-151.5 173,-151.5 "/>
<text text-anchor="start" x="8" y="-137.9" font-family="Helvetica,sans-Serif" font-size="12.00">+ void play(bool cheat)</text>
<text text-anchor="start" x="8" y="-124.9" font-family="Helvetica,sans-Serif" font-size="12.00">&#45; void populateWordList()</text>
<text text-anchor="start" x="8" y="-111.9" font-family="Helvetica,sans-Serif" font-size="12.00">&#45; bool binarySearchWordList</text>
<text text-anchor="start" x="8" y="-98.9" font-family="Helvetica,sans-Serif" font-size="12.00">(string value)</text>
<text text-anchor="start" x="8" y="-85.9" font-family="Helvetica,sans-Serif" font-size="12.00">&#45; bool isValidWord(string</text>
<text text-anchor="start" x="8" y="-72.9" font-family="Helvetica,sans-Serif" font-size="12.00"> guess)</text>
<text text-anchor="start" x="8" y="-59.9" font-family="Helvetica,sans-Serif" font-size="12.00">&#45; void selectWord()</text>
<text text-anchor="start" x="8" y="-46.9" font-family="Helvetica,sans-Serif" font-size="12.00">&#45; void welcomeMessage()</text>
<text text-anchor="start" x="8" y="-33.9" font-family="Helvetica,sans-Serif" font-size="12.00">&#45; bool checkAndDisplayGuess</text>
<text text-anchor="start" x="8" y="-20.9" font-family="Helvetica,sans-Serif" font-size="12.00">(string guess)</text>
<text text-anchor="start" x="8" y="-7.9" font-family="Helvetica,sans-Serif" font-size="12.00">&#45; bool playerGuess()</text>
</a>
</g>
</g>
<!-- Node2 -->
<g id="node2" class="node">
<title>Node2</title>
<g id="a_node2"><a xlink:href="class_guess_word.html" target="_top" xlink:title=" ">
<polygon fill="white" stroke="black" points="7.5,-269.5 7.5,-371.5 165.5,-371.5 165.5,-269.5 7.5,-269.5"/>
<text text-anchor="middle" x="86.5" y="-357.9" font-family="Helvetica,sans-Serif" font-size="12.00">GuessWord</text>
<polyline fill="none" stroke="black" points="7.5,-350.5 165.5,-350.5 "/>
<text text-anchor="middle" x="86.5" y="-336.9" font-family="Helvetica,sans-Serif" font-size="12.00"> </text>
<polyline fill="none" stroke="black" points="7.5,-329.5 165.5,-329.5 "/>
<text text-anchor="start" x="15.5" y="-315.9" font-family="Helvetica,sans-Serif" font-size="12.00">+ void setGuessCharacters</text>
<text text-anchor="start" x="15.5" y="-302.9" font-family="Helvetica,sans-Serif" font-size="12.00">(string guess, string</text>
<text text-anchor="start" x="15.5" y="-289.9" font-family="Helvetica,sans-Serif" font-size="12.00"> wordToFind)</text>
<text text-anchor="start" x="15.5" y="-276.9" font-family="Helvetica,sans-Serif" font-size="12.00">+ void display()</text>
</a>
</g>
</g>
<!-- Node2&#45;&gt;Node1 -->
<g id="edge1" class="edge">
<title>Node2&#45;&gt;Node1</title>
<path fill="none" stroke="#404040" d="M86.5,-269.29C86.5,-257.76 86.5,-245.01 86.5,-231.9"/>
<polygon fill="none" stroke="#404040" points="86.5,-231.78 82.5,-225.78 86.5,-219.78 90.5,-225.78 86.5,-231.78"/>
<text text-anchor="middle" x="123" y="-241.4" font-family="Helvetica,sans-Serif" font-size="12.00"> &#45;guessWords</text>
</g>
<!-- Node3 -->
<g id="node3" class="node">
<title>Node3</title>
<g id="a_node3"><a xlink:href="class_guess_character.html" target="_top" xlink:title=" ">
<polygon fill="white" stroke="black" points="21,-421.5 21,-562.5 152,-562.5 152,-421.5 21,-421.5"/>
<text text-anchor="middle" x="86.5" y="-548.9" font-family="Helvetica,sans-Serif" font-size="12.00">GuessCharacter</text>
<polyline fill="none" stroke="black" points="21,-541.5 152,-541.5 "/>
<text text-anchor="start" x="29" y="-527.9" font-family="Helvetica,sans-Serif" font-size="12.00">&#45; char letter</text>
<text text-anchor="start" x="29" y="-514.9" font-family="Helvetica,sans-Serif" font-size="12.00">&#45; Status status</text>
<polyline fill="none" stroke="black" points="21,-507.5 152,-507.5 "/>
<text text-anchor="start" x="29" y="-493.9" font-family="Helvetica,sans-Serif" font-size="12.00">+ GuessCharacter()</text>
<text text-anchor="start" x="29" y="-480.9" font-family="Helvetica,sans-Serif" font-size="12.00">+ void displayChar()</text>
<text text-anchor="start" x="29" y="-467.9" font-family="Helvetica,sans-Serif" font-size="12.00">+ void setLetter(char</text>
<text text-anchor="start" x="29" y="-454.9" font-family="Helvetica,sans-Serif" font-size="12.00"> letter)</text>
<text text-anchor="start" x="29" y="-441.9" font-family="Helvetica,sans-Serif" font-size="12.00">+ void setStats(Status</text>
<text text-anchor="start" x="29" y="-428.9" font-family="Helvetica,sans-Serif" font-size="12.00"> status)</text>
</a>
</g>
</g>
<!-- Node3&#45;&gt;Node2 -->
<g id="edge2" class="edge">
<title>Node3&#45;&gt;Node2</title>
<path fill="none" stroke="#404040" d="M86.5,-421.08C86.5,-408.76 86.5,-396.01 86.5,-383.92"/>
<polygon fill="none" stroke="#404040" points="86.5,-383.59 82.5,-377.59 86.5,-371.59 90.5,-377.59 86.5,-383.59"/>
<text text-anchor="middle" x="135" y="-393.4" font-family="Helvetica,sans-Serif" font-size="12.00"> &#45;guessCharacters</text>
</g>
</g>
</svg>
